
<svg xmlns="http://www.w3.org/2000/svg">

  <symbol id="icon-phone" viewBox="0 0 640 640">
      <path d="M224.2 89c-7.9-18.9-28.5-28.9-48.1-23.6l-5.5 1.5C106 84.5 50.8 147.1 66.9 223.3 104 398.3 241.7 536 416.7 573.1 493 589.3 555.5 534 573.1 469.4l1.5-5.5c5.4-19.7-4.7-40.3-23.5-48.1l-97.3-40.5c-16.5-6.9-35.6-2.1-47 11.8l-38.6 47.2c-70.3-34.9-126.9-93.3-159.4-165l44.2-36c13.9-11.3 18.6-30.4 11.8-47z"/>
  </symbol>


   <symbol id="icon-envelope" viewBox="0 0 700 700">
      <path d="M112 128c-26.5 0-48 21.5-48 48 0 15.1 7.1 29.3 19.2 38.4l208 156a48 48 0 0 0 57.6 0l208-156c12.1-9.1 19.2-23.3 19.2-38.4 0-26.5-21.5-48-48-48zM64 260v188c0 35.3 28.7 64 64 64h384c35.3 0 64-28.7 64-64V260L377.6 408.8c-34.1 25.6-81.1 25.6-115.2 0z"/>
   </symbol>


 <symbol id="icon-lock" viewBox="0 0 700 700">
      <path d="M256 160v64h128v-64c0-35.3-28.7-64-64-64s-64 28.7-64 64m-64 64v-64c0-70.7 57.3-128 128-128s128 57.3 128 128v64c35.3 0 64 28.7 64 64v224c0 35.3-28.7 64-64 64H192c-35.3 0-64-28.7-64-64V288c0-35.3 28.7-64 64-64"/>
  </symbol>


   <symbol id="icon-lock" viewBox="0 0 700 700">
      <path d="M256 160v64h128v-64c0-35.3-28.7-64-64-64s-64 28.7-64 64m-64 64v-64c0-70.7 57.3-128 128-128s128 57.3 128 128v64c35.3 0 64 28.7 64 64v224c0 35.3-28.7 64-64 64H192c-35.3 0-64-28.7-64-64V288c0-35.3 28.7-64 64-64"/>
  </symbol>



   <symbol id="icon-arrow-right" viewBox="0 0 700 700">
     <path d="M566.6 342.6c12.5-12.5 12.5-32.8 0-45.3l-160-160c-12.5-12.5-32.8-12.5-45.3 0s-12.5 32.8 0 45.3L466.7 288H96c-17.7 0-32 14.3-32 32s14.3 32 32 32h370.7L361.3 457.4c-12.5 12.5-12.5 32.8 0 45.3s32.8 12.5 45.3 0l160-160z"/>
  </symbol>


   <symbol id="icon-eye-slash" viewBox="0 0 700 700">
     <path d="M73 39.1c-9.4-9.4-24.6-9.4-33.9 0s-9.4 24.6-.1 34l528 528c9.4 9.4 24.6 9.4 33.9 0s9.4-24.6 0-33.9l-96.4-96.4c2.7-2.4 5.4-4.8 8-7.2 46.8-43.5 78.1-95.4 93-131.1 3.3-7.9 3.3-16.7 0-24.6-14.9-35.7-46.2-87.7-93-131.1-47.1-43.7-111.8-80.6-192.6-80.6-56.8 0-105.6 18.2-146 44.2zm163.5 163.6C260 185.9 288.9 176 320 176c79.5 0 144 64.5 144 144 0 31.1-9.9 59.9-26.7 83.5l-34.7-34.7c12.7-21.4 17-47.7 10.1-73.7-13.7-51.2-66.4-81.6-117.6-67.9-8.6 2.3-16.7 5.7-24 10l-34.7-34.7zm120.8 256.4c-11.9 3.2-24.4 4.9-37.3 4.9-79.5 0-144-64.5-144-144 0-12.9 1.7-25.4 4.9-37.3l-79.5-79.5C68.8 240 46.4 279 34.5 307.7c-3.3 7.9-3.3 16.7 0 24.6 14.9 35.7 46.2 87.7 93 131.1 47.1 43.7 111.8 80.6 192.6 80.6 37.3 0 71.2-7.9 101.5-20.6l-64.2-64.2z"/>
  </symbol>



 <symbol id="icon-eye" viewBox="0 0 700 700">
     <path d="M320 96c-80.8 0-145.5 36.8-192.6 80.6-46.8 43.5-78.1 95.4-93 131.1-3.3 7.9-3.3 16.7 0 24.6 14.9 35.7 46.2 87.7 93 131.1C174.5 507.1 239.2 544 320 544s145.5-36.8 192.6-80.6c46.8-43.5 78.1-95.4 93-131.1 3.3-7.9 3.3-16.7 0-24.6-14.9-35.7-46.2-87.7-93-131.1C465.5 132.9 400.8 96 320 96M176 320c0-79.5 64.5-144 144-144s144 64.5 144 144-64.5 144-144 144-144-64.5-144-144m144-64c0 35.3-28.7 64-64 64-11.5 0-22.3-3-31.7-8.4-1 10.9-.1 22.1 2.9 33.2 13.7 51.2 66.4 81.6 117.6 67.9s81.6-66.4 67.9-117.6c-12.2-45.7-55.5-74.8-101.1-70.8 5.3 9.3 8.4 20.1 8.4 31.7"/>
</symbol>

</svg>






