<svg width="23" height="23" viewBox="0 0 23 23" fill="none" xmlns="http://www.w3.org/2000/svg">
<path d="M17.25 1.91669V3.83335M5.75 1.91669V3.83335" stroke="#429963" stroke-width="1.5" stroke-linecap="round" stroke-linejoin="round"/>
<path d="M2.39648 11.7331C2.39648 7.55736 2.39648 5.46948 3.59643 4.17224C4.79638 2.875 6.72766 2.875 10.5902 2.875H12.4111C16.2736 2.875 18.205 2.875 19.4049 4.17224C20.6048 5.46948 20.6048 7.55736 20.6048 11.7331V12.2253C20.6048 16.401 20.6048 18.4888 19.4049 19.7861C18.205 21.0833 16.2736 21.0833 12.4111 21.0833H10.5902C6.72766 21.0833 4.79638 21.0833 3.59643 19.7861C2.39648 18.4888 2.39648 16.401 2.39648 12.2253V11.7331Z" stroke="#429963" stroke-width="1.5" stroke-linecap="round" stroke-linejoin="round"/>
<path d="M2.875 7.66669H20.125" stroke="#429963" stroke-width="1.5" stroke-linecap="round" stroke-linejoin="round"/>
</svg>
