<svg width="25" height="25" viewBox="0 0 25 25" fill="none" xmlns="http://www.w3.org/2000/svg">
<path d="M17.7322 3.16014L16.7378 2.8952C13.9254 2.14585 12.5191 1.77118 11.4113 2.40718C10.3035 3.04318 9.92667 4.44149 9.17308 7.23809L8.10733 11.1931C7.35372 13.9896 6.97693 15.388 7.61654 16.4895C8.25614 17.5912 9.66238 17.9658 12.4749 18.7152L13.4692 18.9802C16.2816 19.7294 17.6879 20.1041 18.7957 19.4682C19.9035 18.8321 20.2804 17.4338 21.0339 14.6372L22.0997 10.6822C22.8533 7.88563 23.2301 6.48733 22.5905 5.38575C21.9509 4.28416 20.5447 3.90949 17.7322 3.16014Z" stroke="#124959" stroke-width="1.5"/>
<path d="M17.6723 7.78544C17.6723 8.63344 16.981 9.32089 16.1282 9.32089C15.2753 9.32089 14.584 8.63344 14.584 7.78544C14.584 6.93744 15.2753 6.25 16.1282 6.25C16.981 6.25 17.6723 6.93744 17.6723 7.78544Z" stroke="#124959" stroke-width="1.5"/>
<path d="M12.5007 21.8189L11.5087 22.089C8.70277 22.853 7.29984 23.2351 6.1946 22.5866C5.08937 21.9382 4.71346 20.5124 3.96162 17.661L2.89838 13.6284C2.14655 10.7769 1.77063 9.35118 2.40875 8.22799C2.96073 7.25639 4.16732 7.29177 5.72982 7.29164" stroke="#124959" stroke-width="1.5" stroke-linecap="round"/>
</svg>
