<svg width="33" height="33" viewBox="0 0 33 33" fill="none" xmlns="http://www.w3.org/2000/svg">
<path d="M21.1336 20.7495C21.6575 20.9241 22.2238 20.6409 22.3985 20.117C22.5731 19.5931 22.29 19.0267 21.766 18.8521L21.4498 19.8008L21.1336 20.7495ZM16.4998 18.1508H15.4998C15.4998 18.5812 15.7752 18.9633 16.1836 19.0995L16.4998 18.1508ZM17.4998 11.2514C17.4998 10.6991 17.0521 10.2514 16.4998 10.2514C15.9475 10.2514 15.4998 10.6991 15.4998 11.2514H16.4998H17.4998ZM21.4498 19.8008L21.766 18.8521L16.816 17.2021L16.4998 18.1508L16.1836 19.0995L21.1336 20.7495L21.4498 19.8008ZM16.4998 18.1508H17.4998V11.2514H16.4998H15.4998V18.1508H16.4998ZM29.6998 16.5008H28.6998C28.6998 23.2387 23.2377 28.7008 16.4998 28.7008V29.7008V30.7008C24.3422 30.7008 30.6998 24.3432 30.6998 16.5008H29.6998ZM16.4998 29.7008V28.7008C9.76193 28.7008 4.2998 23.2387 4.2998 16.5008H3.2998H2.2998C2.2998 24.3432 8.65736 30.7008 16.4998 30.7008V29.7008ZM3.2998 16.5008H4.2998C4.2998 9.76291 9.76193 4.30078 16.4998 4.30078V3.30078V2.30078C8.65736 2.30078 2.2998 8.65834 2.2998 16.5008H3.2998ZM16.4998 3.30078V4.30078C23.2377 4.30078 28.6998 9.76291 28.6998 16.5008H29.6998H30.6998C30.6998 8.65834 24.3422 2.30078 16.4998 2.30078V3.30078Z" fill="#063C5E"/>
</svg>
