<svg width="189" height="168" viewBox="0 0 189 168" fill="none" xmlns="http://www.w3.org/2000/svg">
<path d="M183.051 156.453C182.344 156.453 181.656 156.591 181.001 156.859C180.346 157.135 179.77 157.521 179.265 158.019C178.767 158.524 178.381 159.1 178.106 159.756C177.837 160.411 177.7 161.099 177.7 161.806C177.7 162.514 177.837 163.196 178.106 163.857C178.381 164.513 178.767 165.089 179.265 165.594C179.77 166.092 180.346 166.478 181.001 166.753C181.656 167.022 182.344 167.16 183.051 167.16C183.759 167.16 184.44 167.022 185.095 166.753C185.757 166.478 186.333 166.092 186.831 165.594C187.336 165.089 187.722 164.513 187.997 163.857C188.266 163.196 188.403 162.514 188.403 161.806C188.403 161.099 188.266 160.411 187.997 159.756C187.722 159.1 187.336 158.524 186.831 158.019C186.333 157.521 185.757 157.135 185.095 156.859C184.44 156.591 183.759 156.453 183.051 156.453Z" fill="white"/>
<path d="M183.051 134.102C182.344 134.102 181.656 134.24 181.001 134.508C180.346 134.784 179.77 135.17 179.265 135.668C178.767 136.173 178.381 136.749 178.106 137.405C177.837 138.066 177.7 138.748 177.7 139.455C177.7 140.163 177.837 140.851 178.106 141.506C178.381 142.162 178.767 142.738 179.265 143.243C179.77 143.741 180.346 144.127 181.001 144.402C181.656 144.671 182.344 144.809 183.051 144.809C183.759 144.809 184.44 144.671 185.095 144.402C185.757 144.127 186.333 143.741 186.831 143.243C187.336 142.738 187.722 142.162 187.997 141.506C188.266 140.851 188.403 140.163 188.403 139.455C188.403 138.748 188.266 138.066 187.997 137.405C187.722 136.749 187.336 136.173 186.831 135.668C186.333 135.17 185.757 134.784 185.095 134.508C184.44 134.24 183.759 134.102 183.051 134.102Z" fill="white"/>
<path d="M183.051 111.753C182.344 111.753 181.656 111.89 181.001 112.159C180.346 112.434 179.77 112.821 179.265 113.325C178.767 113.823 178.381 114.4 178.106 115.061C177.837 115.717 177.7 116.398 177.7 117.106C177.7 117.813 177.837 118.501 178.106 119.157C178.381 119.812 178.767 120.389 179.265 120.893C179.77 121.391 180.346 121.778 181.001 122.053C181.656 122.321 182.344 122.459 183.051 122.459C183.759 122.459 184.44 122.321 185.095 122.053C185.757 121.778 186.333 121.391 186.831 120.893C187.336 120.389 187.722 119.812 187.997 119.157C188.266 118.501 188.403 117.813 188.403 117.106C188.403 116.398 188.266 115.717 187.997 115.061C187.722 114.4 187.336 113.823 186.831 113.325C186.333 112.821 185.757 112.434 185.095 112.159C184.44 111.89 183.759 111.753 183.051 111.753Z" fill="white"/>
<path d="M183.051 89.4015C182.344 89.4015 181.656 89.5391 181.001 89.8078C180.346 90.083 179.77 90.4695 179.265 90.9675C178.767 91.4721 178.381 92.0487 178.106 92.7039C177.837 93.3657 177.7 94.0471 177.7 94.7548C177.7 95.4624 177.837 96.1504 178.106 96.8057C178.381 97.4609 178.767 98.0375 179.265 98.542C179.77 99.04 180.346 99.4266 181.001 99.7018C181.656 99.9704 182.344 100.108 183.051 100.108C183.759 100.108 184.44 99.9704 185.095 99.7018C185.757 99.4266 186.333 99.04 186.831 98.542C187.336 98.0375 187.722 97.4609 187.997 96.8057C188.266 96.1504 188.403 95.4624 188.403 94.7548C188.403 94.0471 188.266 93.3657 187.997 92.7039C187.722 92.0487 187.336 91.4721 186.831 90.9675C186.333 90.4695 185.757 90.083 185.095 89.8078C184.44 89.5391 183.759 89.4015 183.051 89.4015Z" fill="white"/>
<path d="M183.051 67.0519C182.344 67.0519 181.656 67.1895 181.001 67.4581C180.346 67.7333 179.77 68.1199 179.265 68.6245C178.767 69.1224 178.381 69.699 178.106 70.3543C177.837 71.0161 177.7 71.6975 177.7 72.4052C177.7 73.1128 177.837 73.8008 178.106 74.456C178.381 75.1113 178.767 75.6879 179.265 76.1924C179.77 76.6904 180.346 77.077 181.001 77.3522C181.656 77.6208 182.344 77.7584 183.051 77.7584C183.759 77.7584 184.44 77.6208 185.095 77.3522C185.757 77.077 186.333 76.6904 186.831 76.1924C187.336 75.6879 187.722 75.1113 187.997 74.456C188.266 73.8008 188.403 73.1128 188.403 72.4052C188.403 71.6975 188.266 71.0161 187.997 70.3543C187.722 69.699 187.336 69.1224 186.831 68.6245C186.333 68.1199 185.757 67.7333 185.095 67.4581C184.44 67.1895 183.759 67.0519 183.051 67.0519Z" fill="white"/>
<path d="M183.051 44.7009C182.344 44.7009 181.656 44.8385 181.001 45.1137C180.346 45.3823 179.77 45.7689 179.265 46.2735C178.767 46.7714 178.381 47.348 178.106 48.0098C177.837 48.6651 177.7 49.3465 177.7 50.0541C177.7 50.7618 177.837 51.4498 178.106 52.105C178.381 52.7603 178.767 53.3369 179.265 53.8414C179.77 54.3394 180.346 54.726 181.001 55.0012C181.656 55.2698 182.344 55.4074 183.051 55.4074C183.759 55.4074 184.44 55.2698 185.095 55.0012C185.757 54.726 186.333 54.3394 186.831 53.8414C187.336 53.3369 187.722 52.7603 187.997 52.105C188.266 51.4498 188.403 50.7618 188.403 50.0542C188.403 49.3465 188.266 48.6651 187.997 48.0098C187.722 47.348 187.336 46.7714 186.831 46.2735C186.333 45.7689 185.757 45.3823 185.095 45.1137C184.44 44.8385 183.759 44.7009 183.051 44.7009Z" fill="white"/>
<path d="M183.051 22.3512C182.344 22.3512 181.656 22.4888 181.001 22.7575C180.346 23.0327 179.77 23.4193 179.265 23.9172C178.767 24.4218 178.381 24.9984 178.106 25.6536C177.837 26.3154 177.7 26.9968 177.7 27.7045C177.7 28.4121 177.837 29.1001 178.106 29.7554C178.381 30.4106 178.767 30.9872 179.265 31.4917C179.77 31.9897 180.346 32.3763 181.001 32.6515C181.656 32.9201 182.344 33.0577 183.051 33.0577C183.759 33.0577 184.44 32.9201 185.095 32.6515C185.757 32.3763 186.333 31.9897 186.831 31.4917C187.336 30.9872 187.722 30.4106 187.997 29.7554C188.266 29.1001 188.403 28.4121 188.403 27.7045C188.403 26.9968 188.266 26.3154 187.997 25.6536C187.722 24.9984 187.336 24.4218 186.831 23.9172C186.333 23.4193 185.757 23.0327 185.095 22.7575C184.44 22.4888 183.759 22.3512 183.051 22.3512Z" fill="white"/>
<path d="M183.051 0.000267749C182.344 0.000267718 181.656 0.137868 181.001 0.406513C180.346 0.68171 179.77 1.0683 179.265 1.57283C178.767 2.07081 178.381 2.64741 178.106 3.3092C177.837 3.96443 177.7 4.64588 177.7 5.35353C177.7 6.06118 177.837 6.74918 178.106 7.40441C178.381 8.05964 178.767 8.63625 179.265 9.14078C179.77 9.63876 180.346 10.0253 181.001 10.3005C181.656 10.5692 182.344 10.7068 183.051 10.7068C183.759 10.7068 184.44 10.5692 185.095 10.3005C185.757 10.0253 186.333 9.63876 186.831 9.14078C187.336 8.63625 187.722 8.05964 187.997 7.40441C188.266 6.74918 188.403 6.06118 188.403 5.35353C188.403 4.64588 188.266 3.96443 187.997 3.3092C187.722 2.64741 187.336 2.07081 186.831 1.57283C186.333 1.0683 185.757 0.68171 185.095 0.406513C184.44 0.137868 183.759 0.000267779 183.051 0.000267749Z" fill="white"/>
<path d="M163.307 156.453C162.593 156.453 161.912 156.59 161.257 156.859C160.602 157.134 160.025 157.521 159.521 158.019C159.023 158.523 158.636 159.1 158.361 159.755C158.093 160.41 157.955 161.098 157.955 161.806C157.955 162.513 158.093 163.195 158.361 163.857C158.636 164.512 159.023 165.089 159.521 165.593C160.025 166.091 160.602 166.478 161.257 166.753C161.912 167.021 162.593 167.159 163.307 167.159C164.014 167.159 164.696 167.021 165.351 166.753C166.006 166.478 166.589 166.091 167.087 165.593C167.591 165.089 167.978 164.512 168.246 163.857C168.521 163.195 168.652 162.513 168.652 161.806C168.652 161.098 168.521 160.41 168.246 159.755C167.978 159.1 167.591 158.523 167.087 158.019C166.589 157.521 166.006 157.134 165.351 156.859C164.696 156.59 164.014 156.453 163.307 156.453Z" fill="white"/>
<path d="M163.308 134.102C162.594 134.102 161.913 134.24 161.258 134.509C160.603 134.784 160.026 135.17 159.522 135.668C159.024 136.173 158.637 136.749 158.362 137.405C158.094 138.066 157.956 138.748 157.956 139.456C157.956 140.163 158.094 140.851 158.362 141.506C158.637 142.162 159.024 142.738 159.522 143.243C160.026 143.741 160.603 144.127 161.258 144.403C161.913 144.671 162.594 144.809 163.308 144.809C164.015 144.809 164.697 144.671 165.352 144.403C166.007 144.127 166.59 143.741 167.088 143.243C167.592 142.738 167.979 142.162 168.247 141.506C168.522 140.851 168.653 140.163 168.653 139.456C168.653 138.748 168.522 138.066 168.247 137.405C167.979 136.749 167.592 136.173 167.088 135.668C166.59 135.17 166.007 134.784 165.352 134.509C164.697 134.24 164.015 134.102 163.308 134.102Z" fill="white"/>
<path d="M163.307 111.752C162.593 111.752 161.912 111.89 161.257 112.158C160.602 112.433 160.025 112.82 159.521 113.324C159.023 113.822 158.636 114.399 158.361 115.061C158.093 115.716 157.955 116.398 157.955 117.105C157.955 117.813 158.093 118.501 158.361 119.156C158.636 119.811 159.023 120.388 159.521 120.892C160.025 121.39 160.602 121.777 161.257 122.052C161.912 122.321 162.593 122.458 163.307 122.458C164.014 122.458 164.696 122.321 165.351 122.052C166.006 121.777 166.589 121.39 167.087 120.892C167.591 120.388 167.978 119.811 168.246 119.156C168.521 118.501 168.652 117.813 168.652 117.105C168.652 116.398 168.521 115.716 168.246 115.061C167.978 114.399 167.591 113.822 167.087 113.324C166.589 112.82 166.006 112.433 165.351 112.158C164.696 111.89 164.014 111.752 163.307 111.752Z" fill="white"/>
<path d="M163.308 89.4017C162.594 89.4017 161.913 89.5393 161.258 89.8079C160.603 90.0831 160.026 90.4697 159.522 90.9677C159.024 91.4722 158.637 92.0488 158.362 92.7041C158.094 93.3659 157.956 94.0473 157.956 94.755C157.956 95.4626 158.094 96.1506 158.362 96.8058C158.637 97.4611 159.024 98.0377 159.522 98.5422C160.026 99.0402 160.603 99.4268 161.258 99.702C161.913 99.9706 162.594 100.108 163.308 100.108C164.015 100.108 164.697 99.9706 165.352 99.702C166.007 99.4268 166.59 99.0402 167.088 98.5422C167.592 98.0377 167.979 97.4611 168.247 96.8058C168.522 96.1506 168.653 95.4626 168.653 94.755C168.653 94.0473 168.522 93.3659 168.247 92.7041C167.979 92.0488 167.592 91.4722 167.088 90.9677C166.59 90.4697 166.007 90.0831 165.352 89.8079C164.697 89.5393 164.015 89.4017 163.308 89.4017Z" fill="white"/>
<path d="M163.308 67.0521C162.594 67.0521 161.913 67.1897 161.258 67.4583C160.603 67.7335 160.026 68.1201 159.522 68.6246C159.024 69.1226 158.637 69.6992 158.362 70.3545C158.094 71.0163 157.956 71.6977 157.956 72.4053C157.956 73.113 158.094 73.801 158.362 74.4562C158.637 75.1115 159.024 75.6881 159.522 76.1926C160.026 76.6906 160.603 77.0772 161.258 77.3524C161.913 77.621 162.594 77.7586 163.308 77.7586C164.015 77.7586 164.697 77.621 165.352 77.3524C166.007 77.0772 166.59 76.6906 167.088 76.1926C167.592 75.6881 167.979 75.1115 168.247 74.4562C168.522 73.801 168.653 73.113 168.653 72.4053C168.653 71.6977 168.522 71.0163 168.247 70.3545C167.979 69.6992 167.592 69.1226 167.088 68.6246C166.59 68.1201 166.007 67.7335 165.352 67.4583C164.697 67.1897 164.015 67.0521 163.308 67.0521Z" fill="white"/>
<path d="M163.308 44.7011C162.594 44.7011 161.913 44.8387 161.258 45.1139C160.603 45.3826 160.026 45.7692 159.522 46.2737C159.024 46.7717 158.637 47.3483 158.362 48.0101C158.094 48.6653 157.956 49.3467 157.956 50.0544C157.956 50.762 158.094 51.45 158.362 52.1053C158.637 52.7605 159.024 53.3371 159.522 53.8416C160.026 54.3396 160.603 54.7262 161.258 55.0014C161.913 55.2701 162.594 55.4077 163.308 55.4077C164.015 55.4077 164.697 55.2701 165.352 55.0014C166.007 54.7262 166.59 54.3396 167.088 53.8416C167.592 53.3371 167.979 52.7605 168.247 52.1053C168.522 51.45 168.653 50.762 168.653 50.0544C168.653 49.3467 168.522 48.6653 168.247 48.0101C167.979 47.3483 167.592 46.7717 167.088 46.2737C166.59 45.7692 166.007 45.3826 165.352 45.1139C164.697 44.8387 164.015 44.7011 163.308 44.7011Z" fill="white"/>
<path d="M163.308 22.3514C162.594 22.3514 161.913 22.489 161.258 22.7576C160.603 23.0328 160.026 23.4194 159.522 23.9174C159.024 24.4219 158.637 24.9985 158.362 25.6538C158.094 26.3156 157.956 26.997 157.956 27.7047C157.956 28.4123 158.094 29.1003 158.362 29.7555C158.637 30.4108 159.024 30.9874 159.522 31.4919C160.026 31.9899 160.603 32.3765 161.258 32.6517C161.913 32.9203 162.594 33.0579 163.308 33.0579C164.015 33.0579 164.697 32.9203 165.352 32.6517C166.007 32.3765 166.59 31.9899 167.088 31.4919C167.592 30.9874 167.979 30.4108 168.247 29.7555C168.522 29.1003 168.653 28.4123 168.653 27.7047C168.653 26.997 168.522 26.3156 168.247 25.6538C167.979 24.9985 167.592 24.4219 167.088 23.9174C166.59 23.4194 166.007 23.0328 165.352 22.7576C164.697 22.489 164.015 22.3514 163.308 22.3514Z" fill="white"/>
<path d="M163.308 0.000511889C162.594 0.000511858 161.913 0.138112 161.258 0.406757C160.603 0.681954 160.026 1.06854 159.522 1.57307C159.024 2.07105 158.637 2.64766 158.362 3.30944C158.094 3.96468 157.956 4.64612 157.956 5.35377C157.956 6.06143 158.094 6.74942 158.362 7.40465C158.637 8.05989 159.024 8.63649 159.522 9.14102C160.026 9.639 160.603 10.0256 161.258 10.3008C161.913 10.5694 162.594 10.707 163.308 10.707C164.015 10.707 164.697 10.5694 165.352 10.3008C166.007 10.0256 166.59 9.639 167.088 9.14102C167.592 8.63649 167.979 8.05989 168.247 7.40465C168.522 6.74942 168.653 6.06143 168.653 5.35377C168.653 4.64612 168.522 3.96468 168.247 3.30944C167.979 2.64766 167.592 2.07105 167.088 1.57307C166.59 1.06854 166.007 0.681954 165.352 0.406757C164.697 0.138112 164.015 0.00051192 163.308 0.000511889Z" fill="white"/>
<path d="M143.564 156.453C142.85 156.453 142.169 156.59 141.514 156.859C140.858 157.134 140.282 157.521 139.778 158.019C139.273 158.523 138.887 159.1 138.618 159.755C138.343 160.41 138.212 161.098 138.212 161.806C138.212 162.514 138.343 163.195 138.618 163.857C138.887 164.512 139.273 165.089 139.778 165.593C140.282 166.091 140.858 166.478 141.514 166.753C142.169 167.022 142.85 167.159 143.564 167.159C144.271 167.159 144.953 167.022 145.608 166.753C146.263 166.478 146.839 166.091 147.344 165.593C147.848 165.089 148.234 164.512 148.503 163.857C148.778 163.195 148.909 162.514 148.909 161.806C148.909 161.098 148.778 160.41 148.503 159.755C148.234 159.1 147.848 158.523 147.344 158.019C146.839 157.521 146.263 157.134 145.608 156.859C144.953 156.59 144.271 156.453 143.564 156.453Z" fill="white"/>
<path d="M143.564 134.102C142.85 134.102 142.169 134.239 141.514 134.508C140.858 134.783 140.282 135.17 139.778 135.668C139.273 136.172 138.887 136.749 138.618 137.404C138.343 138.066 138.212 138.747 138.212 139.455C138.212 140.163 138.343 140.851 138.618 141.506C138.887 142.161 139.273 142.738 139.778 143.242C140.282 143.74 140.858 144.127 141.514 144.402C142.169 144.671 142.85 144.808 143.564 144.808C144.271 144.808 144.953 144.671 145.608 144.402C146.263 144.127 146.839 143.74 147.344 143.242C147.848 142.738 148.234 142.161 148.503 141.506C148.778 140.851 148.909 140.163 148.909 139.455C148.909 138.747 148.778 138.066 148.503 137.404C148.234 136.749 147.848 136.172 147.344 135.668C146.839 135.17 146.263 134.783 145.608 134.508C144.953 134.239 144.271 134.102 143.564 134.102Z" fill="white"/>
<path d="M143.564 111.752C142.85 111.752 142.169 111.89 141.514 112.158C140.858 112.433 140.282 112.82 139.778 113.325C139.273 113.823 138.887 114.399 138.618 115.061C138.343 115.716 138.212 116.398 138.212 117.105C138.212 117.813 138.343 118.501 138.618 119.156C138.887 119.811 139.273 120.388 139.778 120.893C140.282 121.391 140.858 121.777 141.514 122.052C142.169 122.321 142.85 122.459 143.564 122.459C144.271 122.459 144.953 122.321 145.608 122.052C146.263 121.777 146.839 121.391 147.344 120.893C147.848 120.388 148.234 119.811 148.503 119.156C148.778 118.501 148.909 117.813 148.909 117.105C148.909 116.398 148.778 115.716 148.503 115.061C148.234 114.399 147.848 113.823 147.344 113.325C146.839 112.82 146.263 112.433 145.608 112.158C144.953 111.89 144.271 111.752 143.564 111.752Z" fill="white"/>
<path d="M143.565 89.4018C142.851 89.4018 142.17 89.5394 141.514 89.8081C140.859 90.0833 140.283 90.4698 139.779 90.9678C139.274 91.4724 138.888 92.049 138.619 92.7042C138.344 93.366 138.213 94.0474 138.213 94.7551C138.213 95.4627 138.344 96.1507 138.619 96.806C138.888 97.4612 139.274 98.0378 139.779 98.5423C140.283 99.0403 140.859 99.4269 141.514 99.7021C142.17 99.9707 142.851 100.108 143.565 100.108C144.272 100.108 144.954 99.9707 145.609 99.7021C146.264 99.4269 146.84 99.0403 147.345 98.5423C147.849 98.0378 148.235 97.4612 148.504 96.806C148.779 96.1507 148.91 95.4627 148.91 94.7551C148.91 94.0474 148.779 93.366 148.504 92.7042C148.235 92.049 147.849 91.4724 147.345 90.9678C146.84 90.4698 146.264 90.0833 145.609 89.8081C144.954 89.5394 144.272 89.4018 143.565 89.4018Z" fill="white"/>
<path d="M143.564 67.0514C142.85 67.0514 142.169 67.189 141.514 67.4576C140.858 67.7328 140.282 68.1194 139.778 68.6239C139.273 69.1219 138.887 69.6985 138.618 70.3537C138.343 71.0155 138.212 71.697 138.212 72.4046C138.212 73.1123 138.343 73.8003 138.618 74.4555C138.887 75.1107 139.273 75.6873 139.778 76.1919C140.282 76.6898 140.858 77.0764 141.514 77.3516C142.169 77.6203 142.85 77.7579 143.564 77.7579C144.271 77.7579 144.953 77.6203 145.608 77.3516C146.263 77.0764 146.839 76.6898 147.344 76.1919C147.848 75.6873 148.234 75.1107 148.503 74.4555C148.778 73.8003 148.909 73.1123 148.909 72.4046C148.909 71.697 148.778 71.0155 148.503 70.3537C148.234 69.6985 147.848 69.1219 147.344 68.6239C146.839 68.1194 146.263 67.7328 145.608 67.4576C144.953 67.189 144.271 67.0514 143.564 67.0514Z" fill="white"/>
<path d="M143.564 44.7012C142.85 44.7012 142.169 44.8388 141.514 45.114C140.858 45.3826 140.282 45.7692 139.778 46.2738C139.273 46.7717 138.887 47.3483 138.618 48.0101C138.343 48.6654 138.212 49.3468 138.212 50.0545C138.212 50.7621 138.343 51.4501 138.618 52.1053C138.887 52.7606 139.273 53.3372 139.778 53.8417C140.282 54.3397 140.858 54.7263 141.514 55.0015C142.169 55.2701 142.85 55.4077 143.564 55.4077C144.271 55.4077 144.953 55.2701 145.608 55.0015C146.263 54.7263 146.839 54.3397 147.344 53.8417C147.848 53.3372 148.234 52.7606 148.503 52.1053C148.778 51.4501 148.909 50.7621 148.909 50.0545C148.909 49.3468 148.778 48.6654 148.503 48.0101C148.234 47.3483 147.848 46.7717 147.344 46.2738C146.839 45.7692 146.263 45.3826 145.608 45.114C144.953 44.8388 144.271 44.7012 143.564 44.7012Z" fill="white"/>
<path d="M143.565 22.3515C142.851 22.3515 142.17 22.4891 141.514 22.7578C140.859 23.033 140.283 23.4196 139.779 23.9175C139.274 24.4221 138.888 24.9987 138.619 25.6539C138.344 26.3157 138.213 26.9971 138.213 27.7048C138.213 28.4124 138.344 29.1004 138.619 29.7557C138.888 30.4109 139.274 30.9875 139.779 31.492C140.283 31.99 140.859 32.3766 141.514 32.6518C142.17 32.9204 142.851 33.058 143.565 33.058C144.272 33.058 144.954 32.9204 145.609 32.6518C146.264 32.3766 146.84 31.99 147.345 31.492C147.849 30.9875 148.235 30.4109 148.504 29.7557C148.779 29.1004 148.91 28.4124 148.91 27.7048C148.91 26.9971 148.779 26.3157 148.504 25.6539C148.235 24.9987 147.849 24.4221 147.345 23.9175C146.84 23.4196 146.264 23.033 145.609 22.7578C144.954 22.4891 144.272 22.3515 143.565 22.3515Z" fill="white"/>
<path d="M143.564 0.000511889C142.85 0.000511858 142.169 0.138112 141.514 0.406757C140.858 0.681954 140.282 1.06854 139.778 1.57307C139.273 2.07105 138.887 2.64766 138.618 3.30944C138.343 3.96468 138.212 4.64612 138.212 5.35377C138.212 6.06143 138.343 6.74942 138.618 7.40465C138.887 8.05989 139.273 8.63649 139.778 9.14102C140.282 9.639 140.858 10.0256 141.514 10.3008C142.169 10.5694 142.85 10.707 143.564 10.707C144.271 10.707 144.953 10.5694 145.608 10.3008C146.263 10.0256 146.839 9.639 147.344 9.14102C147.848 8.63649 148.234 8.05989 148.503 7.40465C148.778 6.74942 148.909 6.06143 148.909 5.35377C148.909 4.64612 148.778 3.96468 148.503 3.30944C148.234 2.64766 147.848 2.07105 147.344 1.57307C146.839 1.06854 146.263 0.681954 145.608 0.406757C144.953 0.138112 144.271 0.00051192 143.564 0.000511889Z" fill="white"/>
<path d="M123.814 156.453C123.107 156.453 122.425 156.59 121.77 156.859C121.115 157.134 120.539 157.521 120.034 158.019C119.53 158.523 119.144 159.1 118.875 159.755C118.6 160.41 118.469 161.098 118.469 161.806C118.469 162.514 118.6 163.195 118.875 163.857C119.144 164.512 119.53 165.089 120.034 165.593C120.539 166.091 121.115 166.478 121.77 166.753C122.425 167.022 123.107 167.159 123.814 167.159C124.528 167.159 125.209 167.022 125.864 166.753C126.52 166.478 127.096 166.091 127.6 165.593C128.105 165.089 128.491 164.512 128.76 163.857C129.035 163.195 129.166 162.514 129.166 161.806C129.166 161.098 129.035 160.41 128.76 159.755C128.491 159.1 128.105 158.523 127.6 158.019C127.096 157.521 126.52 157.134 125.864 156.859C125.209 156.59 124.528 156.453 123.814 156.453Z" fill="white"/>
<path d="M123.813 134.102C123.106 134.102 122.424 134.239 121.769 134.508C121.114 134.783 120.538 135.17 120.033 135.668C119.529 136.172 119.143 136.749 118.874 137.404C118.599 138.066 118.468 138.747 118.468 139.455C118.468 140.163 118.599 140.851 118.874 141.506C119.143 142.161 119.529 142.738 120.033 143.242C120.538 143.74 121.114 144.127 121.769 144.402C122.424 144.671 123.106 144.808 123.813 144.808C124.527 144.808 125.208 144.671 125.864 144.402C126.519 144.127 127.095 143.74 127.599 143.242C128.104 142.738 128.49 142.161 128.759 141.506C129.034 140.851 129.165 140.163 129.165 139.455C129.165 138.747 129.034 138.066 128.759 137.404C128.49 136.749 128.104 136.172 127.599 135.668C127.095 135.17 126.519 134.783 125.864 134.508C125.208 134.239 124.527 134.102 123.813 134.102Z" fill="white"/>
<path d="M123.814 111.752C123.107 111.752 122.425 111.89 121.77 112.158C121.115 112.434 120.539 112.82 120.034 113.325C119.53 113.823 119.144 114.399 118.875 115.061C118.6 115.716 118.469 116.398 118.469 117.105C118.469 117.813 118.6 118.501 118.875 119.156C119.144 119.812 119.53 120.388 120.034 120.893C120.539 121.391 121.115 121.777 121.77 122.052C122.425 122.321 123.107 122.459 123.814 122.459C124.528 122.459 125.209 122.321 125.864 122.052C126.52 121.777 127.096 121.391 127.6 120.893C128.105 120.388 128.491 119.812 128.76 119.156C129.035 118.501 129.166 117.813 129.166 117.105C129.166 116.398 129.035 115.716 128.76 115.061C128.491 114.399 128.105 113.823 127.6 113.325C127.096 112.82 126.52 112.434 125.864 112.158C125.209 111.89 124.528 111.752 123.814 111.752Z" fill="white"/>
<path d="M123.813 89.4011C123.106 89.4011 122.424 89.5387 121.769 89.8074C121.114 90.0826 120.538 90.4692 120.033 90.9672C119.529 91.4717 119.143 92.0483 118.874 92.7035C118.599 93.3653 118.468 94.0468 118.468 94.7544C118.468 95.4621 118.599 96.1501 118.874 96.8053C119.143 97.4605 119.529 98.0371 120.033 98.5417C120.538 99.0396 121.114 99.4262 121.769 99.7014C122.424 99.9701 123.106 100.108 123.813 100.108C124.527 100.108 125.208 99.9701 125.864 99.7014C126.519 99.4262 127.095 99.0396 127.599 98.5417C128.104 98.0371 128.49 97.4605 128.759 96.8053C129.034 96.1501 129.165 95.4621 129.165 94.7544C129.165 94.0468 129.034 93.3653 128.759 92.7035C128.49 92.0483 128.104 91.4717 127.599 90.9672C127.095 90.4692 126.519 90.0826 125.864 89.8074C125.208 89.5387 124.527 89.4011 123.813 89.4011Z" fill="white"/>
<path d="M123.813 67.0515C123.106 67.0515 122.424 67.1891 121.769 67.4578C121.114 67.733 120.538 68.1196 120.033 68.6241C119.529 69.1221 119.143 69.6987 118.874 70.3539C118.599 71.0157 118.468 71.6971 118.468 72.4048C118.468 73.1124 118.599 73.8004 118.874 74.4557C119.143 75.1109 119.529 75.6875 120.033 76.192C120.538 76.69 121.114 77.0766 121.769 77.3518C122.424 77.6205 123.106 77.7581 123.813 77.7581C124.527 77.7581 125.208 77.6205 125.864 77.3518C126.519 77.0766 127.095 76.69 127.599 76.192C128.104 75.6875 128.49 75.1109 128.759 74.4557C129.034 73.8004 129.165 73.1124 129.165 72.4048C129.165 71.6971 129.034 71.0157 128.759 70.3539C128.49 69.6987 128.104 69.1221 127.599 68.6241C127.095 68.1196 126.519 67.733 125.864 67.4578C125.208 67.1891 124.527 67.0515 123.813 67.0515Z" fill="white"/>
<path d="M123.814 44.7013C123.107 44.7013 122.425 44.8389 121.77 45.1141C121.115 45.3828 120.539 45.7693 120.034 46.2739C119.53 46.7719 119.144 47.3485 118.875 48.0102C118.6 48.6655 118.469 49.3469 118.469 50.0546C118.469 50.7622 118.6 51.4502 118.875 52.1055C119.144 52.7607 119.53 53.3373 120.034 53.8418C120.539 54.3398 121.115 54.7264 121.77 55.0016C122.425 55.2702 123.107 55.4078 123.814 55.4078C124.528 55.4078 125.209 55.2702 125.864 55.0016C126.52 54.7264 127.096 54.3398 127.6 53.8418C128.105 53.3373 128.491 52.7607 128.76 52.1055C129.035 51.4502 129.166 50.7622 129.166 50.0546C129.166 49.3469 129.035 48.6655 128.76 48.0102C128.491 47.3485 128.105 46.7719 127.6 46.2739C127.096 45.7693 126.52 45.3828 125.864 45.1141C125.209 44.8389 124.528 44.7013 123.814 44.7013Z" fill="white"/>
<path d="M123.813 22.3509C123.106 22.3509 122.424 22.4885 121.769 22.7572C121.114 23.0324 120.538 23.4189 120.033 23.9169C119.529 24.4215 119.143 24.9981 118.874 25.6533C118.599 26.3151 118.468 26.9965 118.468 27.7042C118.468 28.4118 118.599 29.0998 118.874 29.7551C119.143 30.4103 119.529 30.9869 120.033 31.4914C120.538 31.9894 121.114 32.376 121.769 32.6512C122.424 32.9198 123.106 33.0574 123.813 33.0574C124.527 33.0574 125.208 32.9198 125.864 32.6512C126.519 32.376 127.095 31.9894 127.599 31.4914C128.104 30.9869 128.49 30.4103 128.759 29.7551C129.034 29.0998 129.165 28.4118 129.165 27.7042C129.165 26.9965 129.034 26.3151 128.759 25.6533C128.49 24.9981 128.104 24.4215 127.599 23.9169C127.095 23.4189 126.519 23.0324 125.864 22.7572C125.208 22.4885 124.527 22.3509 123.813 22.3509Z" fill="white"/>
<path d="M123.814 0.000694995C123.107 0.000694964 122.425 0.138295 121.77 0.40694C121.115 0.682137 120.539 1.06873 120.034 1.57326C119.53 2.07123 119.144 2.64784 118.875 3.30963C118.6 3.96486 118.469 4.6463 118.469 5.35395C118.469 6.06161 118.6 6.7496 118.875 7.40484C119.144 8.06007 119.53 8.63668 120.034 9.14121C120.539 9.63918 121.115 10.0258 121.77 10.301C122.425 10.5696 123.107 10.7072 123.814 10.7072C124.528 10.7072 125.209 10.5696 125.864 10.301C126.52 10.0258 127.096 9.63918 127.6 9.14121C128.105 8.63668 128.491 8.06007 128.76 7.40484C129.035 6.7496 129.166 6.06161 129.166 5.35395C129.166 4.6463 129.035 3.96486 128.76 3.30963C128.491 2.64784 128.105 2.07123 127.6 1.57326C127.096 1.06873 126.52 0.682137 125.864 0.40694C125.209 0.138295 124.528 0.000695026 123.814 0.000694995Z" fill="white"/>
<path d="M104.07 156.453C103.363 156.453 102.681 156.591 102.026 156.859C101.371 157.134 100.788 157.521 100.29 158.019C99.7859 158.523 99.3994 159.1 99.1308 159.755C98.8557 160.411 98.7181 161.099 98.7181 161.806C98.7181 162.514 98.8557 163.195 99.1308 163.857C99.3994 164.512 99.7859 165.089 100.29 165.593C100.788 166.091 101.371 166.478 102.026 166.753C102.681 167.022 103.363 167.159 104.07 167.159C104.784 167.159 105.465 167.022 106.12 166.753C106.775 166.478 107.352 166.091 107.856 165.593C108.354 165.089 108.741 164.512 109.016 163.857C109.284 163.195 109.422 162.514 109.422 161.806C109.422 161.099 109.284 160.411 109.016 159.755C108.741 159.1 108.354 158.523 107.856 158.019C107.352 157.521 106.775 157.134 106.12 156.859C105.465 156.591 104.784 156.453 104.07 156.453Z" fill="white"/>
<path d="M104.07 134.102C103.363 134.102 102.681 134.239 102.026 134.508C101.371 134.783 100.788 135.17 100.29 135.668C99.7859 136.172 99.3994 136.749 99.1308 137.404C98.8557 138.066 98.7181 138.747 98.7181 139.455C98.7181 140.163 98.8557 140.851 99.1308 141.506C99.3994 142.161 99.7859 142.738 100.29 143.242C100.788 143.74 101.371 144.127 102.026 144.402C102.681 144.671 103.363 144.808 104.07 144.808C104.784 144.808 105.465 144.671 106.12 144.402C106.775 144.127 107.352 143.74 107.856 143.242C108.354 142.738 108.741 142.161 109.016 141.506C109.284 140.851 109.422 140.163 109.422 139.455C109.422 138.747 109.284 138.066 109.016 137.404C108.741 136.749 108.354 136.172 107.856 135.668C107.352 135.17 106.775 134.783 106.12 134.508C105.465 134.239 104.784 134.102 104.07 134.102Z" fill="white"/>
<path d="M104.07 111.752C103.363 111.752 102.681 111.89 102.026 112.158C101.371 112.434 100.788 112.82 100.29 113.325C99.7859 113.823 99.3994 114.399 99.1308 115.061C98.8557 115.716 98.7181 116.398 98.7181 117.105C98.7181 117.813 98.8557 118.501 99.1308 119.156C99.3994 119.812 99.7859 120.388 100.29 120.893C100.788 121.391 101.371 121.777 102.026 122.052C102.681 122.321 103.363 122.459 104.07 122.459C104.784 122.459 105.465 122.321 106.12 122.052C106.775 121.777 107.352 121.391 107.856 120.893C108.354 120.388 108.741 119.812 109.016 119.156C109.284 118.501 109.422 117.813 109.422 117.105C109.422 116.398 109.284 115.716 109.016 115.061C108.741 114.399 108.354 113.823 107.856 113.325C107.352 112.82 106.775 112.434 106.12 112.158C105.465 111.89 104.784 111.752 104.07 111.752Z" fill="white"/>
<path d="M104.07 89.4013C103.363 89.4013 102.681 89.5389 102.026 89.8075C101.371 90.0827 100.788 90.4693 100.29 90.9673C99.7859 91.4718 99.3994 92.0484 99.1308 92.7036C98.8557 93.3654 98.7181 94.0469 98.7181 94.7545C98.7181 95.4622 98.8557 96.1502 99.1308 96.8054C99.3994 97.4606 99.7859 98.0372 100.29 98.5418C100.788 99.0398 101.371 99.4263 102.026 99.7015C102.681 99.9702 103.363 100.108 104.07 100.108C104.784 100.108 105.465 99.9702 106.12 99.7015C106.775 99.4263 107.352 99.0398 107.856 98.5418C108.354 98.0372 108.741 97.4606 109.016 96.8054C109.284 96.1502 109.422 95.4622 109.422 94.7545C109.422 94.0469 109.284 93.3654 109.016 92.7036C108.741 92.0484 108.354 91.4718 107.856 90.9673C107.352 90.4693 106.775 90.0827 106.12 89.8075C105.465 89.5389 104.784 89.4013 104.07 89.4013Z" fill="white"/>
<path d="M104.07 67.0516C103.363 67.0516 102.681 67.1892 102.026 67.4578C101.371 67.733 100.788 68.1196 100.29 68.6242C99.7859 69.1221 99.3994 69.6987 99.1308 70.354C98.8557 71.0158 98.7181 71.6972 98.7181 72.4049C98.7181 73.1125 98.8557 73.8005 99.1308 74.4557C99.3994 75.111 99.7859 75.6876 100.29 76.1921C100.788 76.6901 101.371 77.0767 102.026 77.3519C102.681 77.6205 103.363 77.7581 104.07 77.7581C104.784 77.7581 105.465 77.6205 106.12 77.3519C106.775 77.0767 107.352 76.6901 107.856 76.1921C108.354 75.6876 108.741 75.111 109.016 74.4557C109.284 73.8005 109.422 73.1125 109.422 72.4049C109.422 71.6972 109.284 71.0158 109.016 70.354C108.741 69.6987 108.354 69.1221 107.856 68.6242C107.352 68.1196 106.775 67.733 106.12 67.4578C105.465 67.1892 104.784 67.0516 104.07 67.0516Z" fill="white"/>
<path d="M104.07 44.7006C103.363 44.7006 102.681 44.8382 102.026 45.1134C101.371 45.3821 100.788 45.7687 100.29 46.2732C99.7859 46.7712 99.3994 47.3478 99.1308 48.0096C98.8557 48.6648 98.7181 49.3463 98.7181 50.0539C98.7181 50.7616 98.8557 51.4496 99.1308 52.1048C99.3994 52.76 99.7859 53.3366 100.29 53.8412C100.788 54.3391 101.371 54.7257 102.026 55.0009C102.681 55.2696 103.363 55.4072 104.07 55.4072C104.784 55.4072 105.465 55.2696 106.12 55.0009C106.775 54.7257 107.352 54.3391 107.856 53.8412C108.354 53.3366 108.741 52.76 109.016 52.1048C109.284 51.4496 109.422 50.7616 109.422 50.0539C109.422 49.3463 109.284 48.6648 109.016 48.0096C108.741 47.3478 108.354 46.7712 107.856 46.2732C107.352 45.7687 106.775 45.3821 106.12 45.1134C105.465 44.8382 104.784 44.7006 104.07 44.7006Z" fill="white"/>
<path d="M104.07 22.351C103.363 22.351 102.681 22.4886 102.026 22.7572C101.371 23.0324 100.788 23.419 100.29 23.917C99.7859 24.4215 99.3994 24.9981 99.1308 25.6534C98.8557 26.3151 98.7181 26.9966 98.7181 27.7042C98.7181 28.4119 98.8557 29.0999 99.1308 29.7551C99.3994 30.4103 99.7859 30.987 100.29 31.4915C100.788 31.9895 101.371 32.3761 102.026 32.6512C102.681 32.9199 103.363 33.0575 104.07 33.0575C104.784 33.0575 105.465 32.9199 106.12 32.6513C106.775 32.3761 107.352 31.9895 107.856 31.4915C108.354 30.987 108.741 30.4103 109.016 29.7551C109.284 29.0999 109.422 28.4119 109.422 27.7042C109.422 26.9966 109.284 26.3151 109.016 25.6534C108.741 24.9981 108.354 24.4215 107.856 23.917C107.352 23.419 106.775 23.0324 106.12 22.7572C105.465 22.4886 104.784 22.351 104.07 22.351Z" fill="white"/>
<path d="M104.07 2.36079e-05C103.363 2.3577e-05 102.681 0.137623 102.026 0.406269C101.371 0.681466 100.788 1.06805 100.29 1.57258C99.7859 2.07056 99.3994 2.64717 99.1308 3.30895C98.8557 3.96419 98.7181 4.64563 98.7181 5.35328C98.7181 6.06094 98.8557 6.74893 99.1308 7.40416C99.3994 8.0594 99.7859 8.636 100.29 9.14053C100.788 9.63851 101.371 10.0251 102.026 10.3003C102.681 10.5689 103.363 10.7065 104.07 10.7065C104.784 10.7065 105.465 10.5689 106.12 10.3003C106.775 10.0251 107.352 9.63851 107.856 9.14053C108.354 8.636 108.741 8.0594 109.016 7.40417C109.284 6.74893 109.422 6.06094 109.422 5.35328C109.422 4.64563 109.284 3.96419 109.016 3.30895C108.741 2.64717 108.354 2.07056 107.856 1.57259C107.352 1.06806 106.775 0.681466 106.12 0.406269C105.465 0.137624 104.784 2.36391e-05 104.07 2.36079e-05Z" fill="white"/>
<path d="M84.3268 156.453C83.6194 156.453 82.9381 156.591 82.283 156.859C81.628 157.134 81.045 157.521 80.5471 158.019C80.0427 158.524 79.6562 159.1 79.3877 159.755C79.1125 160.411 78.975 161.099 78.975 161.806C78.975 162.514 79.1125 163.195 79.3877 163.857C79.6562 164.512 80.0427 165.089 80.5471 165.593C81.045 166.091 81.628 166.478 82.283 166.753C82.9381 167.022 83.6194 167.159 84.3268 167.159C85.0409 167.159 85.7221 167.022 86.3772 166.753C87.0323 166.478 87.6087 166.091 88.1131 165.593C88.611 165.089 88.9974 164.512 89.2726 163.857C89.5411 163.195 89.6787 162.514 89.6787 161.806C89.6787 161.099 89.5411 160.411 89.2726 159.755C88.9974 159.1 88.611 158.524 88.1131 158.019C87.6087 157.521 87.0323 157.134 86.3772 156.859C85.7221 156.591 85.0409 156.453 84.3268 156.453Z" fill="white"/>
<path d="M84.3268 134.102C83.6194 134.102 82.9381 134.24 82.283 134.508C81.628 134.783 81.045 135.17 80.5471 135.668C80.0427 136.173 79.6562 136.749 79.3877 137.404C79.1125 138.066 78.975 138.748 78.975 139.455C78.975 140.163 79.1125 140.851 79.3877 141.506C79.6562 142.161 80.0427 142.738 80.5471 143.243C81.045 143.74 81.628 144.127 82.283 144.402C82.9381 144.671 83.6194 144.809 84.3268 144.809C85.0409 144.809 85.7221 144.671 86.3772 144.402C87.0323 144.127 87.6087 143.741 88.1131 143.243C88.611 142.738 88.9974 142.161 89.2726 141.506C89.5411 140.851 89.6787 140.163 89.6787 139.455C89.6787 138.748 89.5411 138.066 89.2726 137.404C88.9974 136.749 88.611 136.173 88.1131 135.668C87.6087 135.17 87.0323 134.783 86.3772 134.508C85.7221 134.24 85.0409 134.102 84.3268 134.102Z" fill="white"/>
<path d="M84.3268 111.752C83.6194 111.752 82.9381 111.89 82.283 112.159C81.628 112.434 81.045 112.82 80.5471 113.325C80.0427 113.823 79.6562 114.4 79.3877 115.061C79.1125 115.717 78.975 116.398 78.975 117.106C78.975 117.813 79.1125 118.501 79.3877 119.157C79.6562 119.812 80.0427 120.388 80.5471 120.893C81.045 121.391 81.628 121.777 82.283 122.053C82.9381 122.321 83.6194 122.459 84.3268 122.459C85.0409 122.459 85.7221 122.321 86.3772 122.053C87.0323 121.777 87.6087 121.391 88.1131 120.893C88.611 120.388 88.9974 119.812 89.2726 119.157C89.5411 118.501 89.6787 117.813 89.6787 117.106C89.6787 116.398 89.5411 115.717 89.2726 115.061C88.9974 114.4 88.611 113.823 88.1131 113.325C87.6087 112.82 87.0323 112.434 86.3772 112.159C85.7221 111.89 85.0409 111.752 84.3268 111.752Z" fill="white"/>
<path d="M84.3268 89.4014C83.6194 89.4014 82.9381 89.539 82.283 89.8076C81.628 90.0828 81.045 90.4694 80.5471 90.9674C80.0427 91.4719 79.6562 92.0485 79.3877 92.7038C79.1125 93.3656 78.975 94.047 78.975 94.7547C78.975 95.4623 79.1125 96.1503 79.3877 96.8055C79.6562 97.4608 80.0427 98.0374 80.5471 98.5419C81.045 99.0399 81.628 99.4265 82.283 99.7017C82.9381 99.9703 83.6194 100.108 84.3268 100.108C85.0409 100.108 85.7221 99.9703 86.3772 99.7017C87.0323 99.4265 87.6087 99.0399 88.1131 98.5419C88.611 98.0374 88.9974 97.4608 89.2726 96.8055C89.5411 96.1503 89.6787 95.4623 89.6787 94.7547C89.6787 94.047 89.5411 93.3656 89.2726 92.7038C88.9974 92.0485 88.611 91.4719 88.1131 90.9674C87.6087 90.4694 87.0323 90.0828 86.3772 89.8076C85.7221 89.539 85.0409 89.4014 84.3268 89.4014Z" fill="white"/>
<path d="M84.3268 67.0518C83.6194 67.0518 82.9381 67.1894 82.283 67.458C81.628 67.7332 81.045 68.1198 80.5471 68.6243C80.0427 69.1223 79.6562 69.6989 79.3877 70.3542C79.1125 71.0159 78.975 71.6974 78.975 72.405C78.975 73.1127 79.1125 73.8007 79.3877 74.4559C79.6562 75.1112 80.0427 75.6878 80.5471 76.1923C81.045 76.6903 81.628 77.0769 82.283 77.3521C82.9381 77.6207 83.6194 77.7583 84.3268 77.7583C85.0409 77.7583 85.7221 77.6207 86.3772 77.3521C87.0323 77.0769 87.6087 76.6903 88.1131 76.1923C88.611 75.6878 88.9974 75.1112 89.2726 74.4559C89.5411 73.8007 89.6787 73.1127 89.6787 72.405C89.6787 71.6974 89.5411 71.0159 89.2726 70.3542C88.9974 69.6989 88.611 69.1223 88.1131 68.6243C87.6087 68.1198 87.0323 67.7332 86.3772 67.458C85.7221 67.1894 85.0409 67.0518 84.3268 67.0518Z" fill="white"/>
<path d="M84.3268 44.7008C83.6194 44.7008 82.9381 44.8384 82.283 45.1136C81.628 45.3822 81.045 45.7688 80.5471 46.2733C80.0427 46.7713 79.6562 47.3479 79.3877 48.0097C79.1125 48.6649 78.975 49.3464 78.975 50.054C78.975 50.7617 79.1125 51.4497 79.3877 52.1049C79.6562 52.7601 80.0427 53.3367 80.5471 53.8413C81.045 54.3393 81.628 54.7258 82.283 55.001C82.9381 55.2697 83.6194 55.4073 84.3268 55.4073C85.0409 55.4073 85.7221 55.2697 86.3772 55.001C87.0323 54.7258 87.6087 54.3393 88.1131 53.8413C88.611 53.3367 88.9974 52.7601 89.2726 52.1049C89.5411 51.4497 89.6787 50.7617 89.6787 50.054C89.6787 49.3464 89.5411 48.6649 89.2726 48.0097C88.9974 47.3479 88.611 46.7713 88.1131 46.2733C87.6087 45.7688 87.0323 45.3822 86.3772 45.1136C85.7221 44.8384 85.0409 44.7008 84.3268 44.7008Z" fill="white"/>
<path d="M84.3268 22.3511C83.6194 22.3511 82.9381 22.4887 82.283 22.7573C81.628 23.0325 81.045 23.4191 80.5471 23.9171C80.0427 24.4216 79.6562 24.9982 79.3877 25.6535C79.1125 26.3153 78.975 26.9967 78.975 27.7044C78.975 28.412 79.1125 29.1 79.3877 29.7552C79.6562 30.4105 80.0427 30.9871 80.5471 31.4916C81.045 31.9896 81.628 32.3762 82.283 32.6514C82.9381 32.92 83.6194 33.0576 84.3268 33.0576C85.0409 33.0576 85.7221 32.92 86.3772 32.6514C87.0323 32.3762 87.6087 31.9896 88.1131 31.4916C88.611 30.9871 88.9974 30.4105 89.2726 29.7552C89.5411 29.1 89.6787 28.412 89.6787 27.7044C89.6787 26.9967 89.5411 26.3153 89.2726 25.6535C88.9974 24.9982 88.611 24.4216 88.1131 23.9171C87.6087 23.4191 87.0323 23.0325 86.3772 22.7573C85.7221 22.4887 85.0409 22.3511 84.3268 22.3511Z" fill="white"/>
<path d="M84.3268 8.46431e-05C83.6194 8.46122e-05 82.9381 0.137685 82.283 0.40633C81.628 0.681527 81.045 1.06812 80.5471 1.57265C80.0427 2.07062 79.6562 2.64723 79.3877 3.30901C79.1125 3.96425 78.975 4.64569 78.975 5.35334C78.975 6.061 79.1125 6.74899 79.3877 7.40423C79.6562 8.05946 80.0427 8.63607 80.5471 9.1406C81.045 9.63857 81.628 10.0252 82.283 10.3004C82.9381 10.569 83.6194 10.7066 84.3268 10.7066C85.0409 10.7066 85.7221 10.569 86.3772 10.3004C87.0323 10.0252 87.6087 9.63857 88.1131 9.1406C88.611 8.63607 88.9974 8.05946 89.2726 7.40423C89.5411 6.74899 89.6787 6.061 89.6787 5.35334C89.6787 4.64569 89.5411 3.96425 89.2726 3.30902C88.9974 2.64723 88.611 2.07062 88.1131 1.57265C87.6087 1.06812 87.0323 0.681527 86.3772 0.40633C85.7221 0.137685 85.0409 8.46743e-05 84.3268 8.46431e-05Z" fill="white"/>
<path d="M64.5837 156.453C63.8762 156.453 63.1949 156.591 62.5333 156.859C61.8783 157.135 61.3018 157.521 60.804 158.019C60.2996 158.524 59.9131 159.1 59.6379 159.755C59.3694 160.411 59.2318 161.099 59.2318 161.806C59.2318 162.514 59.3694 163.195 59.6379 163.857C59.9131 164.512 60.2996 165.089 60.804 165.594C61.3018 166.092 61.8783 166.478 62.5333 166.753C63.1949 167.022 63.8762 167.16 64.5837 167.16C65.2911 167.16 65.979 167.022 66.634 166.753C67.2891 166.478 67.8655 166.092 68.3699 165.594C68.8678 165.089 69.2543 164.512 69.5294 163.857C69.798 163.195 69.9355 162.514 69.9355 161.806C69.9355 161.099 69.798 160.411 69.5294 159.755C69.2543 159.1 68.8678 158.524 68.3699 158.019C67.8655 157.521 67.2891 157.135 66.634 156.859C65.979 156.591 65.2911 156.453 64.5837 156.453Z" fill="white"/>
<path d="M64.5827 134.102C63.8752 134.102 63.194 134.24 62.5324 134.508C61.8773 134.784 61.3008 135.17 60.803 135.668C60.2986 136.173 59.9121 136.749 59.637 137.404C59.3684 138.066 59.2308 138.748 59.2308 139.455C59.2308 140.163 59.3684 140.851 59.637 141.506C59.9121 142.161 60.2986 142.738 60.803 143.243C61.3008 143.741 61.8773 144.127 62.5324 144.402C63.194 144.671 63.8752 144.809 64.5827 144.809C65.2902 144.809 65.978 144.671 66.633 144.402C67.2881 144.127 67.8646 143.741 68.369 143.243C68.8668 142.738 69.2533 142.161 69.5284 141.506C69.797 140.851 69.9346 140.163 69.9346 139.455C69.9346 138.748 69.797 138.066 69.5284 137.404C69.2533 136.749 68.8668 136.173 68.369 135.668C67.8646 135.17 67.2881 134.784 66.633 134.508C65.978 134.24 65.2902 134.102 64.5827 134.102Z" fill="white"/>
<path d="M64.5837 111.752C63.8762 111.752 63.1949 111.89 62.5333 112.159C61.8783 112.434 61.3018 112.82 60.804 113.325C60.2996 113.823 59.9131 114.4 59.6379 115.061C59.3694 115.717 59.2318 116.398 59.2318 117.106C59.2318 117.813 59.3694 118.501 59.6379 119.157C59.9131 119.812 60.2996 120.388 60.804 120.893C61.3018 121.391 61.8783 121.777 62.5333 122.053C63.1949 122.321 63.8762 122.459 64.5837 122.459C65.2911 122.459 65.979 122.321 66.634 122.053C67.2891 121.777 67.8655 121.391 68.3699 120.893C68.8678 120.388 69.2543 119.812 69.5294 119.157C69.798 118.501 69.9355 117.813 69.9355 117.106C69.9355 116.398 69.798 115.717 69.5294 115.061C69.2543 114.4 68.8678 113.823 68.3699 113.325C67.8655 112.82 67.2891 112.434 66.634 112.159C65.979 111.89 65.2911 111.752 64.5837 111.752Z" fill="white"/>
<path d="M64.5827 89.4015C63.8752 89.4015 63.194 89.539 62.5324 89.8077C61.8773 90.0829 61.3008 90.4695 60.803 90.9675C60.2986 91.472 59.9121 92.0486 59.637 92.7038C59.3684 93.3656 59.2308 94.0471 59.2308 94.7547C59.2308 95.4624 59.3684 96.1504 59.637 96.8056C59.9121 97.4608 60.2986 98.0374 60.803 98.542C61.3008 99.0399 61.8773 99.4265 62.5324 99.7017C63.194 99.9704 63.8752 100.108 64.5827 100.108C65.2902 100.108 65.978 99.9704 66.633 99.7017C67.2881 99.4265 67.8646 99.0399 68.369 98.542C68.8668 98.0374 69.2533 97.4608 69.5284 96.8056C69.797 96.1504 69.9346 95.4624 69.9346 94.7547C69.9346 94.0471 69.797 93.3656 69.5284 92.7038C69.2533 92.0486 68.8668 91.472 68.369 90.9675C67.8646 90.4695 67.2881 90.0829 66.633 89.8077C65.978 89.539 65.2902 89.4015 64.5827 89.4015Z" fill="white"/>
<path d="M64.5827 67.0518C63.8752 67.0518 63.194 67.1894 62.5324 67.458C61.8773 67.7332 61.3008 68.1198 60.803 68.6243C60.2986 69.1223 59.9121 69.6989 59.637 70.3542C59.3684 71.0159 59.2308 71.6974 59.2308 72.405C59.2308 73.1127 59.3684 73.8007 59.637 74.4559C59.9121 75.1112 60.2986 75.6878 60.803 76.1923C61.3008 76.6903 61.8773 77.0769 62.5324 77.3521C63.194 77.6207 63.8752 77.7583 64.5827 77.7583C65.2902 77.7583 65.978 77.6207 66.633 77.3521C67.2881 77.0769 67.8646 76.6903 68.369 76.1923C68.8668 75.6878 69.2533 75.1112 69.5284 74.4559C69.797 73.8007 69.9346 73.1127 69.9346 72.405C69.9346 71.6974 69.797 71.0159 69.5284 70.3542C69.2533 69.6989 68.8668 69.1223 68.369 68.6243C67.8646 68.1198 67.2881 67.7332 66.633 67.458C65.978 67.1894 65.2902 67.0518 64.5827 67.0518Z" fill="white"/>
<path d="M64.5827 44.7008C63.8752 44.7008 63.194 44.8384 62.5324 45.1136C61.8773 45.3823 61.3008 45.7689 60.803 46.2734C60.2986 46.7714 59.9121 47.348 59.637 48.0098C59.3684 48.665 59.2308 49.3464 59.2308 50.0541C59.2308 50.7617 59.3684 51.4497 59.637 52.105C59.9121 52.7602 60.2986 53.3368 60.803 53.8413C61.3008 54.3393 61.8773 54.7259 62.5324 55.0011C63.194 55.2697 63.8752 55.4073 64.5827 55.4073C65.2902 55.4073 65.978 55.2697 66.633 55.0011C67.2881 54.7259 67.8646 54.3393 68.369 53.8413C68.8668 53.3368 69.2533 52.7602 69.5284 52.105C69.797 51.4497 69.9346 50.7617 69.9346 50.0541C69.9346 49.3464 69.797 48.665 69.5284 48.0098C69.2533 47.348 68.8668 46.7714 68.369 46.2734C67.8646 45.7689 67.2881 45.3823 66.633 45.1136C65.978 44.8384 65.2902 44.7008 64.5827 44.7008Z" fill="white"/>
<path d="M64.5827 22.3512C63.8752 22.3512 63.194 22.4888 62.5324 22.7574C61.8773 23.0326 61.3008 23.4192 60.803 23.9172C60.2986 24.4217 59.9121 24.9983 59.637 25.6535C59.3684 26.3153 59.2308 26.9968 59.2308 27.7044C59.2308 28.4121 59.3684 29.1001 59.637 29.7553C59.9121 30.4105 60.2986 30.9871 60.803 31.4917C61.3008 31.9896 61.8773 32.3762 62.5324 32.6514C63.194 32.9201 63.8752 33.0577 64.5827 33.0577C65.2902 33.0577 65.978 32.9201 66.633 32.6514C67.2881 32.3762 67.8646 31.9896 68.369 31.4917C68.8668 30.9871 69.2533 30.4105 69.5284 29.7553C69.797 29.1001 69.9346 28.4121 69.9346 27.7044C69.9346 26.9968 69.797 26.3153 69.5284 25.6535C69.2533 24.9983 68.8668 24.4217 68.369 23.9172C67.8646 23.4192 67.2881 23.0326 66.633 22.7574C65.978 22.4888 65.2902 22.3512 64.5827 22.3512Z" fill="white"/>
<path d="M64.5827 0.000206713C63.8752 0.000206682 63.194 0.137807 62.5324 0.406452C61.8773 0.681649 61.3008 1.06824 60.803 1.57277C60.2986 2.07075 59.9121 2.64735 59.637 3.30914C59.3684 3.96437 59.2308 4.64582 59.2308 5.35347C59.2308 6.06112 59.3684 6.74911 59.637 7.40435C59.9121 8.05958 60.2986 8.63619 60.803 9.14072C61.3008 9.63869 61.8773 10.0253 62.5324 10.3005C63.194 10.5691 63.8752 10.7067 64.5827 10.7067C65.2902 10.7067 65.978 10.5691 66.633 10.3005C67.2881 10.0253 67.8646 9.6387 68.369 9.14072C68.8668 8.63619 69.2533 8.05958 69.5284 7.40435C69.797 6.74911 69.9346 6.06112 69.9346 5.35347C69.9346 4.64582 69.797 3.96437 69.5284 3.30914C69.2533 2.64735 68.8668 2.07075 68.369 1.57277C67.8646 1.06824 67.2881 0.681649 66.633 0.406452C65.978 0.137807 65.2902 0.000206744 64.5827 0.000206713Z" fill="white"/>
<path d="M44.8395 156.453C44.1321 156.453 43.4508 156.591 42.7892 156.859C42.1341 157.135 41.5577 157.521 41.0533 158.019C40.5554 158.524 40.1689 159.1 39.8938 159.756C39.6252 160.411 39.4877 161.099 39.4877 161.806C39.4877 162.514 39.6252 163.196 39.8938 163.857C40.1689 164.513 40.5554 165.089 41.0533 165.594C41.5577 166.092 42.1341 166.478 42.7892 166.753C43.4508 167.022 44.1321 167.16 44.8395 167.16C45.547 167.16 46.2348 167.022 46.8899 166.753C47.5449 166.478 48.1214 166.092 48.6258 165.594C49.1237 165.089 49.5101 164.513 49.7853 163.857C50.0538 163.196 50.1914 162.514 50.1914 161.806C50.1914 161.099 50.0538 160.411 49.7853 159.756C49.5101 159.1 49.1237 158.524 48.6258 158.019C48.1214 157.521 47.5449 157.135 46.8899 156.859C46.2348 156.591 45.547 156.453 44.8395 156.453Z" fill="white"/>
<path d="M44.8395 134.102C44.1321 134.102 43.4508 134.24 42.7892 134.508C42.1341 134.784 41.5577 135.17 41.0533 135.668C40.5554 136.173 40.1689 136.749 39.8938 137.405C39.6252 138.066 39.4877 138.748 39.4877 139.455C39.4877 140.163 39.6252 140.851 39.8938 141.506C40.1689 142.162 40.5554 142.738 41.0533 143.243C41.5577 143.741 42.1341 144.127 42.7892 144.402C43.4508 144.671 44.1321 144.809 44.8395 144.809C45.547 144.809 46.2348 144.671 46.8899 144.402C47.5449 144.127 48.1214 143.741 48.6258 143.243C49.1237 142.738 49.5101 142.162 49.7853 141.506C50.0538 140.851 50.1914 140.163 50.1914 139.455C50.1914 138.748 50.0538 138.066 49.7853 137.405C49.5101 136.749 49.1237 136.173 48.6258 135.668C48.1214 135.17 47.5449 134.784 46.8899 134.508C46.2348 134.24 45.547 134.102 44.8395 134.102Z" fill="white"/>
<path d="M44.8395 111.753C44.1321 111.753 43.4508 111.89 42.7892 112.159C42.1341 112.434 41.5577 112.821 41.0533 113.325C40.5554 113.823 40.1689 114.4 39.8938 115.061C39.6252 115.717 39.4877 116.398 39.4877 117.106C39.4877 117.813 39.6252 118.501 39.8938 119.157C40.1689 119.812 40.5554 120.389 41.0533 120.893C41.5577 121.391 42.1341 121.778 42.7892 122.053C43.4508 122.321 44.1321 122.459 44.8395 122.459C45.547 122.459 46.2348 122.321 46.8899 122.053C47.5449 121.778 48.1214 121.391 48.6258 120.893C49.1237 120.389 49.5101 119.812 49.7853 119.157C50.0538 118.501 50.1914 117.813 50.1914 117.106C50.1914 116.398 50.0538 115.717 49.7853 115.061C49.5101 114.4 49.1237 113.823 48.6258 113.325C48.1214 112.821 47.5449 112.434 46.8899 112.159C46.2348 111.89 45.547 111.753 44.8395 111.753Z" fill="white"/>
<path d="M44.8395 89.4015C44.1321 89.4015 43.4508 89.5391 42.7892 89.8078C42.1341 90.083 41.5577 90.4695 41.0533 90.9675C40.5554 91.4721 40.1689 92.0487 39.8938 92.7039C39.6252 93.3657 39.4877 94.0471 39.4877 94.7548C39.4877 95.4624 39.6252 96.1504 39.8938 96.8057C40.1689 97.4609 40.5554 98.0375 41.0533 98.542C41.5577 99.04 42.1341 99.4266 42.7892 99.7018C43.4508 99.9704 44.1321 100.108 44.8395 100.108C45.547 100.108 46.2348 99.9704 46.8899 99.7018C47.5449 99.4266 48.1214 99.04 48.6258 98.542C49.1237 98.0375 49.5101 97.4609 49.7853 96.8057C50.0538 96.1504 50.1914 95.4624 50.1914 94.7548C50.1914 94.0471 50.0538 93.3657 49.7853 92.7039C49.5101 92.0487 49.1237 91.4721 48.6258 90.9675C48.1214 90.4695 47.5449 90.083 46.8899 89.8078C46.2348 89.5391 45.547 89.4015 44.8395 89.4015Z" fill="white"/>
<path d="M44.8395 67.0519C44.1321 67.0519 43.4508 67.1895 42.7892 67.4581C42.1341 67.7333 41.5577 68.1199 41.0533 68.6245C40.5554 69.1224 40.1689 69.699 39.8938 70.3543C39.6252 71.0161 39.4877 71.6975 39.4877 72.4052C39.4877 73.1128 39.6252 73.8008 39.8938 74.456C40.1689 75.1113 40.5554 75.6879 41.0533 76.1924C41.5577 76.6904 42.1341 77.077 42.7892 77.3522C43.4508 77.6208 44.1321 77.7584 44.8395 77.7584C45.547 77.7584 46.2348 77.6208 46.8899 77.3522C47.5449 77.077 48.1214 76.6904 48.6258 76.1924C49.1237 75.6879 49.5101 75.1113 49.7853 74.456C50.0538 73.8008 50.1914 73.1128 50.1914 72.4052C50.1914 71.6975 50.0538 71.0161 49.7853 70.3543C49.5101 69.699 49.1237 69.1224 48.6258 68.6245C48.1214 68.1199 47.5449 67.7333 46.8899 67.4581C46.2348 67.1895 45.547 67.0519 44.8395 67.0519Z" fill="white"/>
<path d="M44.8395 44.7009C44.1321 44.7009 43.4508 44.8385 42.7892 45.1137C42.1341 45.3823 41.5577 45.7689 41.0533 46.2735C40.5554 46.7714 40.1689 47.348 39.8938 48.0098C39.6252 48.6651 39.4877 49.3465 39.4877 50.0541C39.4877 50.7618 39.6252 51.4498 39.8938 52.105C40.1689 52.7603 40.5554 53.3369 41.0533 53.8414C41.5577 54.3394 42.1341 54.726 42.7892 55.0012C43.4508 55.2698 44.1321 55.4074 44.8395 55.4074C45.547 55.4074 46.2348 55.2698 46.8899 55.0012C47.5449 54.726 48.1214 54.3394 48.6258 53.8414C49.1237 53.3369 49.5101 52.7603 49.7853 52.105C50.0538 51.4498 50.1914 50.7618 50.1914 50.0542C50.1914 49.3465 50.0538 48.6651 49.7853 48.0098C49.5101 47.348 49.1237 46.7714 48.6258 46.2735C48.1214 45.7689 47.5449 45.3823 46.8899 45.1137C46.2348 44.8385 45.547 44.7009 44.8395 44.7009Z" fill="white"/>
<path d="M44.8395 22.3513C44.1321 22.3513 43.4508 22.4889 42.7892 22.7575C42.1341 23.0327 41.5577 23.4193 41.0533 23.9173C40.5554 24.4218 40.1689 24.9984 39.8938 25.6537C39.6252 26.3154 39.4877 26.9969 39.4877 27.7045C39.4877 28.4122 39.6252 29.1002 39.8938 29.7554C40.1689 30.4107 40.5554 30.9873 41.0533 31.4918C41.5577 31.9898 42.1341 32.3764 42.7892 32.6516C43.4508 32.9202 44.1321 33.0578 44.8395 33.0578C45.547 33.0578 46.2348 32.9202 46.8899 32.6516C47.5449 32.3764 48.1214 31.9898 48.6258 31.4918C49.1237 30.9873 49.5101 30.4107 49.7853 29.7554C50.0538 29.1002 50.1914 28.4122 50.1914 27.7045C50.1914 26.9969 50.0538 26.3154 49.7853 25.6537C49.5101 24.9984 49.1237 24.4218 48.6258 23.9173C48.1214 23.4193 47.5449 23.0327 46.8899 22.7575C46.2348 22.4889 45.547 22.3513 44.8395 22.3513Z" fill="white"/>
<path d="M44.8395 0.000267749C44.1321 0.000267718 43.4508 0.137868 42.7892 0.406513C42.1341 0.68171 41.5577 1.0683 41.0533 1.57283C40.5554 2.07081 40.1689 2.64741 39.8938 3.3092C39.6252 3.96443 39.4877 4.64588 39.4877 5.35353C39.4877 6.06118 39.6252 6.74918 39.8938 7.40441C40.1689 8.05964 40.5554 8.63625 41.0533 9.14078C41.5577 9.63876 42.1341 10.0253 42.7892 10.3005C43.4508 10.5692 44.1321 10.7068 44.8395 10.7068C45.547 10.7068 46.2348 10.5692 46.8899 10.3005C47.5449 10.0253 48.1214 9.63876 48.6258 9.14078C49.1237 8.63625 49.5101 8.05964 49.7853 7.40441C50.0538 6.74918 50.1914 6.06118 50.1914 5.35353C50.1914 4.64588 50.0538 3.96443 49.7853 3.3092C49.5101 2.64741 49.1237 2.07081 48.6258 1.57283C48.1214 1.0683 47.5449 0.68171 46.8899 0.406513C46.2348 0.137868 45.547 0.000267779 44.8395 0.000267749Z" fill="white"/>
<path d="M25.0954 156.452C24.3879 156.452 23.7001 156.59 23.045 156.859C22.39 157.134 21.8135 157.521 21.3091 158.018C20.8113 158.523 20.4248 159.1 20.1497 159.755C19.8811 160.41 19.7435 161.098 19.7435 161.806C19.7435 162.513 19.8811 163.195 20.1497 163.857C20.4248 164.512 20.8113 165.088 21.3091 165.593C21.8135 166.091 22.39 166.478 23.045 166.753C23.7001 167.021 24.3879 167.159 25.0954 167.159C25.8029 167.159 26.4841 167.021 27.1392 166.753C27.7943 166.478 28.3773 166.091 28.8751 165.593C29.3795 165.088 29.766 164.512 30.0346 163.857C30.3097 163.195 30.4473 162.513 30.4473 161.806C30.4473 161.098 30.3097 160.41 30.0346 159.755C29.766 159.1 29.3795 158.523 28.8751 158.018C28.3773 157.521 27.7943 157.134 27.1392 156.859C26.4841 156.59 25.8029 156.452 25.0954 156.452Z" fill="white"/>
<path d="M25.0964 134.102C24.3889 134.102 23.7011 134.24 23.046 134.509C22.391 134.784 21.8145 135.17 21.3101 135.668C20.8123 136.173 20.4258 136.749 20.1506 137.405C19.8821 138.066 19.7445 138.748 19.7445 139.456C19.7445 140.163 19.8821 140.851 20.1506 141.506C20.4258 142.162 20.8123 142.738 21.3101 143.243C21.8145 143.741 22.391 144.127 23.046 144.403C23.7011 144.671 24.3889 144.809 25.0964 144.809C25.8038 144.809 26.4851 144.671 27.1402 144.403C27.7952 144.127 28.3782 143.741 28.8761 143.243C29.3805 142.738 29.767 142.162 30.0356 141.506C30.3107 140.851 30.4482 140.163 30.4482 139.456C30.4482 138.748 30.3107 138.066 30.0356 137.405C29.767 136.749 29.3805 136.173 28.8761 135.668C28.3782 135.17 27.7952 134.784 27.1402 134.509C26.4851 134.24 25.8038 134.102 25.0964 134.102Z" fill="white"/>
<path d="M25.0964 111.753C24.3889 111.753 23.7011 111.89 23.046 112.159C22.391 112.434 21.8145 112.821 21.3101 113.325C20.8123 113.823 20.4258 114.4 20.1506 115.062C19.8821 115.717 19.7445 116.398 19.7445 117.106C19.7445 117.814 19.8821 118.502 20.1506 119.157C20.4258 119.812 20.8123 120.389 21.3101 120.893C21.8145 121.391 22.391 121.778 23.046 122.053C23.7011 122.322 24.3889 122.459 25.0964 122.459C25.8038 122.459 26.4851 122.322 27.1402 122.053C27.7952 121.778 28.3782 121.391 28.8761 120.893C29.3805 120.389 29.767 119.812 30.0356 119.157C30.3107 118.502 30.4482 117.814 30.4482 117.106C30.4482 116.398 30.3107 115.717 30.0356 115.062C29.767 114.4 29.3805 113.823 28.8761 113.325C28.3782 112.821 27.7952 112.434 27.1402 112.159C26.4851 111.89 25.8038 111.753 25.0964 111.753Z" fill="white"/>
<path d="M25.0964 89.4017C24.3889 89.4017 23.7011 89.5393 23.046 89.8079C22.391 90.0831 21.8145 90.4697 21.3101 90.9677C20.8123 91.4722 20.4258 92.0488 20.1506 92.7041C19.8821 93.3659 19.7445 94.0473 19.7445 94.755C19.7445 95.4626 19.8821 96.1506 20.1506 96.8058C20.4258 97.4611 20.8123 98.0377 21.3101 98.5422C21.8145 99.0402 22.391 99.4268 23.046 99.702C23.7011 99.9706 24.3889 100.108 25.0964 100.108C25.8038 100.108 26.4851 99.9706 27.1402 99.702C27.7952 99.4268 28.3782 99.0402 28.8761 98.5422C29.3805 98.0377 29.767 97.4611 30.0356 96.8058C30.3107 96.1506 30.4482 95.4626 30.4482 94.755C30.4482 94.0473 30.3107 93.3659 30.0356 92.7041C29.767 92.0488 29.3805 91.4722 28.8761 90.9677C28.3782 90.4697 27.7952 90.0831 27.1402 89.8079C26.4851 89.5393 25.8038 89.4017 25.0964 89.4017Z" fill="white"/>
<path d="M25.0964 67.052C24.3889 67.052 23.7011 67.1896 23.046 67.4583C22.391 67.7335 21.8145 68.1201 21.3101 68.6246C20.8123 69.1226 20.4258 69.6992 20.1506 70.3544C19.8821 71.0162 19.7445 71.6976 19.7445 72.4053C19.7445 73.1129 19.8821 73.8009 20.1506 74.4562C20.4258 75.1114 20.8123 75.688 21.3101 76.1925C21.8145 76.6905 22.391 77.0771 23.046 77.3523C23.7011 77.6209 24.3889 77.7585 25.0964 77.7585C25.8038 77.7585 26.4851 77.6209 27.1402 77.3523C27.7952 77.0771 28.3782 76.6905 28.8761 76.1925C29.3805 75.688 29.767 75.1114 30.0356 74.4562C30.3107 73.8009 30.4482 73.1129 30.4482 72.4053C30.4482 71.6976 30.3107 71.0162 30.0356 70.3544C29.767 69.6992 29.3805 69.1226 28.8761 68.6246C28.3782 68.1201 27.7952 67.7335 27.1402 67.4583C26.4851 67.1896 25.8038 67.052 25.0964 67.052Z" fill="white"/>
<path d="M25.0964 44.7011C24.3889 44.7011 23.7011 44.8387 23.046 45.1139C22.391 45.3825 21.8145 45.7691 21.3101 46.2736C20.8123 46.7716 20.4258 47.3482 20.1506 48.01C19.8821 48.6652 19.7445 49.3467 19.7445 50.0543C19.7445 50.762 19.8821 51.45 20.1506 52.1052C20.4258 52.7604 20.8123 53.3371 21.3101 53.8416C21.8145 54.3396 22.391 54.7261 23.046 55.0013C23.7011 55.27 24.3889 55.4076 25.0964 55.4076C25.8038 55.4076 26.4851 55.27 27.1402 55.0013C27.7952 54.7261 28.3782 54.3396 28.8761 53.8416C29.3805 53.3371 29.767 52.7604 30.0356 52.1052C30.3107 51.45 30.4482 50.762 30.4482 50.0543C30.4482 49.3467 30.3107 48.6652 30.0356 48.01C29.767 47.3482 29.3805 46.7716 28.8761 46.2736C28.3782 45.7691 27.7952 45.3825 27.1402 45.1139C26.4851 44.8387 25.8038 44.7011 25.0964 44.7011Z" fill="white"/>
<path d="M25.0964 22.3514C24.3889 22.3514 23.7011 22.489 23.046 22.7576C22.391 23.0328 21.8145 23.4194 21.3101 23.9174C20.8123 24.4219 20.4258 24.9985 20.1506 25.6538C19.8821 26.3156 19.7445 26.997 19.7445 27.7047C19.7445 28.4123 19.8821 29.1003 20.1506 29.7555C20.4258 30.4108 20.8123 30.9874 21.3101 31.4919C21.8145 31.9899 22.391 32.3765 23.046 32.6517C23.7011 32.9203 24.3889 33.0579 25.0964 33.0579C25.8038 33.0579 26.4851 32.9203 27.1402 32.6517C27.7952 32.3765 28.3782 31.9899 28.8761 31.4919C29.3805 30.9874 29.767 30.4108 30.0356 29.7555C30.3107 29.1003 30.4482 28.4123 30.4482 27.7047C30.4482 26.997 30.3107 26.3156 30.0356 25.6538C29.767 24.9985 29.3805 24.4219 28.8761 23.9174C28.3782 23.4194 27.7952 23.0328 27.1402 22.7576C26.4851 22.489 25.8038 22.3514 25.0964 22.3514Z" fill="white"/>
<path d="M25.0954 0.000450854C24.3879 0.000450823 23.7001 0.138051 23.045 0.406696C22.39 0.681893 21.8135 1.06848 21.3091 1.57301C20.8113 2.07099 20.4248 2.64759 20.1497 3.30938C19.8811 3.96462 19.7435 4.64606 19.7435 5.35371C19.7435 6.06136 19.8811 6.74936 20.1497 7.40459C20.4248 8.05983 20.8113 8.63643 21.3091 9.14096C21.8135 9.63894 22.39 10.0255 23.045 10.3007C23.7001 10.5694 24.3879 10.707 25.0954 10.707C25.8029 10.707 26.4841 10.5694 27.1392 10.3007C27.7943 10.0255 28.3773 9.63894 28.8751 9.14096C29.3795 8.63643 29.766 8.05983 30.0346 7.40459C30.3097 6.74936 30.4473 6.06136 30.4473 5.35371C30.4473 4.64606 30.3097 3.96462 30.0346 3.30938C29.766 2.6476 29.3795 2.07099 28.8751 1.57301C28.3773 1.06848 27.7943 0.681893 27.1392 0.406696C26.4841 0.138051 25.8029 0.000450885 25.0954 0.000450854Z" fill="white"/>
<path d="M5.35223 156.453C4.64476 156.453 3.95695 156.59 3.30188 156.859C2.64682 157.134 2.07036 157.521 1.56596 158.019C1.06811 158.523 0.681628 159.1 0.406499 159.755C0.137924 160.41 0.0003598 161.098 0.000359769 161.806C0.000359738 162.514 0.137923 163.195 0.406499 163.857C0.681627 164.512 1.06811 165.089 1.56596 165.593C2.07036 166.091 2.64682 166.478 3.30188 166.753C3.95694 167.022 4.64476 167.159 5.35223 167.159C6.0597 167.159 6.74097 167.022 7.39603 166.753C8.05109 166.478 8.6341 166.091 9.13195 165.593C9.63635 165.089 10.0228 164.512 10.2914 163.857C10.5665 163.195 10.7041 162.514 10.7041 161.806C10.7041 161.098 10.5665 160.41 10.2914 159.755C10.0228 159.1 9.63635 158.523 9.13195 158.019C8.6341 157.521 8.05109 157.134 7.39603 156.859C6.74097 156.59 6.0597 156.453 5.35223 156.453Z" fill="white"/>
<path d="M5.35125 134.102C4.64379 134.102 3.95597 134.239 3.30091 134.508C2.64584 134.783 2.06938 135.17 1.56499 135.668C1.06714 136.172 0.680651 136.749 0.405523 137.404C0.136947 138.066 -0.000616762 138.747 -0.000616793 139.455C-0.000616824 140.163 0.136947 140.851 0.405522 141.506C0.680651 142.161 1.06714 142.738 1.56499 143.242C2.06938 143.74 2.64584 144.127 3.3009 144.402C3.95597 144.671 4.64379 144.808 5.35125 144.808C6.05872 144.808 6.73999 144.671 7.39505 144.402C8.05012 144.127 8.63312 143.74 9.13097 143.242C9.63537 142.738 10.0219 142.161 10.2904 141.506C10.5656 140.851 10.7031 140.163 10.7031 139.455C10.7031 138.747 10.5656 138.066 10.2904 137.404C10.0219 136.749 9.63537 136.172 9.13097 135.668C8.63312 135.17 8.05012 134.783 7.39505 134.508C6.73999 134.239 6.05872 134.102 5.35125 134.102Z" fill="white"/>
<path d="M5.35223 111.752C4.64476 111.752 3.95695 111.89 3.30188 112.158C2.64682 112.433 2.07036 112.82 1.56596 113.325C1.06811 113.823 0.681628 114.399 0.406499 115.061C0.137924 115.716 0.0003598 116.398 0.000359769 117.105C0.000359738 117.813 0.137923 118.501 0.406499 119.156C0.681627 119.811 1.06811 120.388 1.56596 120.893C2.07036 121.391 2.64682 121.777 3.30188 122.052C3.95694 122.321 4.64476 122.459 5.35223 122.459C6.0597 122.459 6.74097 122.321 7.39603 122.052C8.05109 121.777 8.6341 121.391 9.13195 120.893C9.63635 120.388 10.0228 119.811 10.2914 119.156C10.5665 118.501 10.7041 117.813 10.7041 117.105C10.7041 116.398 10.5665 115.716 10.2914 115.061C10.0228 114.399 9.63635 113.823 9.13195 113.325C8.6341 112.82 8.05109 112.433 7.39603 112.158C6.74097 111.89 6.0597 111.752 5.35223 111.752Z" fill="white"/>
<path d="M5.35223 89.4019C4.64476 89.4019 3.95695 89.5395 3.30188 89.8081C2.64682 90.0833 2.07036 90.4699 1.56596 90.9679C1.06811 91.4724 0.681628 92.049 0.406499 92.7043C0.137924 93.366 0.0003598 94.0475 0.000359769 94.7551C0.000359738 95.4628 0.137923 96.1508 0.406499 96.806C0.681627 97.4613 1.06811 98.0379 1.56596 98.5424C2.07036 99.0404 2.64682 99.427 3.30188 99.7022C3.95694 99.9708 4.64476 100.108 5.35223 100.108C6.0597 100.108 6.74097 99.9708 7.39603 99.7022C8.05109 99.427 8.6341 99.0404 9.13195 98.5424C9.63635 98.0379 10.0228 97.4613 10.2914 96.806C10.5665 96.1508 10.7041 95.4628 10.7041 94.7551C10.7041 94.0475 10.5665 93.366 10.2914 92.7043C10.0228 92.049 9.63635 91.4724 9.13195 90.9679C8.6341 90.4699 8.05109 90.0833 7.39603 89.8081C6.74097 89.5395 6.0597 89.4019 5.35223 89.4019Z" fill="white"/>
<path d="M5.35125 67.0514C4.64379 67.0514 3.95597 67.189 3.30091 67.4577C2.64584 67.7329 2.06938 68.1194 1.56499 68.624C1.06714 69.122 0.680651 69.6986 0.405523 70.3538C0.136947 71.0156 -0.000616762 71.697 -0.000616793 72.4047C-0.000616824 73.1123 0.136947 73.8003 0.405522 74.4556C0.680651 75.1108 1.06714 75.6874 1.56499 76.1919C2.06938 76.6899 2.64584 77.0765 3.3009 77.3517C3.95597 77.6203 4.64379 77.7579 5.35125 77.7579C6.05872 77.7579 6.73999 77.6203 7.39505 77.3517C8.05012 77.0765 8.63312 76.6899 9.13097 76.1919C9.63537 75.6874 10.0219 75.1108 10.2904 74.4556C10.5656 73.8003 10.7031 73.1123 10.7031 72.4047C10.7031 71.697 10.5656 71.0156 10.2904 70.3538C10.0219 69.6986 9.63537 69.122 9.13097 68.624C8.63312 68.1194 8.05012 67.7329 7.39505 67.4577C6.73999 67.189 6.05872 67.0514 5.35125 67.0514Z" fill="white"/>
<path d="M5.35223 44.7012C4.64476 44.7012 3.95695 44.8388 3.30188 45.114C2.64682 45.3826 2.07036 45.7692 1.56596 46.2738C1.06811 46.7717 0.681628 47.3483 0.406499 48.0101C0.137924 48.6654 0.0003598 49.3468 0.000359769 50.0545C0.000359738 50.7621 0.137923 51.4501 0.406499 52.1053C0.681627 52.7606 1.06811 53.3372 1.56596 53.8417C2.07036 54.3397 2.64682 54.7263 3.30188 55.0015C3.95694 55.2701 4.64476 55.4077 5.35223 55.4077C6.0597 55.4077 6.74097 55.2701 7.39603 55.0015C8.05109 54.7263 8.6341 54.3397 9.13195 53.8417C9.63635 53.3372 10.0228 52.7606 10.2914 52.1053C10.5665 51.4501 10.7041 50.7621 10.7041 50.0545C10.7041 49.3468 10.5665 48.6654 10.2914 48.0101C10.0228 47.3483 9.63635 46.7717 9.13195 46.2738C8.6341 45.7692 8.05109 45.3826 7.39603 45.114C6.74097 44.8388 6.0597 44.7012 5.35223 44.7012Z" fill="white"/>
<path d="M5.35223 22.3516C4.64476 22.3516 3.95695 22.4892 3.30188 22.7578C2.64682 23.033 2.07036 23.4196 1.56596 23.9176C1.06811 24.4221 0.681628 24.9987 0.406499 25.654C0.137924 26.3157 0.0003598 26.9972 0.000359769 27.7048C0.000359738 28.4125 0.137923 29.1005 0.406499 29.7557C0.681627 30.411 1.06811 30.9876 1.56596 31.4921C2.07036 31.9901 2.64682 32.3767 3.30188 32.6519C3.95694 32.9205 4.64476 33.0581 5.35223 33.0581C6.0597 33.0581 6.74097 32.9205 7.39603 32.6519C8.05109 32.3767 8.6341 31.9901 9.13195 31.4921C9.63635 30.9876 10.0228 30.411 10.2914 29.7557C10.5665 29.1005 10.7041 28.4125 10.7041 27.7048C10.7041 26.9972 10.5665 26.3158 10.2914 25.654C10.0228 24.9987 9.63635 24.4221 9.13195 23.9176C8.6341 23.4196 8.05109 23.033 7.39603 22.7578C6.74097 22.4892 6.0597 22.3516 5.35223 22.3516Z" fill="white"/>
<path d="M5.35223 0.000572924C4.64476 0.000572893 3.95695 0.138173 3.30188 0.406818C2.64682 0.682015 2.07036 1.0686 1.56596 1.57313C1.06811 2.07111 0.681628 2.64772 0.406499 3.3095C0.137924 3.96474 0.0003598 4.64618 0.000359769 5.35383C0.000359738 6.06149 0.137923 6.74948 0.406499 7.40471C0.681627 8.05995 1.06811 8.63655 1.56596 9.14108C2.07036 9.63906 2.64682 10.0256 3.30188 10.3008C3.95694 10.5695 4.64476 10.7071 5.35223 10.7071C6.0597 10.7071 6.74097 10.5695 7.39603 10.3008C8.05109 10.0256 8.6341 9.63906 9.13195 9.14108C9.63635 8.63655 10.0228 8.05995 10.2914 7.40471C10.5665 6.74948 10.7041 6.06149 10.7041 5.35383C10.7041 4.64618 10.5665 3.96474 10.2914 3.3095C10.0228 2.64772 9.63635 2.07111 9.13195 1.57313C8.6341 1.0686 8.05109 0.682015 7.39603 0.406818C6.74097 0.138173 6.0597 0.000572955 5.35223 0.000572924Z" fill="white"/>
</svg>
