<svg width="20" height="20" viewBox="0 0 20 20" fill="none" xmlns="http://www.w3.org/2000/svg">
<path d="M11.7284 3.23722C12.3494 2.56442 12.6599 2.22802 12.9898 2.03179C13.7859 1.55832 14.7662 1.54359 15.5757 1.99295C15.9111 2.17918 16.2311 2.50612 16.8712 3.15998C17.5112 3.81385 17.8313 4.14078 18.0136 4.48346C18.4535 5.31028 18.4391 6.31167 17.9756 7.12493C17.7835 7.46198 17.4542 7.77917 16.7956 8.41352L8.95916 15.9613C7.71106 17.1634 7.08699 17.7645 6.30704 18.0691C5.52709 18.3738 4.66966 18.3513 2.95479 18.3065L2.72148 18.3004C2.19942 18.2868 1.93838 18.2799 1.78665 18.1077C1.63491 17.9355 1.65563 17.6696 1.69706 17.1378L1.71956 16.8491C1.83617 15.3523 1.89447 14.6039 2.18675 13.9312C2.47903 13.2584 2.98319 12.7123 3.99152 11.6198L11.7284 3.23722Z" stroke="white" stroke-width="1.5" stroke-linejoin="round"/>
<path d="M10.833 3.33398L16.6663 9.16732" stroke="white" stroke-width="1.5" stroke-linejoin="round"/>
<path d="M11.667 18.334H18.3337" stroke="white" stroke-width="1.5" stroke-linecap="round" stroke-linejoin="round"/>
</svg>
