<svg width="24" height="24" viewBox="0 0 24 24" fill="none" xmlns="http://www.w3.org/2000/svg">
<path d="M11.7008 21.6003H5.70077C4.37529 21.6003 3.30077 20.5258 3.30078 19.2003L3.30087 4.80038C3.30088 3.4749 4.3754 2.40039 5.70087 2.40039H16.5011C17.8266 2.40039 18.9011 3.47491 18.9011 4.80039V9.60039M7.50116 7.20039H14.7012M7.50116 10.8004H14.7012M14.7012 15.5543V18.4987C14.7012 19.9537 16.2526 21.2881 17.7075 21.2881C19.1625 21.2881 20.7012 19.9537 20.7012 18.4987V14.7795C20.7012 14.0092 20.2583 13.2276 19.2733 13.2276C18.2195 13.2276 17.7075 14.0092 17.7075 14.7795V18.3438M7.50116 14.4004H11.1012" stroke="#063C5E" stroke-width="1.5" stroke-linecap="round" stroke-linejoin="round"/>
</svg>
