<svg width="66" height="66" viewBox="0 0 66 66" fill="none" xmlns="http://www.w3.org/2000/svg">
<rect width="66" height="66" rx="33" fill="#124959"/>
<path d="M43.9675 40.5C44.9041 40.5 45.6491 39.9106 46.318 39.0864C47.6874 37.3993 45.4391 36.051 44.5816 35.3907C43.71 34.7195 42.7367 34.3393 41.75 34.25M40.5 31.75C42.2259 31.75 43.625 30.3509 43.625 28.625C43.625 26.8991 42.2259 25.5 40.5 25.5" stroke="white" stroke-width="1.875" stroke-linecap="round"/>
<path d="M22.0325 40.5C21.0958 40.5 20.3508 39.9106 19.6819 39.0864C18.3126 37.3993 20.5608 36.051 21.4183 35.3907C22.29 34.7195 23.2632 34.3393 24.25 34.25M24.875 31.75C23.1491 31.75 21.75 30.3509 21.75 28.625C21.75 26.8991 23.1491 25.5 24.875 25.5" stroke="white" stroke-width="1.875" stroke-linecap="round"/>
<path d="M28.1048 36.889C26.8275 37.6788 23.4787 39.2914 25.5184 41.3092C26.5147 42.295 27.6244 43 29.0195 43H36.9805C38.3757 43 39.4853 42.295 40.4817 41.3092C42.5213 39.2914 39.1725 37.6788 37.8953 36.889C34.9002 35.037 31.0998 35.037 28.1048 36.889Z" stroke="white" stroke-width="1.875" stroke-linecap="round" stroke-linejoin="round"/>
<path d="M37.375 27.375C37.375 29.7912 35.4163 31.75 33 31.75C30.5838 31.75 28.625 29.7912 28.625 27.375C28.625 24.9588 30.5838 23 33 23C35.4163 23 37.375 24.9588 37.375 27.375Z" stroke="white" stroke-width="1.875"/>
</svg>
