<svg width="85" height="85" viewBox="0 0 85 85" fill="none" xmlns="http://www.w3.org/2000/svg">
<rect width="85" height="85" rx="10.4615" fill="#17AA9D"/>
<path d="M56.842 52.3068C58.0669 52.3068 59.0411 51.5361 59.9158 50.4582C61.7065 48.252 58.7665 46.4889 57.6451 45.6255C56.5053 44.7477 55.2326 44.2504 53.9422 44.1337M52.3076 40.8645C54.5645 40.8645 56.3942 39.0349 56.3942 36.7779C56.3942 34.521 54.5645 32.6914 52.3076 32.6914" stroke="white" stroke-width="2.45192" stroke-linecap="round"/>
<path d="M28.1576 52.3068C26.9328 52.3068 25.9586 51.5361 25.0839 50.4582C23.2932 48.252 26.2332 46.4889 27.3545 45.6255C28.4944 44.7477 29.7671 44.2504 31.0575 44.1337M31.8748 40.8645C29.6179 40.8645 27.7883 39.0349 27.7883 36.7779C27.7883 34.521 29.6179 32.6914 31.8748 32.6914" stroke="white" stroke-width="2.45192" stroke-linecap="round"/>
<path d="M36.0985 47.5859C34.4283 48.6187 30.0491 50.7275 32.7163 53.3662C34.0193 54.6553 35.4704 55.5772 37.2948 55.5772H47.7053C49.5297 55.5772 50.9808 54.6553 52.2837 53.3662C54.9509 50.7275 50.5718 48.6187 48.9015 47.5859C44.9848 45.1641 40.0151 45.1641 36.0985 47.5859Z" stroke="white" stroke-width="2.45192" stroke-linecap="round" stroke-linejoin="round"/>
<path d="M48.2211 35.145C48.2211 38.3047 45.6597 40.8661 42.5 40.8661C39.3403 40.8661 36.7788 38.3047 36.7788 35.145C36.7788 31.9853 39.3403 29.4238 42.5 29.4238C45.6597 29.4238 48.2211 31.9853 48.2211 35.145Z" stroke="white" stroke-width="2.45192"/>
</svg>
