<svg width="426" height="325" viewBox="0 0 426 325" fill="none" xmlns="http://www.w3.org/2000/svg">
<path d="M388.603 320.444C388.603 322.256 331.271 323.72 260.63 323.72C189.989 323.72 132.658 322.256 132.658 320.444C132.658 318.632 189.989 317.178 260.63 317.178C331.271 317.178 388.603 318.642 388.603 320.444Z" fill="#2E353A"/>
<path d="M287.351 16.8193H167.108C163.365 16.8193 160.331 19.8537 160.331 23.5968V70.5986C160.331 74.3417 163.365 77.376 167.108 77.376H287.351C291.094 77.376 294.129 74.3417 294.129 70.5986V23.5968C294.129 19.8537 291.094 16.8193 287.351 16.8193Z" fill="#2DA94F"/>
<path d="M160.331 66.7285V88.5863L172.524 74.5502" fill="#2DA94F"/>
<path d="M287.361 16.8193H167.077C166.188 16.8193 165.307 16.9947 164.485 17.3354C163.664 17.6762 162.917 18.1755 162.289 18.805C161.66 19.4345 161.162 20.1817 160.822 21.0039C160.483 21.8262 160.309 22.7072 160.31 23.5968V88.5864L170.056 77.376H287.361C288.251 77.376 289.132 77.2007 289.953 76.8599C290.775 76.5192 291.522 76.0198 292.15 75.3904C292.779 74.7609 293.277 74.0136 293.616 73.1914C293.956 72.3692 294.13 71.4881 294.129 70.5986V23.5968C294.13 22.7072 293.956 21.8262 293.616 21.0039C293.277 20.1817 292.779 19.4345 292.15 18.805C291.522 18.1755 290.775 17.6762 289.953 17.3354C289.132 16.9947 288.251 16.8193 287.361 16.8193Z" fill="#2DA94F"/>
<path opacity="0.1" d="M287.361 16.8193H167.077C166.188 16.8193 165.307 16.9947 164.485 17.3354C163.664 17.6762 162.917 18.1755 162.289 18.805C161.66 19.4345 161.162 20.1817 160.822 21.0039C160.483 21.8262 160.309 22.7072 160.31 23.5968V88.5864L170.056 77.376H287.361C288.251 77.376 289.132 77.2007 289.953 76.8599C290.775 76.5192 291.522 76.0198 292.15 75.3904C292.779 74.7609 293.277 74.0136 293.616 73.1914C293.956 72.3692 294.13 71.4881 294.129 70.5986V23.5968C294.13 22.7072 293.956 21.8262 293.616 21.0039C293.277 20.1817 292.779 19.4345 292.15 18.805C291.522 18.1755 290.775 17.6762 289.953 17.3354C289.132 16.9947 288.251 16.8193 287.361 16.8193Z" fill="#2DA94F"/>
<path d="M263.313 50.0408H176.916C176.275 50.0408 175.66 49.7862 175.207 49.3331C174.754 48.88 174.5 48.2654 174.5 47.6246C174.502 46.9856 174.758 46.3737 175.211 45.9228C175.664 45.4719 176.277 45.2187 176.916 45.2188H263.313C263.952 45.2187 264.565 45.4719 265.017 45.9228C265.47 46.3737 265.726 46.9856 265.729 47.6246C265.729 47.9419 265.666 48.2561 265.545 48.5492C265.423 48.8424 265.245 49.1087 265.021 49.3331C264.797 49.5574 264.53 49.7354 264.237 49.8568C263.944 49.9783 263.63 50.0408 263.313 50.0408Z" fill="white"/>
<path d="M263.313 61.1384H176.916C176.598 61.1384 176.284 61.0759 175.991 60.9545C175.698 60.8331 175.432 60.6551 175.207 60.4307C174.983 60.2064 174.805 59.94 174.683 59.6469C174.562 59.3538 174.5 59.0396 174.5 58.7223C174.502 58.0833 174.758 57.4713 175.211 57.0204C175.664 56.5695 176.277 56.3164 176.916 56.3164H263.313C263.952 56.3164 264.565 56.5695 265.017 57.0204C265.47 57.4713 265.726 58.0833 265.729 58.7223C265.729 59.0396 265.666 59.3538 265.545 59.6469C265.423 59.94 265.245 60.2064 265.021 60.4307C264.797 60.6551 264.53 60.8331 264.237 60.9545C263.944 61.0759 263.63 61.1384 263.313 61.1384Z" fill="white"/>
<path d="M181.738 38.9434C186.533 38.9434 190.419 35.0565 190.419 30.2618C190.419 25.467 186.533 21.5801 181.738 21.5801C176.943 21.5801 173.056 25.467 173.056 30.2618C173.056 35.0565 176.943 38.9434 181.738 38.9434Z" fill="white"/>
<path d="M287.351 98.7734H167.108C163.365 98.7734 160.331 101.808 160.331 105.551V152.553C160.331 156.296 163.365 159.33 167.108 159.33H287.351C291.094 159.33 294.129 156.296 294.129 152.553V105.551C294.129 101.808 291.094 98.7734 287.351 98.7734Z" fill="#2DA94F"/>
<path d="M160.331 148.672V170.54L172.524 156.494" fill="#2DA94F"/>
<path d="M287.361 98.7734H167.077C165.282 98.7734 163.561 99.4864 162.292 100.755C161.023 102.025 160.31 103.746 160.31 105.541V170.541L170.056 159.279H287.361C289.156 159.279 290.877 158.566 292.146 157.297C293.416 156.028 294.129 154.306 294.129 152.512V105.541C294.129 103.746 293.416 102.025 292.146 100.755C290.877 99.4864 289.156 98.7734 287.361 98.7734Z" fill="#2DA94F"/>
<path opacity="0.1" d="M287.361 98.7734H167.077C165.282 98.7734 163.561 99.4864 162.292 100.755C161.023 102.025 160.31 103.746 160.31 105.541V170.541L170.056 159.279H287.361C289.156 159.279 290.877 158.566 292.146 157.297C293.416 156.028 294.129 154.306 294.129 152.512V105.541C294.129 103.746 293.416 102.025 292.146 100.755C290.877 99.4864 289.156 98.7734 287.361 98.7734Z" fill="#2DA94F"/>
<path d="M263.313 131.985H176.916C176.277 131.985 175.664 131.732 175.211 131.281C174.758 130.83 174.502 130.218 174.5 129.579C174.5 128.938 174.754 128.324 175.207 127.871C175.66 127.418 176.275 127.163 176.916 127.163H263.313C263.63 127.163 263.944 127.226 264.237 127.347C264.53 127.468 264.797 127.646 265.021 127.871C265.245 128.095 265.423 128.361 265.545 128.655C265.666 128.948 265.729 129.262 265.729 129.579C265.726 130.218 265.47 130.83 265.017 131.281C264.565 131.732 263.952 131.985 263.313 131.985Z" fill="white"/>
<path d="M263.313 143.083H176.916C176.277 143.083 175.664 142.83 175.211 142.379C174.758 141.928 174.502 141.316 174.5 140.677C174.5 140.036 174.754 139.422 175.207 138.968C175.66 138.515 176.275 138.261 176.916 138.261H263.313C263.63 138.261 263.944 138.323 264.237 138.445C264.53 138.566 264.797 138.744 265.021 138.968C265.245 139.193 265.423 139.459 265.545 139.752C265.666 140.045 265.729 140.36 265.729 140.677C265.726 141.316 265.47 141.928 265.017 142.379C264.565 142.83 263.952 143.083 263.313 143.083Z" fill="white"/>
<path d="M181.738 120.887C186.533 120.887 190.419 117 190.419 112.205C190.419 107.41 186.533 103.523 181.738 103.523C176.943 103.523 173.056 107.41 173.056 112.205C173.056 117 176.943 120.887 181.738 120.887Z" fill="white"/>
<path d="M67.4121 218.761C67.32 218.761 66.9104 212.342 66.9309 211.932C67.1664 207.192 70.422 198.162 75.5716 196.79C76.4313 196.585 77.3246 196.563 78.1932 196.726C79.0619 196.889 79.8864 197.234 80.6129 197.737C81.3394 198.24 81.9516 198.891 82.4095 199.647C82.8674 200.403 83.1608 201.247 83.2705 202.124C83.8643 205.83 81.4481 209.782 79.0013 212.362C76.1142 215.352 67.4121 218.761 67.4121 218.761Z" fill="#2E353A"/>
<path d="M60.6962 194.026C60.604 194.026 61.1671 187.617 61.249 187.208C62.2114 182.56 66.7979 174.124 72.0806 173.55C72.9617 173.478 73.8481 173.592 74.6821 173.885C75.5161 174.178 76.279 174.644 76.9213 175.251C77.5635 175.859 78.0706 176.595 78.4096 177.411C78.7486 178.228 78.9119 179.106 78.8888 179.99C78.8888 183.747 75.9301 187.289 73.1249 189.45C69.8181 191.989 60.6962 194.026 60.6962 194.026Z" fill="#2E353A"/>
<path d="M58.9963 164.838C58.9042 164.838 59.4775 158.429 59.5594 158.019C60.5115 153.371 65.0981 144.935 70.391 144.362C71.2716 144.29 72.1575 144.404 72.991 144.697C73.8245 144.99 74.5869 145.456 75.2283 146.063C75.8698 146.671 76.3759 147.407 76.7137 148.223C77.0515 149.04 77.2135 149.918 77.1889 150.801C77.1889 154.559 74.2404 158.091 71.425 160.261C68.1182 162.8 59.0066 164.838 58.9963 164.838Z" fill="#2E353A"/>
<path d="M56.0583 137.37C55.9662 137.37 56.5395 130.951 56.6214 130.552C57.5735 125.894 62.1601 117.468 67.453 116.884C68.3341 116.814 69.2203 116.929 70.0538 117.224C70.8873 117.518 71.6495 117.985 72.2907 118.593C72.932 119.201 73.4379 119.938 73.7757 120.755C74.1134 121.572 74.2753 122.451 74.2509 123.334C74.2509 127.081 71.3024 130.624 68.487 132.784C65.1802 135.323 56.0686 137.37 56.0583 137.37Z" fill="#2E353A"/>
<path d="M47.2947 115.327C47.2128 115.327 46.0662 109.011 46.0355 108.601C45.7283 103.861 47.9295 94.5138 52.8743 92.5687C53.7046 92.2656 54.5895 92.141 55.4712 92.203C56.3529 92.2651 57.2116 92.5123 57.9913 92.9287C58.771 93.3451 59.454 93.9213 59.9959 94.6196C60.5379 95.3178 60.9264 96.1225 61.1363 96.9812C62.16 100.595 60.2149 104.793 58.0649 107.618C55.5669 110.946 47.2947 115.327 47.2947 115.327Z" fill="#2E353A"/>
<path d="M64.6989 218.832C64.8013 218.832 62.0064 212.986 61.7812 212.638C59.2524 208.625 51.9938 202.339 46.8442 203.66C45.9952 203.902 45.2068 204.321 44.5304 204.888C43.854 205.456 43.3047 206.159 42.9184 206.953C42.532 207.747 42.3173 208.614 42.2881 209.496C42.2589 210.379 42.416 211.257 42.7491 212.075C44.039 215.607 48.0727 217.87 51.4717 218.904C55.4849 220.122 64.6989 218.832 64.6989 218.832Z" fill="#2E353A"/>
<path d="M59.3241 190.719C59.4265 190.719 55.7716 185.355 55.5054 185.048C52.4341 181.454 44.2438 176.345 39.3809 178.424C38.5761 178.791 37.8579 179.323 37.2732 179.987C36.6885 180.651 36.2504 181.43 35.9876 182.275C35.7247 183.119 35.6431 184.01 35.748 184.888C35.8528 185.766 36.1419 186.613 36.5962 187.371C38.398 190.658 42.7389 192.286 46.2504 192.798C50.366 193.391 59.3241 190.719 59.3241 190.719Z" fill="#2E353A"/>
<path d="M57.7781 163.179C57.8703 163.179 54.2256 157.814 53.9594 157.507C50.8881 153.914 42.6978 148.805 37.8246 150.894C37.0113 151.258 36.2845 151.791 35.6926 152.458C35.1006 153.124 34.6569 153.909 34.3907 154.759C34.1246 155.61 34.0421 156.507 34.1487 157.392C34.2554 158.277 34.5487 159.13 35.0092 159.893C36.8213 163.179 41.1519 164.807 44.6737 165.308C48.8201 165.861 57.7781 163.189 57.7781 163.179Z" fill="#2E353A"/>
<path d="M55.1269 137.913C55.2292 137.913 51.5743 132.548 51.3082 132.241C48.2368 128.647 40.0466 123.539 35.1836 125.617C34.3789 125.984 33.6607 126.517 33.076 127.18C32.4912 127.844 32.0531 128.624 31.7903 129.468C31.5275 130.313 31.4458 131.203 31.5507 132.081C31.6556 132.96 31.9446 133.806 32.3989 134.565C34.2008 137.861 38.5416 139.479 42.0532 139.991C46.1688 140.585 55.1269 137.913 55.1269 137.913Z" fill="#2E353A"/>
<path d="M47.356 116.157C47.4481 116.157 43.2608 111.222 42.9332 110.936C39.4524 107.711 30.8117 103.523 26.1739 106.134C25.4125 106.587 24.7555 107.197 24.2462 107.922C23.7368 108.647 23.3865 109.472 23.2183 110.342C23.0501 111.212 23.0677 112.108 23.2701 112.971C23.4725 113.833 23.855 114.644 24.3925 115.348C26.5527 118.419 31.0369 119.566 34.6304 119.679C38.746 119.802 47.356 116.167 47.356 116.157Z" fill="#2E353A"/>
<path d="M36.1866 98.1791C36.2788 98.1791 34.8045 91.8931 34.6714 91.5041C33.0641 87.0301 27.3309 79.3416 22.0073 79.5156C21.1249 79.5692 20.2637 79.808 19.4797 80.2165C18.6958 80.6249 18.0066 81.1939 17.4571 81.8863C16.9076 82.5788 16.51 83.3792 16.2903 84.2355C16.0706 85.0917 16.0337 85.9846 16.1819 86.8561C16.6938 90.5827 20.144 93.654 23.2358 95.3944C26.8702 97.442 36.1764 98.1791 36.1866 98.1791Z" fill="#2E353A"/>
<path d="M76.3599 251.932C76.3599 251.932 75.2645 249.423 73.5445 245.031C71.8246 240.639 69.4494 234.302 66.9309 226.603C65.6717 222.754 64.3919 218.556 63.1429 214.082C62.5082 211.83 61.9349 209.567 61.3104 207.141C61.0442 205.953 60.7882 204.756 60.522 203.548C60.2559 202.34 60.0716 201.06 59.8464 199.801C59.0382 194.636 58.5153 189.431 58.28 184.208C58.024 178.895 57.9216 173.52 57.7885 168.145C57.6555 162.77 57.5224 157.416 57.0924 152.174C56.7174 147.041 55.9818 141.94 54.8912 136.91C53.7927 132.225 52.2784 127.647 50.3661 123.232C48.6584 119.259 46.7202 115.39 44.5613 111.643C42.5854 108.131 40.5583 105.05 38.7462 102.326C36.9341 99.6031 35.2346 97.3098 33.8116 95.4363C30.9655 91.6892 29.1841 89.6826 29.1841 89.6826C29.1841 89.6826 31.0064 91.6585 33.9447 95.3339C35.3984 97.1869 37.1389 99.429 39.0636 102.132C40.9883 104.835 43.0359 107.865 45.0937 111.346C47.3627 115.07 49.4138 118.922 51.2363 122.884C53.2784 127.31 54.9263 131.907 56.1607 136.623C57.3758 141.675 58.2345 146.807 58.7304 151.98C59.273 157.273 59.5494 162.658 59.7542 168.033C59.959 173.407 60.2149 178.762 60.5835 184.014C60.9285 189.135 61.5505 194.234 62.4468 199.289C62.7027 200.507 62.8563 201.695 63.1736 202.903C63.491 204.111 63.7572 205.298 64.0439 206.476C64.6786 208.718 65.3236 211.052 65.9993 213.233C67.32 217.625 68.6816 221.75 70.0125 225.518C72.6539 233.094 75.1314 239.298 76.9435 243.618C78.7556 247.939 79.8715 250.334 79.8715 250.334C80.0403 250.777 80.0351 251.267 79.8569 251.706C79.6787 252.145 79.3408 252.501 78.9112 252.7C78.4816 252.9 77.9923 252.93 77.5417 252.784C77.0911 252.637 76.7127 252.325 76.4828 251.911L76.3599 251.932Z" fill="#2E353A"/>
<path d="M100.47 212.249C100.378 212.249 101.821 205.953 101.955 205.564C103.531 201.09 109.223 193.361 114.537 193.504C115.419 193.551 116.282 193.784 117.068 194.187C117.854 194.59 118.547 195.154 119.101 195.843C119.654 196.532 120.056 197.33 120.281 198.185C120.505 199.039 120.547 199.932 120.403 200.803C119.922 204.53 116.492 207.632 113.411 209.393C109.746 211.461 100.531 212.249 100.47 212.249Z" fill="#2E353A"/>
<path d="M101.064 186.634C100.972 186.634 103.347 180.614 103.541 180.256C105.783 176.058 112.571 169.281 117.802 170.233C118.668 170.414 119.485 170.775 120.202 171.293C120.918 171.811 121.518 172.474 121.961 173.239C122.404 174.004 122.682 174.853 122.775 175.733C122.868 176.612 122.775 177.501 122.502 178.341C121.478 181.955 117.598 184.484 114.311 185.764C110.39 187.259 101.074 186.634 101.064 186.634Z" fill="#2E353A"/>
<path d="M107.698 158.163C107.596 158.163 109.971 152.143 110.165 151.784C112.407 147.597 119.205 140.82 124.437 141.762C125.302 141.944 126.12 142.306 126.836 142.825C127.552 143.344 128.151 144.008 128.594 144.774C129.036 145.54 129.312 146.391 129.404 147.27C129.495 148.15 129.401 149.039 129.126 149.88C128.102 153.484 124.222 156.023 120.936 157.303C117.066 158.797 107.698 158.163 107.698 158.163Z" fill="#2E353A"/>
<path d="M112.724 131.002C112.622 131.002 114.997 124.992 115.192 124.624C117.434 120.436 124.232 113.659 129.463 114.611C130.328 114.792 131.146 115.153 131.862 115.671C132.578 116.189 133.177 116.852 133.62 117.617C134.062 118.383 134.338 119.232 134.43 120.112C134.522 120.991 134.427 121.879 134.152 122.719C133.128 126.333 129.248 128.862 125.962 130.142C122.031 131.637 112.724 131.002 112.724 131.002Z" fill="#2E353A"/>
<path d="M110.605 107.363C110.503 107.363 111.209 100.965 111.302 100.565C112.325 95.9276 117.117 87.594 122.42 87.1333C123.302 87.0806 124.185 87.2141 125.012 87.5252C125.839 87.8362 126.591 88.3179 127.22 88.9388C127.849 89.5597 128.339 90.3059 128.661 91.129C128.982 91.9521 129.126 92.8336 129.085 93.7162C129.085 97.4735 126.013 100.944 123.126 103.043C119.768 105.51 110.605 107.363 110.605 107.363Z" fill="#2E353A"/>
<path d="M97.8902 211.553C97.9823 211.553 96.9585 205.185 96.8664 204.796C95.5866 200.22 90.4166 192.132 85.1031 191.927C84.2185 191.917 83.3418 192.094 82.53 192.445C81.7182 192.797 80.9896 193.316 80.3916 193.968C79.7937 194.62 79.3399 195.39 79.0598 196.229C78.7797 197.069 78.6796 197.957 78.7659 198.838C79.0014 202.585 82.2263 205.902 85.185 207.857C88.6454 210.161 97.8799 211.553 97.8902 211.553Z" fill="#2E353A"/>
<path d="M100.695 183.072C100.798 183.072 98.8115 176.929 98.6477 176.54C96.682 172.209 90.3448 165.002 85.0621 165.606C84.1867 165.731 83.3475 166.039 82.599 166.51C81.8505 166.98 81.2096 167.604 80.718 168.339C80.2264 169.074 79.8951 169.904 79.7458 170.775C79.5964 171.647 79.6323 172.54 79.851 173.397C80.6496 177.062 84.3454 179.857 87.5601 181.342C91.3174 183.092 100.685 183.072 100.695 183.072Z" fill="#2E353A"/>
<path d="M107.043 156.227C107.135 156.227 105.159 150.085 104.995 149.696C103.04 145.375 96.7025 138.168 91.4198 138.772C90.5413 138.895 89.6987 139.203 88.9474 139.674C88.196 140.146 87.5527 140.771 87.0597 141.508C86.5668 142.246 86.2352 143.079 86.0868 143.954C85.9384 144.828 85.9765 145.725 86.1985 146.583C87.0073 150.259 90.6929 153.044 93.9178 154.528C97.6956 156.248 107.032 156.227 107.043 156.227Z" fill="#2E353A"/>
<path d="M111.68 131.228C111.782 131.228 109.796 125.085 109.633 124.696C107.667 120.376 101.34 113.158 96.0469 113.772C95.172 113.896 94.3329 114.202 93.5845 114.672C92.836 115.142 92.195 115.764 91.7033 116.498C91.2116 117.233 90.8802 118.062 90.7307 118.933C90.5812 119.804 90.6171 120.697 90.8359 121.553C91.6344 125.228 95.3303 128.013 98.5552 129.497C102.333 131.228 111.68 131.228 111.68 131.228Z" fill="#2E353A"/>
<path d="M110.411 108.182C110.513 108.182 107.872 102.275 107.657 101.916C105.23 97.8211 98.1459 91.3611 92.9553 92.5487C92.0987 92.768 91.2981 93.1655 90.6056 93.7154C89.9132 94.2652 89.3445 94.9549 88.9368 95.7395C88.5291 96.524 88.2914 97.3858 88.2394 98.2684C88.1874 99.1511 88.3222 100.035 88.6349 100.862C89.8328 104.414 93.805 106.779 97.1733 107.905C101.125 109.226 110.411 108.182 110.411 108.182Z" fill="#2E353A"/>
<path d="M104.821 87.7676C104.903 87.7676 105.282 81.3485 105.251 80.939C104.985 76.1886 101.678 67.1794 96.5282 65.8382C95.667 65.6393 94.7735 65.624 93.906 65.7932C93.0385 65.9625 92.2163 66.3125 91.493 66.8204C90.7697 67.3284 90.1614 67.983 89.7078 68.7415C89.2541 69.5001 88.9653 70.3457 88.8601 71.2233C88.2868 74.9396 90.7233 78.8709 93.1907 81.4611C96.088 84.4096 104.811 87.7574 104.821 87.7676Z" fill="#2E353A"/>
<path d="M99.6304 246.597C99.6304 246.597 99.2823 243.884 98.883 239.174C98.4838 234.465 98.0026 227.729 97.7876 219.63C97.675 215.535 97.634 211.194 97.7159 206.546C97.7159 204.212 97.8388 201.878 97.9309 199.38C98.0128 198.172 98.105 196.943 98.1869 195.715C98.2688 194.486 98.4735 193.196 98.6066 191.927C99.3084 186.759 100.289 181.632 101.545 176.57C102.804 171.4 104.237 166.209 105.64 161.029C107.043 155.849 108.425 150.668 109.51 145.509C110.609 140.482 111.351 135.385 111.731 130.254C111.995 125.448 111.831 120.627 111.24 115.85C110.734 111.553 109.975 107.29 108.967 103.083C108.066 99.1518 107.012 95.6197 106.05 92.4972C105.087 89.3746 104.094 86.6821 103.275 84.4912C101.606 80.089 100.47 77.6523 100.47 77.6523C100.47 77.6523 101.657 80.0685 103.418 84.4298C104.299 86.6104 105.312 89.2825 106.377 92.3846C107.442 95.4866 108.548 99.0187 109.53 102.94C110.636 107.152 111.494 111.425 112.1 115.737C112.805 120.563 113.079 125.441 112.919 130.316C112.646 135.521 112.006 140.7 111.005 145.816C109.981 151.037 108.752 156.279 107.452 161.5C106.152 166.721 104.841 171.922 103.705 177.062C102.576 182.069 101.722 187.134 101.146 192.234C101.043 193.473 100.859 194.65 100.818 195.899C100.777 197.148 100.695 198.366 100.634 199.575C100.634 201.909 100.562 204.325 100.634 206.608C100.634 211.205 100.787 215.545 100.992 219.548C101.371 227.565 102.016 234.23 102.497 238.867C102.978 243.505 103.388 246.146 103.388 246.146C103.423 246.389 103.411 246.636 103.351 246.874C103.291 247.112 103.185 247.336 103.038 247.532C102.892 247.729 102.708 247.895 102.498 248.021C102.287 248.147 102.054 248.23 101.811 248.266C101.568 248.301 101.321 248.289 101.083 248.229C100.845 248.169 100.622 248.063 100.425 247.916C100.228 247.77 100.062 247.586 99.9363 247.375C99.8105 247.165 99.7274 246.932 99.6918 246.689V246.638L99.6304 246.597Z" fill="#2E353A"/>
<path d="M111.506 314.29H68.1595L55.9663 243.301H123.7L111.506 314.29Z" fill="#2E353A"/>
<path d="M187.86 321.006C239.918 321.006 282.12 278.805 282.12 226.747C282.12 174.689 239.918 132.487 187.86 132.487C135.802 132.487 93.6006 174.689 93.6006 226.747C93.6006 278.805 135.802 321.006 187.86 321.006Z" fill="#2DA94F"/>
<path d="M187.86 321.478C169.124 321.478 150.809 315.922 135.23 305.513C119.652 295.104 107.51 280.309 100.34 262.999C93.1704 245.689 91.2945 226.642 94.9497 208.266C98.6049 189.89 107.627 173.011 120.875 159.763C134.124 146.514 151.003 137.492 169.379 133.837C187.755 130.182 206.802 132.058 224.112 139.228C241.421 146.398 256.216 158.539 266.626 174.118C277.035 189.696 282.59 208.011 282.59 226.747C282.561 251.862 272.571 275.94 254.812 293.699C237.053 311.458 212.975 321.448 187.86 321.478ZM187.86 132.948C169.308 132.948 151.173 138.449 135.748 148.756C120.323 159.063 108.301 173.712 101.201 190.852C94.1017 207.991 92.2441 226.851 95.8634 245.046C99.4827 263.242 108.416 279.955 121.534 293.073C134.652 306.191 151.366 315.124 169.561 318.744C187.756 322.363 206.616 320.505 223.755 313.406C240.895 306.307 255.544 294.284 265.851 278.859C276.158 263.434 281.659 245.299 281.659 226.747C281.634 201.878 271.744 178.034 254.159 160.448C236.573 142.863 212.729 132.973 187.86 132.948Z" fill="#2E353A"/>
<path d="M162.89 288.737C154.916 285.795 147.608 281.295 141.391 275.499C135.119 269.471 130.259 262.129 127.16 254C123.646 244.886 121.905 235.184 122.031 225.416C121.964 217.076 123.435 208.795 126.372 200.989C129.026 193.828 133.003 187.229 138.094 181.537C148.155 170.505 161.165 162.586 175.585 158.717C182.66 156.819 189.953 155.855 197.279 155.85C203.357 155.828 209.415 156.55 215.318 158C221.022 159.412 226.481 161.672 231.514 164.706C236.488 167.7 240.944 171.478 244.711 175.896C248.652 180.642 251.657 186.093 253.566 191.959C255.777 198.637 256.867 205.636 256.791 212.67C256.715 226.203 251.868 239.276 243.103 249.588C239.315 253.914 234.813 257.56 229.794 260.368C225.475 262.873 220.587 264.234 215.594 264.32C212.167 264.361 208.821 263.283 206.063 261.248C204.67 260.226 203.537 258.891 202.753 257.351C201.969 255.812 201.556 254.11 201.548 252.382C195.706 260.614 187.802 264.729 177.837 264.729C169.722 264.729 163.238 261.955 158.385 256.406C153.533 250.857 151.116 244.032 151.137 235.93C151.159 229.767 152.232 223.653 154.311 217.85C156.344 211.984 159.258 206.461 162.951 201.47C166.617 196.548 171.3 192.474 176.68 189.522C182.046 186.491 188.106 184.904 194.269 184.915C198.55 184.872 202.774 185.903 206.554 187.915C210.237 189.869 213.224 192.916 215.103 196.638L215.901 194.037C216.266 192.945 216.884 191.954 217.705 191.146C218.526 190.338 219.526 189.735 220.624 189.387C221.721 189.039 222.886 188.955 224.022 189.142C225.159 189.329 226.235 189.782 227.163 190.464C227.755 190.948 228.225 191.564 228.535 192.263C228.844 192.962 228.985 193.724 228.944 194.488C228.945 195.219 228.824 195.946 228.586 196.638L215.881 238.869C214.448 243.701 213.731 247.014 213.731 248.809C213.731 251.854 215.284 253.372 218.389 253.365C222.443 253.365 226.426 251.502 230.337 247.775C234.55 243.571 237.802 238.503 239.868 232.92C242.3 226.813 243.544 220.298 243.533 213.724C243.593 207.933 242.747 202.168 241.025 196.638C239.597 191.869 237.318 187.398 234.299 183.441C231.432 179.836 227.969 176.747 224.061 174.309C220.159 171.852 215.901 170.011 211.438 168.852C206.865 167.66 202.158 167.058 197.432 167.061C191.424 167.068 185.445 167.912 179.67 169.569C173.74 171.266 168.088 173.814 162.89 177.135C157.648 180.445 152.902 184.481 148.792 189.123C144.554 194.011 141.251 199.636 139.046 205.719C136.595 212.35 135.367 219.37 135.422 226.44C135.289 234.814 136.809 243.133 139.896 250.918C142.53 257.67 146.714 263.709 152.11 268.548C157.311 273.074 163.32 276.579 169.821 278.878C176.674 281.304 183.897 282.516 191.167 282.461C198.938 282.475 206.665 281.298 214.079 278.97C214.827 278.717 215.613 278.596 216.403 278.612C217.154 278.581 217.902 278.714 218.597 279C219.291 279.286 219.915 279.72 220.426 280.27C221.408 281.29 221.956 282.652 221.952 284.069C222.049 285.208 221.73 286.343 221.055 287.266C220.379 288.188 219.392 288.834 218.277 289.085C209.024 291.916 199.409 293.392 189.733 293.467C180.572 293.535 171.476 291.933 162.89 288.737ZM195.241 248.113C199.102 245.328 201.971 241.382 203.432 236.852L211.622 208.042L211.079 206.875C210.559 205.926 209.93 205.039 209.206 204.234C208.227 203.109 207.162 202.062 206.022 201.101C204.557 199.922 202.892 199.013 201.108 198.419C196.473 196.778 191.388 196.954 186.877 198.91C184.425 199.967 182.171 201.435 180.212 203.251C178.168 205.155 176.351 207.288 174.797 209.609C173.173 212.011 171.801 214.574 170.701 217.257C169.599 219.93 168.746 222.699 168.152 225.529C167.566 228.22 167.264 230.965 167.251 233.719C167.24 235.485 167.346 237.25 167.569 239.002C167.759 240.554 168.102 242.083 168.592 243.568C169.026 244.912 169.642 246.19 170.425 247.366C171.147 248.454 172.055 249.407 173.107 250.181C174.227 251 175.486 251.607 176.824 251.973C178.396 252.41 180.024 252.621 181.656 252.597C186.556 252.65 191.335 251.073 195.241 248.113Z" fill="#2E353A"/>
<path d="M316.048 147.476C316.048 147.476 312.976 153.188 312.526 153.987C312.076 154.785 310.427 159.106 310.919 160.13C311.41 161.153 311.881 161.737 312.854 161.901C313.826 162.064 314.625 163.836 316.232 164.153C317.244 164.353 318.272 164.463 319.303 164.481C319.556 164.666 319.848 164.792 320.157 164.847C320.466 164.902 320.783 164.885 321.085 164.798C322.047 164.481 322.856 163.999 323.501 161.256C323.895 159.897 324.003 158.471 323.818 157.068L323.532 151.53L316.048 147.476Z" fill="white"/>
<path d="M320.511 165.391C320.025 165.385 319.55 165.243 319.139 164.982C318.128 164.955 317.121 164.842 316.129 164.644C315.209 164.393 314.386 163.873 313.764 163.149C313.488 162.819 313.137 162.56 312.741 162.392C312.214 162.274 311.727 162.025 311.324 161.666C310.921 161.308 310.615 160.853 310.437 160.344C309.772 159.024 311.707 154.324 312.065 153.731C312.536 152.942 315.546 147.291 315.576 147.23C315.644 147.111 315.754 147.024 315.884 146.984C316.008 146.934 316.148 146.934 316.273 146.984L323.746 151.028C323.823 151.072 323.887 151.134 323.934 151.209C323.98 151.284 324.007 151.37 324.012 151.458L324.299 156.986C324.486 158.438 324.371 159.912 323.961 161.317C323.326 164.05 322.497 164.808 321.207 165.238C320.985 165.325 320.75 165.377 320.511 165.391ZM316.262 148.171C315.525 149.543 313.375 153.567 312.966 154.253C312.403 155.184 311.051 159.249 311.369 159.884C311.881 160.907 312.27 161.276 312.935 161.388C313.541 161.568 314.079 161.924 314.481 162.412C314.964 162.995 315.609 163.422 316.334 163.641C317.31 163.83 318.299 163.936 319.293 163.958C319.411 163.958 319.527 163.998 319.62 164.071C319.804 164.204 320.015 164.295 320.239 164.335C320.462 164.376 320.691 164.366 320.91 164.306C321.617 164.071 322.354 163.825 322.958 161.133C323.33 159.843 323.438 158.492 323.275 157.16L322.999 151.837L316.262 148.171Z" fill="#2E353A"/>
<path d="M333.8 301.299C333.8 301.299 329.429 308.414 329.429 310.134C329.429 311.854 335.449 315.018 338.029 316.164C340.608 317.311 345.195 318.212 348.922 318.744C352.648 319.276 360.388 320.792 358.136 317.884C355.883 314.977 342.042 307.319 341.468 306.407C340.758 305.557 339.962 304.781 339.093 304.094L333.8 301.299Z" fill="white"/>
<path d="M356.272 320.115C354.087 320.027 351.911 319.784 349.761 319.389L348.839 319.245C343.639 318.447 339.932 317.566 337.823 316.624C337.455 316.46 328.917 312.642 328.917 310.134C328.917 308.321 332.909 301.769 333.36 301.022C333.43 300.913 333.537 300.834 333.662 300.8C333.787 300.766 333.92 300.779 334.035 300.838L339.328 303.643C340.278 304.37 341.141 305.204 341.898 306.131C342.144 306.417 344.396 307.83 346.577 309.202C351.225 312.099 356.999 315.713 358.494 317.576C359.036 318.252 359.169 318.836 358.883 319.317C358.596 319.798 357.695 320.115 356.272 320.115ZM333.954 301.974C332.295 304.718 329.91 309.048 329.91 310.164C329.91 311.28 334.291 313.983 338.202 315.723C340.25 316.624 343.854 317.474 348.972 318.262L349.884 318.406C351.767 318.703 357.5 319.614 357.971 318.815C357.971 318.815 357.971 318.61 357.664 318.232C356.282 316.501 350.344 312.785 346.003 310.041C342.512 307.861 341.263 307.062 341.007 306.683C340.328 305.873 339.566 305.135 338.735 304.482L333.954 301.974Z" fill="#2E353A"/>
<path d="M340.649 312.51L342.185 314.803C343.836 317.309 346.079 319.369 348.716 320.802C352.811 323.014 359.118 325.542 364.626 324.027C373.656 321.539 350.928 307.831 350.928 307.831C350.928 307.831 342.83 313.462 340.649 312.51Z" fill="white"/>
<path d="M361.043 325C356.497 325 351.829 323.096 348.471 321.253C345.764 319.784 343.459 317.675 341.755 315.11L340.219 312.807C340.155 312.719 340.121 312.613 340.121 312.505C340.121 312.396 340.155 312.29 340.219 312.203C340.291 312.117 340.389 312.057 340.498 312.031C340.606 312.006 340.72 312.015 340.823 312.059C342.144 312.633 347.334 309.694 350.6 307.432C350.682 307.376 350.778 307.347 350.877 307.347C350.975 307.347 351.072 307.376 351.153 307.432C352.863 308.456 367.851 317.67 367.206 322.338C367.063 323.362 366.182 324.14 364.729 324.549C363.526 324.864 362.286 325.016 361.043 325ZM341.652 313.083L342.605 314.527C344.214 316.956 346.393 318.956 348.952 320.352C353.129 322.604 359.19 324.99 364.493 323.536C366.09 323.085 366.193 322.389 366.223 322.164C366.684 318.816 355.607 311.291 350.938 308.445C349.31 309.531 344.417 312.755 341.652 313.083Z" fill="#2E353A"/>
<path d="M343.25 313.595C345.737 317.358 349.506 320.09 353.856 321.283C361.278 323.403 363.408 322.87 364.995 320.751" fill="white"/>
<path d="M360.94 323.146C358.485 323.007 356.058 322.546 353.723 321.774C349.235 320.562 345.351 317.742 342.809 313.85C342.775 313.792 342.752 313.728 342.742 313.662C342.733 313.595 342.737 313.528 342.754 313.463C342.771 313.398 342.801 313.337 342.842 313.284C342.883 313.231 342.935 313.187 342.993 313.154C343.112 313.086 343.252 313.067 343.384 313.102C343.516 313.136 343.63 313.221 343.7 313.338C346.134 316.972 349.787 319.615 353.999 320.791C361.237 322.839 363.213 322.327 364.585 320.443C364.668 320.337 364.789 320.267 364.923 320.247C365.056 320.228 365.192 320.262 365.302 320.341C365.41 320.422 365.482 320.543 365.501 320.678C365.52 320.812 365.485 320.949 365.404 321.057C364.903 321.76 364.228 322.322 363.446 322.687C362.664 323.053 361.801 323.211 360.94 323.146Z" fill="#2E353A"/>
<path d="M329.992 308.824C329.992 308.824 338.182 314.69 342.185 314.803L329.992 308.824Z" fill="white"/>
<path d="M342.144 315.315C338.049 315.202 330.012 309.479 329.674 309.244C329.566 309.162 329.494 309.042 329.473 308.908C329.452 308.774 329.484 308.638 329.562 308.527C329.599 308.472 329.648 308.425 329.704 308.389C329.76 308.353 329.823 308.328 329.889 308.317C329.955 308.306 330.022 308.307 330.087 308.322C330.152 308.337 330.214 308.365 330.268 308.404C330.35 308.466 338.387 314.188 342.175 314.291C342.311 314.296 342.44 314.355 342.534 314.454C342.628 314.554 342.679 314.686 342.676 314.823C342.674 314.89 342.658 314.957 342.63 315.018C342.601 315.079 342.561 315.134 342.512 315.179C342.463 315.225 342.405 315.26 342.341 315.284C342.278 315.307 342.211 315.317 342.144 315.315Z" fill="#2E353A"/>
<path d="M312.209 149.441C312.209 149.441 319.478 161.491 321.034 164.286C322.59 167.081 342.205 189.512 349.986 208.821C357.767 228.129 365.251 245.554 364.933 251.164C364.616 256.775 339.073 304.094 339.073 304.094L333.78 301.299C333.78 301.299 341.868 256.764 340.946 252.096C340.025 247.428 311.431 201.03 311.431 201.03C311.431 201.03 298.04 191.693 292.439 180.79" fill="#2E353A"/>
<path d="M313.243 179.55C313.243 179.55 309.199 188.263 309.199 189.512C309.199 190.761 331.927 257.706 338.469 272.96C342.61 282.732 346.245 292.71 349.362 302.854C349.362 302.854 351.86 305.926 349.986 309.079C348.113 312.232 340.649 314.372 339.093 311.567C337.537 308.762 322.272 294.163 315.741 279.502C309.209 264.841 299.862 239.953 294.559 230.616C287.573 218.661 281.336 206.284 275.885 193.556C269.026 177.37 261.972 159.822 261.972 159.822C271.217 160.594 280.524 159.551 289.368 156.751C303.701 152.082 309.844 143.145 309.844 143.145C309.844 143.145 313.488 152.461 314.42 154.263" fill="#2E353A"/>
<path d="M315.382 205.841C315.311 205.84 315.243 205.818 315.184 205.778C315.126 205.738 315.081 205.682 315.055 205.616L307.888 186.983C307.863 186.914 307.86 186.839 307.878 186.768C307.896 186.697 307.936 186.633 307.99 186.584L316.017 179.704C316.085 179.641 316.175 179.605 316.268 179.605C316.361 179.605 316.45 179.641 316.519 179.704C316.581 179.77 316.616 179.858 316.616 179.95C316.616 180.041 316.581 180.129 316.519 180.195L308.676 186.922L315.751 205.35C315.785 205.437 315.783 205.534 315.747 205.62C315.711 205.706 315.642 205.774 315.556 205.81L315.382 205.841Z" fill="white"/>
<path d="M308.206 187.198C308.118 187.199 308.034 187.166 307.97 187.106C307.935 187.073 307.906 187.034 307.887 186.99C307.867 186.946 307.857 186.898 307.857 186.85C307.857 186.799 307.857 181.178 305.339 177.636C304.714 176.725 304.213 176.008 303.793 175.425C302.483 173.561 302.083 172.998 301.848 172.067C301.685 170.977 301.685 169.87 301.848 168.78C301.865 168.69 301.916 168.609 301.99 168.554C302.064 168.499 302.155 168.474 302.247 168.483C302.293 168.49 302.337 168.505 302.377 168.528C302.417 168.552 302.452 168.583 302.48 168.621C302.507 168.658 302.527 168.7 302.538 168.745C302.549 168.79 302.551 168.837 302.544 168.883C302.4 169.884 302.4 170.901 302.544 171.903C302.749 172.701 303.097 173.193 304.387 175.025C304.796 175.609 305.308 176.326 305.933 177.237C308.206 180.503 308.523 185.191 308.574 186.533L323.122 185.97C323.215 185.969 323.304 186.004 323.372 186.066C323.441 186.129 323.483 186.215 323.491 186.307C323.493 186.353 323.487 186.4 323.471 186.443C323.455 186.486 323.431 186.526 323.399 186.56C323.367 186.593 323.329 186.62 323.287 186.638C323.245 186.656 323.199 186.666 323.153 186.666L308.246 187.239L308.206 187.198Z" fill="white"/>
<path d="M356.958 253.478C350.477 253.478 342.246 249.28 341.878 249.096C341.796 249.052 341.735 248.978 341.708 248.89C341.682 248.802 341.691 248.706 341.734 248.625C341.755 248.584 341.784 248.547 341.818 248.517C341.853 248.487 341.894 248.464 341.938 248.45C341.981 248.435 342.028 248.43 342.074 248.434C342.12 248.437 342.164 248.45 342.205 248.471C342.297 248.523 351.655 253.293 358.064 252.73C358.11 252.726 358.157 252.731 358.202 252.746C358.246 252.76 358.287 252.783 358.323 252.814C358.358 252.844 358.387 252.882 358.407 252.924C358.428 252.966 358.44 253.011 358.442 253.058C358.447 253.104 358.442 253.15 358.428 253.194C358.414 253.237 358.392 253.278 358.363 253.313C358.333 253.349 358.297 253.378 358.256 253.399C358.215 253.42 358.171 253.433 358.125 253.437C357.746 253.467 357.357 253.478 356.958 253.478Z" fill="white"/>
<path d="M356.088 258.883H356.006C350.262 257.44 343.812 252.157 343.536 251.932C343.473 251.865 343.438 251.777 343.438 251.686C343.438 251.595 343.473 251.507 343.536 251.44C343.565 251.405 343.6 251.375 343.641 251.353C343.681 251.331 343.725 251.317 343.771 251.312C343.817 251.308 343.863 251.312 343.907 251.325C343.951 251.338 343.992 251.36 344.027 251.389C344.089 251.44 350.631 256.805 356.221 258.197C356.265 258.209 356.307 258.23 356.343 258.258C356.38 258.286 356.41 258.321 356.433 258.361C356.456 258.401 356.471 258.445 356.477 258.491C356.482 258.537 356.479 258.583 356.466 258.627C356.447 258.71 356.397 258.782 356.327 258.829C356.257 258.876 356.171 258.896 356.088 258.883Z" fill="white"/>
<path d="M307.919 181.752C307.863 181.752 307.808 181.739 307.759 181.714C307.709 181.69 307.666 181.653 307.632 181.609C307.605 181.571 307.586 181.528 307.576 181.482C307.566 181.437 307.566 181.389 307.574 181.344C307.583 181.298 307.601 181.254 307.626 181.215C307.652 181.176 307.686 181.143 307.724 181.117C309.107 180.155 311.297 178.302 311.297 177.391C311.297 176.787 310.55 176.07 309.752 175.343C308.868 174.605 308.137 173.701 307.602 172.682C307.079 171.463 305.206 166.682 305.554 165.515C305.568 165.471 305.59 165.431 305.62 165.396C305.65 165.36 305.686 165.332 305.727 165.311C305.768 165.29 305.813 165.277 305.859 165.274C305.904 165.27 305.951 165.275 305.994 165.29C306.084 165.32 306.157 165.384 306.199 165.469C306.242 165.553 306.249 165.651 306.219 165.74C306.004 166.365 307.12 169.835 308.216 172.374C308.717 173.3 309.391 174.12 310.202 174.79C311.154 175.702 311.973 176.48 311.973 177.381C311.973 178.957 308.492 181.404 308.093 181.681C308.042 181.719 307.982 181.744 307.919 181.752Z" fill="white"/>
<path d="M273.806 183.759C273.733 183.762 273.66 183.741 273.598 183.7C273.537 183.659 273.49 183.599 273.465 183.529C273.44 183.459 273.438 183.384 273.459 183.313C273.479 183.242 273.522 183.179 273.581 183.134L276.448 180.841C279.202 178.65 280.901 173.05 280.922 172.989C280.95 172.9 281.012 172.826 281.094 172.782C281.176 172.738 281.272 172.727 281.362 172.753C281.451 172.782 281.525 172.843 281.569 172.926C281.613 173.008 281.623 173.104 281.597 173.193C281.526 173.429 279.806 179.06 276.888 181.384L274.021 183.677C273.962 183.729 273.886 183.758 273.806 183.759Z" fill="white"/>
<path d="M341.867 312.96C341.816 312.958 341.766 312.946 341.72 312.923C341.674 312.9 341.633 312.867 341.601 312.827C337.936 308.334 334.626 303.562 331.701 298.556C327.739 291.471 316.345 272.091 316.222 271.937C315.166 269.605 314.383 267.159 313.887 264.648C313.816 264.259 313.765 263.901 313.713 263.624C313.335 261.044 313.171 259.979 309.741 257.768C306.311 255.557 306.096 251.707 305.81 247.581C305.748 246.609 305.677 245.606 305.564 244.613C305.103 240.517 294.231 222.089 286.297 208.698C284.495 205.627 282.857 202.883 281.526 200.6C274.421 188.376 269.507 172.303 269.455 172.139C269.43 172.049 269.44 171.953 269.484 171.871C269.528 171.789 269.602 171.727 269.691 171.699C269.734 171.685 269.781 171.68 269.826 171.684C269.872 171.689 269.916 171.702 269.956 171.724C269.997 171.746 270.032 171.776 270.06 171.812C270.088 171.848 270.109 171.89 270.121 171.934C270.172 172.098 275.066 188.1 282.13 200.242C283.461 202.525 285.099 205.299 286.901 208.34C294.876 221.803 305.789 240.251 306.26 244.531C306.373 245.554 306.445 246.578 306.516 247.541C306.793 251.636 307.028 255.198 310.12 257.185C313.816 259.56 314 260.799 314.41 263.512C314.41 263.849 314.512 264.197 314.573 264.587C315.06 267.023 315.822 269.397 316.846 271.661C316.938 271.835 328.343 291.215 332.316 298.279C335.222 303.245 338.508 307.979 342.144 312.438C342.173 312.474 342.195 312.515 342.208 312.559C342.221 312.603 342.225 312.649 342.221 312.694C342.216 312.74 342.202 312.784 342.18 312.825C342.158 312.865 342.128 312.901 342.093 312.929C342.023 312.964 341.944 312.975 341.867 312.96Z" fill="white"/>
<path d="M261.972 159.822C261.972 159.822 262.627 167.071 265.493 169.364C268.36 171.657 276.96 173.664 288.713 171.412C300.466 169.159 313.366 159.126 314.512 155.645C315.659 152.165 309.823 143.155 309.823 143.155C309.823 143.155 303.046 152.779 284.126 155.932C265.207 159.085 261.972 159.822 261.972 159.822Z" fill="white"/>
<path d="M278.751 172.896C271.82 172.896 267.07 171.289 265.166 169.763C262.166 167.358 261.49 160.181 261.46 159.874C261.449 159.752 261.482 159.63 261.553 159.53C261.625 159.431 261.73 159.36 261.849 159.331C261.982 159.331 265.319 158.502 284.044 155.379C302.472 152.308 309.332 142.91 309.403 142.818C309.451 142.751 309.515 142.697 309.587 142.66C309.66 142.623 309.741 142.603 309.823 142.603C309.907 142.604 309.989 142.627 310.062 142.668C310.135 142.709 310.197 142.767 310.243 142.838C310.857 143.78 316.181 152.195 314.993 155.768C313.734 159.536 300.537 169.579 288.805 171.872C285.494 172.536 282.127 172.878 278.751 172.896ZM262.534 160.232C262.729 161.809 263.558 167.153 265.811 168.965C268.37 171.012 276.571 173.224 288.61 170.869C300.445 168.555 313.007 158.512 314.031 155.441C314.84 153.004 311.533 146.851 309.772 144.005C307.949 146.186 300.64 153.659 284.177 156.393C269.005 158.932 263.906 159.894 262.534 160.232Z" fill="#2E353A"/>
<path d="M337.537 89.5604C332.858 86.489 296.432 58.1098 293.002 56.8608C289.572 55.6118 282.764 56.8608 282.764 56.8608C282.764 56.8608 261.654 59.4407 257.231 61.2221C256.811 61.3859 247.3 66.8529 246.993 67.1395C243.564 69.9447 228.565 76.845 224.532 85.5676C219.955 95.4369 260.169 154.857 262.043 159.833C263.916 164.808 273.735 166.037 282.764 164.788C291.794 163.539 299.718 161.717 306.26 154.233C307.446 152.742 308.44 151.108 309.219 149.37C310.154 147.427 310.392 145.222 309.895 143.125C307.56 133.399 301.602 105.357 297.671 86.8166C304.223 91.0448 317.849 99.6344 325.773 102.665C336.359 106.76 344.457 103.914 344.457 100.484C344.457 97.0545 342.205 92.6727 337.537 89.5604Z" fill="white"/>
<path d="M324.893 95.6108C318.651 94.9948 312.606 93.0878 307.141 90.0107C307.141 90.0107 315.239 86.2739 315.546 84.4004C315.853 82.5269 304.335 84.0933 305.892 83.4688C307.448 82.8442 309.628 81.2881 305.892 81.2881C302.913 81.0922 299.978 80.4645 297.179 79.4248L297.599 86.7858C301.162 89.0893 306.813 92.6623 312.485 95.9384C317.819 98.7431 323.313 101.235 328.937 103.402C328.937 103.402 335.786 96.8598 324.893 95.6108Z" fill="#2DA94F"/>
<g style="mix-blend-mode:multiply">
<path d="M282.693 164.778L283.85 164.614C286.348 163.406 290.576 162.648 294.692 161.624C300.916 160.068 294.067 160.068 283.788 154.775C273.51 149.482 269.455 141.702 260.119 130.491C250.782 119.281 247.045 113.67 248.918 112.432C250.792 111.193 245.182 111.183 243.001 109.934C240.82 108.685 246.072 108.695 250.475 104.333C254.877 99.9722 242.059 105.265 240.82 104.958C239.581 104.651 242.059 100.597 242.059 100.597L233.029 109.934L254.826 147.302L256.075 148.233L257.508 150.281L261.603 159.085C261.767 159.392 261.879 159.648 261.951 159.822C263.835 164.808 273.663 166.037 282.693 164.778Z" fill="#2DA94F"/>
</g>
<path d="M241.414 77.7156C248.304 76.6918 267.51 87.6463 267.51 87.6463C256.955 80.4798 247.721 73.7638 241.404 70.7334L229.763 78.9237L228.965 79.671C230.316 79.4048 235.497 78.5551 241.414 77.7156Z" fill="#2DA94F"/>
<path opacity="0.5" d="M324.893 95.6108C318.651 94.9948 312.606 93.0878 307.141 90.0107C307.141 90.0107 315.239 86.2739 315.546 84.4004C315.853 82.5269 304.335 84.0933 305.892 83.4688C307.448 82.8442 309.628 81.2881 305.892 81.2881C302.913 81.0922 299.978 80.4645 297.179 79.4248L297.599 86.7858C301.162 89.0893 306.813 92.6623 312.485 95.9384C317.819 98.7431 323.313 101.235 328.937 103.402C328.937 103.402 335.786 96.8598 324.893 95.6108Z" fill="white"/>
<path opacity="0.5" d="M282.693 164.778L283.85 164.614C286.348 163.406 290.576 162.648 294.692 161.624C300.916 160.068 294.067 160.068 283.788 154.775C273.51 149.482 269.455 141.702 260.119 130.491C250.782 119.281 247.045 113.67 248.918 112.432C250.792 111.193 245.182 111.183 243.001 109.934C240.82 108.685 246.072 108.695 250.475 104.333C254.877 99.9722 242.059 105.265 240.82 104.958C239.581 104.651 242.059 100.597 242.059 100.597L233.029 109.934L254.826 147.302L256.075 148.233L257.508 150.281L261.603 159.085C261.767 159.392 261.879 159.648 261.951 159.822C263.835 164.808 273.663 166.037 282.693 164.778Z" fill="white"/>
<path opacity="0.5" d="M241.414 77.7156C248.304 76.6918 267.51 87.6463 267.51 87.6463C256.955 80.4798 247.721 73.7638 241.404 70.7334L229.763 78.9237L228.965 79.671C230.316 79.4048 235.497 78.5551 241.414 77.7156Z" fill="white"/>
<path d="M276.141 165.75C269.24 165.75 263.026 164.102 261.49 160.007C261.04 158.799 258.01 153.864 254.17 147.66C237.862 121.206 220.734 92.3759 224 85.3426C227.071 78.7085 236.152 73.2312 242.161 69.607C243.693 68.737 245.173 67.7799 246.594 66.7404C246.963 66.4436 256.494 60.9561 257.006 60.7513C261.45 58.9597 281.802 56.4617 282.673 56.3593C282.928 56.3081 289.665 55.1001 293.177 56.3593C295.449 57.1886 311.021 68.9723 323.532 78.4423C330.309 83.5612 336.155 88.0044 337.813 89.1101C343.035 92.5909 344.898 97.2389 344.898 100.433C344.86 101.026 344.676 101.6 344.362 102.104C344.047 102.608 343.612 103.026 343.096 103.32C340.076 105.368 333.473 106.136 325.518 103.095C319.959 100.965 310.581 95.7135 298.357 87.8611C302.452 107.364 308.073 133.634 310.315 142.971C310.842 145.185 310.593 147.513 309.608 149.564C308.808 151.351 307.775 153.024 306.537 154.54C299.698 162.351 291.375 164.071 282.734 165.259C280.55 165.574 278.347 165.738 276.141 165.75ZM288.836 56.82C286.822 56.8504 284.813 57.0318 282.826 57.3626C282.58 57.3626 261.705 59.9528 257.385 61.6932C256.822 61.9492 247.7 67.2011 247.239 67.539C245.782 68.6102 244.261 69.5914 242.684 70.4773C236.787 74.04 227.88 79.4251 224.931 85.834C221.614 93.0005 243.359 128.229 255.041 147.179C259.207 153.936 261.961 158.441 262.453 159.7C264.265 164.532 274.175 165.484 282.621 164.317C291.067 163.15 299.196 161.481 305.8 153.936C306.96 152.482 307.931 150.885 308.687 149.186C309.567 147.35 309.791 145.269 309.322 143.289C307.028 133.747 301.254 106.566 297.098 86.9806C297.077 86.8806 297.087 86.7768 297.125 86.6822C297.164 86.5876 297.229 86.5063 297.313 86.4482C297.396 86.3932 297.494 86.3639 297.594 86.3639C297.694 86.3639 297.792 86.3932 297.876 86.4482C310.55 94.6385 320.235 100.095 325.886 102.245C333.442 105.143 339.81 104.457 342.513 102.593C342.885 102.383 343.202 102.088 343.439 101.733C343.675 101.377 343.825 100.97 343.874 100.546C343.874 97.6177 342.134 93.3281 337.25 90.0724C335.561 88.9463 329.705 84.5133 322.917 79.3739C311.113 70.4466 294.958 58.2124 292.828 57.4343C291.54 57.0131 290.191 56.8057 288.836 56.82Z" fill="#2E353A"/>
<path d="M229.466 79.1895C229.466 79.1895 225.729 83.2846 224.276 85.1786C216.474 95.2014 191.648 127.317 191.371 129.908C191.095 132.498 192.272 134.238 198.343 136.572C204.414 138.907 245.028 98.2113 245.028 98.2113" fill="white"/>
<g style="mix-blend-mode:multiply" opacity="0.8">
<path d="M229.528 79.3125L229.006 79.6503C228.248 80.4899 226.61 82.3224 225.341 83.8274L206.483 108.562C206.483 108.562 205.899 109.217 204.978 110.302C197.903 119.731 191.74 128.239 191.361 129.754C191.361 129.805 191.361 129.857 191.361 129.898C191.116 132.344 192.303 134.208 198.343 136.532C199.418 136.941 201.548 136.02 204.343 134.228C202.923 133.943 201.566 133.401 200.34 132.631C196.91 130.45 199.715 128.27 199.715 128.27C199.715 128.27 204.169 130.051 208.561 131.249C209.472 130.563 210.424 129.826 211.397 129.048C210.461 128.435 209.575 127.75 208.745 127C205.008 123.581 201.896 120.151 201.896 120.151L230.439 80.3158L229.528 79.3125Z" fill="#2DA94F"/>
</g>
<path opacity="0.5" d="M229.528 79.3125L229.006 79.6503C228.248 80.4899 226.61 82.3224 225.341 83.8274L206.483 108.562C206.483 108.562 205.899 109.217 204.978 110.302C197.903 119.731 191.74 128.239 191.361 129.754C191.361 129.805 191.361 129.857 191.361 129.898C191.116 132.344 192.303 134.208 198.343 136.532C199.418 136.941 201.548 136.02 204.343 134.228C202.923 133.943 201.566 133.401 200.34 132.631C196.91 130.45 199.715 128.27 199.715 128.27C199.715 128.27 204.169 130.051 208.561 131.249C209.472 130.563 210.424 129.826 211.397 129.048C210.461 128.435 209.575 127.75 208.745 127C205.008 123.581 201.896 120.151 201.896 120.151L230.439 80.3158L229.528 79.3125Z" fill="white"/>
<path d="M198.814 137.166C198.584 137.169 198.355 137.131 198.139 137.054C192.487 134.873 190.501 132.958 190.839 129.887C191.115 127.338 211.642 100.607 223.846 84.9021C225.3 83.0389 228.913 79.0564 229.067 78.8925C229.111 78.8381 229.165 78.7932 229.227 78.7606C229.288 78.728 229.356 78.7083 229.426 78.7028C229.495 78.6973 229.565 78.706 229.631 78.7285C229.697 78.751 229.758 78.7868 229.81 78.8336C229.861 78.8804 229.903 78.9373 229.932 79.0008C229.961 79.0643 229.977 79.1331 229.978 79.2028C229.979 79.2726 229.966 79.3419 229.94 79.4065C229.914 79.4711 229.874 79.5296 229.825 79.5785C229.825 79.5785 226.078 83.6736 224.655 85.5369C204.937 110.906 192.057 128.362 191.894 130C191.658 132.18 192.672 133.88 198.548 136.142C202.776 137.77 228.453 114.152 244.68 97.8837C244.776 97.7873 244.907 97.7332 245.043 97.7332C245.18 97.7332 245.31 97.7873 245.407 97.8837C245.503 97.9801 245.557 98.1108 245.557 98.2471C245.557 98.3835 245.503 98.5142 245.407 98.6106C241.342 102.624 206.656 137.166 198.814 137.166Z" fill="#2E353A"/>
<path d="M311.645 77.3262L297.599 86.7859C299.647 86.4992 309.352 83.0593 309.352 83.0593" fill="white"/>
<path d="M297.599 87.298C297.496 87.2996 297.395 87.2688 297.311 87.2101C297.226 87.1513 297.162 87.0675 297.128 86.9704C297.085 86.8638 297.08 86.7457 297.113 86.6357C297.147 86.5258 297.217 86.4307 297.312 86.3664L311.369 76.9066C311.424 76.8681 311.486 76.841 311.551 76.8268C311.617 76.8126 311.684 76.8117 311.75 76.8241C311.816 76.8365 311.879 76.862 311.934 76.899C311.99 76.936 312.038 76.9839 312.075 77.0397C312.15 77.1542 312.177 77.2933 312.15 77.4273C312.123 77.5613 312.045 77.6794 311.932 77.7564L300.414 85.5166C303.946 84.4314 309.116 82.6091 309.188 82.5784C309.324 82.5336 309.472 82.5445 309.6 82.6089C309.727 82.6732 309.824 82.7856 309.869 82.9213C309.914 83.0571 309.903 83.2051 309.838 83.3328C309.774 83.4605 309.662 83.5574 309.526 83.6022C309.127 83.7352 299.708 87.0625 297.671 87.3492L297.599 87.298Z" fill="#2E353A"/>
<path d="M311.072 83.2846C310.953 83.2822 310.839 83.2393 310.748 83.163C310.656 83.0867 310.594 82.9815 310.571 82.8648C310.547 82.7318 310.576 82.5948 310.653 82.4835C310.73 82.3723 310.847 82.2959 310.98 82.271L314.133 81.6977C314.268 81.6736 314.406 81.7029 314.519 81.7794C314.632 81.8559 314.71 81.9736 314.737 82.1072C314.751 82.1746 314.75 82.2438 314.736 82.311C314.722 82.3782 314.695 82.4418 314.655 82.4982C314.616 82.5545 314.566 82.6024 314.508 82.639C314.45 82.6756 314.385 82.7002 314.318 82.7113L311.164 83.2846H311.072Z" fill="#2E353A"/>
<path d="M207.005 119.967C204.837 119.902 202.681 120.311 200.688 121.164L207.005 119.967Z" fill="white"/>
<path d="M200.688 121.707C200.552 121.733 200.412 121.704 200.298 121.626C200.183 121.548 200.105 121.428 200.079 121.292C200.053 121.157 200.082 121.016 200.16 120.902C200.238 120.788 200.358 120.709 200.494 120.683C202.561 119.795 204.797 119.372 207.046 119.444C207.113 119.45 207.179 119.468 207.239 119.499C207.299 119.529 207.353 119.571 207.396 119.623C207.44 119.674 207.473 119.734 207.494 119.798C207.515 119.862 207.522 119.93 207.517 119.997C207.504 120.132 207.439 120.257 207.336 120.345C207.232 120.432 207.099 120.477 206.964 120.468C204.88 120.408 202.808 120.803 200.893 121.625C200.832 121.667 200.762 121.695 200.688 121.707Z" fill="#2E353A"/>
<path d="M237.616 105.931C237.616 105.931 245.509 103.515 247.598 101.907L237.616 105.931Z" fill="white"/>
<path d="M237.616 106.443C237.48 106.462 237.342 106.426 237.233 106.344C237.124 106.261 237.051 106.139 237.032 106.003C237.013 105.867 237.049 105.729 237.132 105.62C237.214 105.51 237.337 105.438 237.473 105.419C237.544 105.419 245.294 103.024 247.291 101.488C247.398 101.405 247.534 101.369 247.668 101.386C247.802 101.403 247.924 101.473 248.007 101.58C248.087 101.688 248.122 101.823 248.105 101.957C248.088 102.09 248.02 102.212 247.915 102.297C245.765 103.945 238.097 106.3 237.769 106.392C237.722 106.419 237.67 106.437 237.616 106.443Z" fill="#2E353A"/>
<path d="M249.533 101.109C249.533 101.109 250.823 99.9824 251.304 99.9824L249.533 101.109Z" fill="white"/>
<path d="M249.532 101.621C249.459 101.62 249.387 101.604 249.32 101.574C249.253 101.544 249.193 101.501 249.143 101.447C249.049 101.349 248.996 101.219 248.996 101.083C248.996 100.947 249.049 100.817 249.143 100.72C249.722 100.123 250.45 99.6913 251.252 99.4707C251.388 99.4707 251.518 99.5246 251.614 99.6206C251.71 99.7166 251.764 99.8468 251.764 99.9826C251.762 100.118 251.707 100.246 251.611 100.342C251.516 100.437 251.387 100.492 251.252 100.494C250.725 100.76 250.242 101.106 249.819 101.518C249.737 101.582 249.636 101.618 249.532 101.621Z" fill="#2E353A"/>
<path d="M297.599 87.2981C297.472 87.2965 297.35 87.2489 297.256 87.1641C297.162 87.0794 297.102 86.9633 297.087 86.8374L295.807 73.6818C295.801 73.6146 295.807 73.5467 295.827 73.482C295.846 73.4174 295.878 73.3572 295.921 73.3049C295.964 73.2526 296.016 73.2093 296.076 73.1773C296.135 73.1454 296.201 73.1255 296.268 73.1188C296.335 73.112 296.403 73.1186 296.468 73.1381C296.532 73.1577 296.593 73.1897 296.645 73.2325C296.697 73.2753 296.741 73.3279 296.772 73.3875C296.804 73.447 296.824 73.5122 296.831 73.5795L298.121 86.7453C298.128 86.812 298.122 86.8795 298.102 86.9437C298.083 87.0079 298.05 87.0675 298.007 87.1191C297.965 87.1706 297.912 87.213 297.852 87.2438C297.792 87.2746 297.727 87.293 297.66 87.2981H297.599Z" fill="#2E353A"/>
<path d="M191.341 130.04C191.341 130.04 189.529 136.971 201.149 139.848C206.667 141.21 243.185 150.086 243.185 150.086C243.185 150.086 246.451 143.083 244.588 143.083C242.724 143.083 209.052 120.693 209.052 120.693" fill="white"/>
<path d="M196.767 138.323L239.11 149.134L240.236 146.451C240.236 146.451 224.286 143.257 214.324 138.261C204.363 133.265 203.728 134.832 200.309 132.661C196.889 130.491 199.684 128.3 199.684 128.3C199.684 128.3 209.032 132.037 214.017 132.344C219.003 132.651 212.461 130.481 208.724 127.051C207.178 125.638 205.745 124.215 204.629 123.048L191.32 130.03C191.32 130.03 190.03 135.057 196.767 138.323Z" fill="#2DA94F"/>
<path opacity="0.5" d="M196.767 138.323L239.11 149.134L240.236 146.451C240.236 146.451 224.286 143.257 214.324 138.261C204.363 133.265 203.728 134.832 200.309 132.661C196.889 130.491 199.684 128.3 199.684 128.3C199.684 128.3 209.032 132.037 214.017 132.344C219.003 132.651 212.461 130.481 208.724 127.051C207.178 125.638 205.745 124.215 204.629 123.048L191.32 130.03C191.32 130.03 190.03 135.057 196.767 138.323Z" fill="white"/>
<path d="M243.185 150.68H243.062C243.062 150.68 206.544 141.763 201.026 140.442C196.419 139.306 193.296 137.371 191.75 134.801C190.85 133.378 190.527 131.664 190.849 130.01C190.885 129.88 190.971 129.768 191.087 129.7C191.204 129.631 191.342 129.61 191.474 129.641C191.604 129.677 191.714 129.763 191.781 129.88C191.848 129.997 191.867 130.136 191.832 130.266C191.6 131.666 191.892 133.101 192.651 134.3C194.054 136.654 196.961 138.395 201.271 139.419C206.39 140.698 238.865 148.633 242.898 149.595C244.158 146.81 244.946 144.108 244.587 143.688C242.642 143.688 214.437 124.953 208.806 121.165C208.693 121.088 208.615 120.969 208.588 120.835C208.562 120.702 208.588 120.562 208.663 120.448C208.7 120.392 208.748 120.344 208.804 120.307C208.86 120.27 208.922 120.245 208.988 120.232C209.054 120.22 209.122 120.221 209.187 120.235C209.253 120.249 209.315 120.276 209.369 120.315C222.627 129.15 242.96 142.388 244.608 142.643C244.775 142.646 244.939 142.689 245.085 142.77C245.231 142.85 245.356 142.965 245.447 143.104C246.297 144.445 244.28 149.011 243.635 150.383C243.595 150.47 243.532 150.543 243.452 150.596C243.373 150.648 243.28 150.678 243.185 150.68Z" fill="#2E353A"/>
<path d="M244.588 143.114C244.588 143.114 256.576 148.725 257.508 150.281C258.439 151.837 260.579 159.925 260.579 162.423C260.579 164.921 260.272 164.911 258.716 164.911C257.16 164.911 253.106 158.993 252.174 157.744C251.242 156.495 249.103 156.495 246.256 154.673C245.463 154.17 244.782 153.51 244.254 152.733C243.725 151.957 243.362 151.08 243.185 150.158L244.588 143.114Z" fill="white"/>
<path d="M258.757 165.423C257.416 165.423 255.204 162.751 252.297 158.738C252.092 158.451 251.928 158.215 251.805 158.062C251.22 157.48 250.488 157.07 249.686 156.874C248.395 156.415 247.161 155.807 246.011 155.062C245.149 154.52 244.409 153.807 243.835 152.967C243.26 152.127 242.865 151.178 242.673 150.179C242.668 150.128 242.668 150.076 242.673 150.025L244.076 143.012C244.092 142.937 244.124 142.866 244.17 142.804C244.215 142.742 244.274 142.691 244.342 142.654C244.412 142.619 244.489 142.601 244.567 142.601C244.645 142.601 244.723 142.619 244.792 142.654C246.84 143.596 256.975 148.408 257.938 150.015C258.9 151.622 261.122 159.854 261.122 162.423C261.122 164.993 260.651 165.423 258.757 165.423ZM243.707 150.138C243.89 150.978 244.238 151.773 244.732 152.476C245.226 153.179 245.856 153.776 246.584 154.233C247.671 154.933 248.836 155.503 250.055 155.932C251.04 156.189 251.932 156.721 252.624 157.468C252.747 157.622 252.921 157.857 253.126 158.154C256.873 163.334 258.245 164.42 258.757 164.42C260.108 164.42 260.108 164.42 260.108 162.444C260.108 160.028 257.979 152.073 257.037 150.558C256.443 149.534 249.533 146.053 244.926 143.872L243.707 150.138Z" fill="#2E353A"/>
<path d="M239.469 149.431C239.418 149.44 239.366 149.44 239.315 149.431C239.25 149.411 239.19 149.378 239.139 149.335C239.087 149.292 239.044 149.238 239.014 149.178C238.983 149.118 238.965 149.052 238.961 148.984C238.956 148.917 238.965 148.849 238.987 148.786L240.851 143.001C240.87 142.935 240.902 142.873 240.945 142.82C240.988 142.766 241.042 142.722 241.103 142.69C241.163 142.657 241.23 142.638 241.299 142.632C241.367 142.626 241.436 142.634 241.502 142.655C241.567 142.676 241.628 142.711 241.679 142.756C241.731 142.801 241.774 142.857 241.804 142.919C241.834 142.98 241.851 143.048 241.854 143.117C241.858 143.185 241.847 143.254 241.823 143.319L239.96 149.103C239.921 149.201 239.853 149.285 239.765 149.343C239.677 149.401 239.574 149.432 239.469 149.431Z" fill="#2E353A"/>
<path d="M330.371 99.4908C330.371 99.4908 327.299 110.077 326.009 116.301C324.719 122.526 316.048 147.445 316.048 147.445L323.521 152.113C323.521 152.113 340.025 117.919 343.168 110.425C346.311 102.931 345.348 97.3408 342.236 94.2285" fill="white"/>
<path d="M323.521 152.656C323.427 152.653 323.335 152.625 323.255 152.574L315.781 147.905C315.682 147.844 315.607 147.751 315.568 147.641C315.529 147.531 315.528 147.411 315.567 147.301C315.648 147.056 324.289 122.352 325.507 116.24C326.726 110.128 329.858 99.4907 329.858 99.3781C329.897 99.2423 329.987 99.1272 330.11 99.0581C330.233 98.989 330.378 98.9715 330.514 99.0095C330.649 99.0475 330.765 99.1379 330.834 99.2608C330.903 99.3836 330.92 99.5289 330.882 99.6647C330.882 99.7671 327.76 110.302 326.531 116.434C325.364 122.28 317.839 143.964 316.682 147.26L323.327 151.407C325.374 147.097 339.82 117.1 342.686 110.22C345.451 103.576 345.154 97.9345 341.867 94.5868C341.772 94.4917 341.719 94.3628 341.719 94.2284C341.719 94.094 341.772 93.9651 341.867 93.8701C341.962 93.7751 342.091 93.7217 342.226 93.7217C342.36 93.7217 342.489 93.7751 342.584 93.8701C346.188 97.4636 346.567 103.576 343.608 110.619C340.537 118.021 324.156 152.021 323.982 152.369C323.952 152.434 323.908 152.491 323.853 152.537C323.798 152.583 323.734 152.617 323.665 152.635L323.521 152.656Z" fill="#2E353A"/>
<path d="M317.46 143.883C318.024 143.883 325.118 147.794 325.118 147.794L317.46 143.883Z" fill="#2E353A"/>
<path d="M268.36 87.6456C266.64 87.3589 257.457 81.3391 251.15 76.4659C244.844 71.5927 241.404 70.7327 241.404 70.7327L237.104 73.5993C236.453 71.5041 236.66 69.2364 237.677 67.2928C239.397 64.1396 245.417 60.9863 251.437 58.693C257.457 56.3998 264.337 54.4443 268.647 54.4443C272.957 54.4443 274.093 56.1643 274.093 58.4576C274.093 60.7508 274.093 67.9173 272.66 73.3638C271.227 78.8103 268.36 87.6456 268.36 87.6456Z" fill="white"/>
<g style="mix-blend-mode:multiply">
<path d="M265.657 57.752C265.657 57.752 263.005 65.6965 260.354 68.0819C258.306 69.7989 256.09 71.3047 253.74 72.5763C253.74 72.5763 252.153 67.0172 248.181 67.0172C244.209 67.0172 238.117 69.6688 238.117 69.6688C238.117 69.6688 238.117 67.5496 243.144 64.898L248.181 62.2566L259.832 57.752H265.657Z" fill="#2DA94F"/>
</g>
<path opacity="0.5" d="M265.657 57.752C265.657 57.752 263.005 65.6965 260.354 68.0819C258.306 69.7989 256.09 71.3047 253.74 72.5763C253.74 72.5763 252.153 67.0172 248.181 67.0172C244.209 67.0172 238.117 69.6688 238.117 69.6688C238.117 69.6688 238.117 67.5496 243.144 64.898L248.181 62.2566L259.832 57.752H265.657Z" fill="white"/>
<path d="M268.36 88.1581H268.268C266.363 87.8407 256.934 81.5854 250.863 76.8965C245.591 72.8013 242.335 71.583 241.506 71.3169L237.411 74.0504C237.344 74.0908 237.269 74.1171 237.192 74.1276C237.114 74.1382 237.036 74.1328 236.96 74.1118C236.887 74.0865 236.82 74.0447 236.765 73.9897C236.71 73.9348 236.668 73.8679 236.643 73.7944C236.292 72.6893 236.165 71.5254 236.268 70.3706C236.372 69.2157 236.705 68.0931 237.247 67.0682C239.295 63.2392 246.932 59.9017 251.283 58.2329C254.702 56.9327 263.241 53.9023 268.687 53.9023C272.69 53.9023 274.646 55.3766 274.646 58.4275C274.646 60.7822 274.646 67.9589 273.192 73.4668C271.738 78.9748 268.912 87.7383 268.882 87.7998C268.849 87.9104 268.779 88.0064 268.684 88.0717C268.589 88.137 268.475 88.1675 268.36 88.1581ZM241.403 70.2214H241.526C241.67 70.2214 245.151 71.1633 251.467 76.0467C257.395 80.6231 265.657 86.0696 268.022 87.0012C268.636 85.0765 270.94 77.7872 272.117 73.1597C273.54 67.7848 273.54 60.7105 273.54 58.3865C273.54 56.6563 272.956 54.8852 268.605 54.8852C264.899 54.8852 258.695 56.4413 251.58 59.1543C244.465 61.8674 239.499 64.9285 238.086 67.5186C237.239 69.1275 236.986 70.9832 237.37 72.7604L241.076 70.2931C241.174 70.2323 241.289 70.207 241.403 70.2214Z" fill="#2E353A"/>
<path d="M242.837 51.2602C246.195 54.9642 248.553 59.4641 249.686 64.3339C251.549 72.4321 263.261 81.9532 266.067 81.9532C268.872 81.9532 268.677 68.0707 267.746 64.0268C266.814 59.9829 263.077 49.0796 263.077 49.0796C263.077 49.0796 248.171 41.9131 242.837 51.2602Z" fill="white"/>
<path d="M266.107 82.4659C263.098 82.4659 251.119 72.6785 249.225 64.4473C248.103 59.674 245.792 55.2616 242.509 51.6194C242.43 51.54 242.38 51.437 242.365 51.326C242.35 51.2151 242.372 51.1023 242.427 51.0051C247.894 41.3611 263.179 48.5378 263.333 48.6197C263.395 48.6488 263.451 48.6901 263.496 48.7411C263.542 48.7921 263.577 48.8518 263.599 48.9166C263.753 49.3568 267.356 59.8813 268.288 63.915C269.097 67.4573 269.476 79.0976 267.326 81.8107C267.188 82.007 267.005 82.1684 266.794 82.2822C266.583 82.3959 266.348 82.4588 266.107 82.4659ZM243.513 51.1894C246.797 54.9084 249.102 59.3878 250.218 64.2221C252.082 72.2588 263.722 81.4421 266.107 81.4421C266.107 81.4421 266.302 81.4421 266.517 81.1657C268.257 78.985 268.145 67.8565 267.285 64.1402C266.425 60.4239 263.19 50.9846 262.698 49.4489C260.989 48.6913 248.345 43.3984 243.513 51.1894Z" fill="#2E353A"/>
<g style="mix-blend-mode:multiply">
<path d="M265.657 57.752C265.657 57.752 263.005 65.6965 260.354 68.0819C258.306 69.7989 256.09 71.3047 253.74 72.5763C253.74 72.5763 252.153 67.0172 248.181 67.0172C244.209 67.0172 238.117 69.6688 238.117 69.6688C238.117 69.6688 238.117 67.5496 243.144 64.898L248.181 62.2566L259.832 57.752H265.657Z" fill="#2DA94F"/>
</g>
<path opacity="0.5" d="M265.657 57.752C265.657 57.752 263.005 65.6965 260.354 68.0819C258.306 69.7989 256.09 71.3047 253.74 72.5763C253.74 72.5763 252.153 67.0172 248.181 67.0172C244.209 67.0172 238.117 69.6688 238.117 69.6688C238.117 69.6688 238.117 67.5496 243.144 64.898L248.181 62.2566L259.832 57.752H265.657Z" fill="white"/>
<path d="M242.837 51.2612C246.195 54.9651 248.553 59.4651 249.686 64.3349C251.549 72.433 263.261 81.9542 266.067 81.9542C268.872 81.9542 268.677 68.0717 267.746 64.0278C266.814 59.9838 263.077 49.0806 263.077 49.0806C263.077 49.0806 248.171 41.9141 242.837 51.2612Z" fill="white"/>
<path d="M266.107 82.4659C263.098 82.4659 251.119 72.6785 249.225 64.4473C248.103 59.674 245.792 55.2616 242.509 51.6194C242.43 51.54 242.38 51.437 242.365 51.326C242.35 51.2151 242.372 51.1023 242.427 51.0051C247.894 41.3611 263.179 48.5378 263.333 48.6197C263.395 48.6488 263.451 48.6901 263.496 48.7411C263.542 48.7921 263.577 48.8518 263.599 48.9166C263.753 49.3568 267.356 59.8813 268.288 63.915C269.097 67.4573 269.476 79.0976 267.326 81.8107C267.188 82.007 267.005 82.1684 266.794 82.2822C266.583 82.3959 266.348 82.4588 266.107 82.4659ZM243.513 51.1894C246.797 54.9084 249.102 59.3878 250.218 64.2221C252.082 72.2588 263.722 81.4421 266.107 81.4421C266.107 81.4421 266.302 81.4421 266.517 81.1657C268.257 78.985 268.145 67.8565 267.285 64.1402C266.425 60.4239 263.19 50.9846 262.698 49.4489C260.989 48.6913 248.345 43.3984 243.513 51.1894Z" fill="#2E353A"/>
<path d="M232.998 36.2519C235.195 42.2252 237.912 47.9941 241.117 53.4924C245.847 61.2629 254.979 65.6651 260.047 63.638C265.114 61.611 268.565 55.069 267.213 44.9336C266.916 42.7017 264.971 41.7905 264.347 39.8146C262.105 32.6482 259.821 25.7376 259.033 23.1065C258.009 19.7178 249.901 16.3393 241.455 18.7043C233.009 21.0692 231.647 28.1333 232.998 36.2519Z" fill="white"/>
<path d="M261.061 30.0485C261.061 30.0485 257.989 32.3315 251.089 31.0109C244.189 29.6902 239.438 29.9871 239.704 31.8094C239.971 33.6317 240.503 36.0376 240.503 36.0376C240.503 36.0376 232.221 28.8712 239.725 26.9669C245.13 25.5644 248.253 27.6938 249.574 27.9907C250.894 28.2876 261.061 30.0485 261.061 30.0485Z" fill="#2DA94F"/>
<path opacity="0.5" d="M261.061 30.0485C261.061 30.0485 257.989 32.3315 251.089 31.0109C244.189 29.6902 239.438 29.9871 239.704 31.8094C239.971 33.6317 240.503 36.0376 240.503 36.0376C240.503 36.0376 232.221 28.8712 239.725 26.9669C245.13 25.5644 248.253 27.6938 249.574 27.9907C250.894 28.2876 261.061 30.0485 261.061 30.0485Z" fill="white"/>
<path d="M257.221 64.6826C251.724 64.6826 244.567 60.1882 240.677 53.7896C237.444 48.2597 234.703 42.4565 232.487 36.4467C232.481 36.4197 232.481 36.3918 232.487 36.3648C230.797 26.2806 233.685 20.3324 241.301 18.2029C250.137 15.7254 258.44 19.3701 259.515 22.9431C259.883 24.1818 260.538 26.3523 261.449 29.0857C262.473 32.1571 263.63 35.8734 264.818 39.6819C265.115 40.4396 265.553 41.1343 266.108 41.7295C266.936 42.5986 267.491 43.6912 267.705 44.8725C269.22 56.2467 264.838 62.2767 260.231 64.1195C259.273 64.4974 258.251 64.6886 257.221 64.6826ZM233.5 36.1191C235.682 42.0441 238.374 47.7681 241.547 53.2265C246.308 61.038 255.307 64.9795 259.863 63.1572C264.111 61.4577 268.145 55.7962 266.701 44.9953C266.514 44.0086 266.048 43.0959 265.36 42.3642C264.713 41.6549 264.216 40.8228 263.896 39.9174C262.709 36.1191 261.511 32.3926 260.528 29.3315C259.658 26.6287 258.962 24.448 258.583 23.1888C257.723 20.3426 250.157 16.7492 241.629 19.0936C234.585 21.1207 231.934 26.6696 233.5 36.1191Z" fill="#2E353A"/>
<path d="M239.09 47.4007C239.09 47.4007 233.674 45.0358 233.336 47.4007C232.998 49.7656 235.384 51.4958 237.728 52.5196C238.313 52.8394 238.979 52.978 239.643 52.9178C240.307 52.8577 240.937 52.6014 241.455 52.1818" fill="white"/>
<path d="M239.438 53.4203C238.781 53.4121 238.133 53.2693 237.534 53.0006C234.186 51.5673 232.517 49.5709 232.835 47.38C232.862 47.1296 232.949 46.8895 233.09 46.6808C233.231 46.472 233.421 46.3009 233.643 46.1822C235.271 45.271 238.885 46.8067 239.295 46.991C239.41 47.0517 239.498 47.1542 239.54 47.2774C239.582 47.4006 239.576 47.5353 239.523 47.6541C239.469 47.7729 239.372 47.8668 239.252 47.9167C239.132 47.9666 238.997 47.9687 238.875 47.9226C237.523 47.3288 235.036 46.5815 234.135 47.0729C234.053 47.1177 233.984 47.1825 233.933 47.2612C233.883 47.34 233.854 47.4302 233.848 47.5234C233.521 49.8064 236.264 51.3421 237.943 52.0587C238.436 52.3326 238.998 52.4562 239.56 52.4144C240.122 52.3726 240.66 52.1671 241.107 51.8232C241.205 51.74 241.332 51.6971 241.46 51.7029C241.589 51.7088 241.711 51.7631 241.802 51.8549C241.892 51.9467 241.945 52.0693 241.949 52.1982C241.953 52.3271 241.908 52.4528 241.823 52.5501C241.167 53.1311 240.314 53.442 239.438 53.4203Z" fill="#2E353A"/>
<path d="M261.194 34.0307C261.194 34.0307 255.164 32.5974 257.743 40.6341C258.255 42.221 261.767 44.074 261.767 44.074C261.767 44.074 261.48 46.6539 260.047 46.9406" fill="white"/>
<path d="M260.036 47.4524C259.919 47.4506 259.805 47.4091 259.714 47.3348C259.623 47.2605 259.56 47.1576 259.535 47.0429C259.521 46.9763 259.521 46.9077 259.535 46.8411C259.548 46.7745 259.575 46.7113 259.613 46.6551C259.651 46.5989 259.7 46.5508 259.757 46.5137C259.814 46.4766 259.877 46.4511 259.944 46.4389C260.681 46.2853 261.06 45.067 261.203 44.3913C260.262 43.8589 257.743 42.3437 257.262 40.8285C256.3 37.8391 256.381 35.7096 257.497 34.5016C258.869 33.0171 261.203 33.5597 261.306 33.5802C261.437 33.6118 261.551 33.6941 261.622 33.8092C261.693 33.9243 261.715 34.0628 261.685 34.1944C261.67 34.2602 261.643 34.3224 261.604 34.3774C261.565 34.4323 261.515 34.4788 261.458 34.5142C261.401 34.5495 261.337 34.573 261.27 34.5831C261.204 34.5933 261.136 34.5899 261.07 34.5732C261.07 34.5732 259.207 34.1535 258.245 35.1977C257.282 36.242 257.405 37.9415 258.245 40.5112C258.572 41.5349 260.732 42.9785 262.012 43.6542C262.101 43.7049 262.173 43.7801 262.221 43.8709C262.268 43.9617 262.288 44.0642 262.278 44.1661C262.278 44.4732 261.9 47.135 260.149 47.4831L260.036 47.4524Z" fill="#2E353A"/>
<path d="M256.883 52.673C256.883 52.673 252.583 53.533 250.863 51.5264L256.883 52.673Z" fill="white"/>
<path d="M254.826 53.4204C254.035 53.4831 253.24 53.3808 252.491 53.12C251.742 52.8591 251.055 52.4455 250.474 51.9052C250.431 51.8541 250.398 51.7949 250.377 51.731C250.356 51.6671 250.348 51.5997 250.353 51.5327C250.358 51.4656 250.377 51.4003 250.407 51.3404C250.438 51.2804 250.48 51.2271 250.531 51.1834C250.582 51.1397 250.641 51.1065 250.705 51.0857C250.769 51.0649 250.836 51.0569 250.903 51.0621C250.97 51.0673 251.036 51.0857 251.096 51.1162C251.155 51.1467 251.209 51.1886 251.253 51.2397C252.757 53.0006 256.75 52.2635 256.791 52.2635C256.857 52.2487 256.924 52.2473 256.99 52.2596C257.056 52.2719 257.119 52.2975 257.174 52.3349C257.23 52.3723 257.277 52.4207 257.314 52.4771C257.35 52.5335 257.374 52.5967 257.385 52.6628C257.398 52.7287 257.399 52.7966 257.386 52.8626C257.373 52.9286 257.348 52.9914 257.31 53.0475C257.273 53.1036 257.226 53.1519 257.17 53.1895C257.114 53.2271 257.052 53.2534 256.986 53.2668C256.271 53.3801 255.549 53.4314 254.826 53.4204Z" fill="#2E353A"/>
<path d="M250.577 39.2008C250.577 39.2008 247.424 38.0542 245.704 39.4875C244.783 40.1282 244.071 41.0254 243.656 42.0674" fill="white"/>
<path d="M243.697 42.5687H243.574C243.509 42.552 243.447 42.5226 243.393 42.4821C243.34 42.4417 243.294 42.391 243.26 42.333C243.226 42.275 243.203 42.2108 243.194 42.144C243.185 42.0773 243.188 42.0094 243.205 41.9442C243.634 40.8029 244.388 39.813 245.376 39.0981C247.301 37.501 250.618 38.6783 250.751 38.7295C250.815 38.7512 250.874 38.7856 250.924 38.8307C250.974 38.8758 251.015 38.9305 251.044 38.9917C251.073 39.0529 251.089 39.1193 251.091 39.1868C251.093 39.2544 251.082 39.3217 251.058 39.3848C251.012 39.5123 250.917 39.6164 250.794 39.674C250.671 39.7316 250.53 39.738 250.403 39.6919C250.403 39.6919 247.505 38.6681 246.031 39.8864C245.22 40.4751 244.586 41.2755 244.198 42.2002C244.165 42.3073 244.099 42.401 244.009 42.4674C243.918 42.5338 243.809 42.5693 243.697 42.5687Z" fill="#2E353A"/>
<path d="M250.495 44.1041C250.904 45.0562 250.823 45.9981 250.311 46.2131C249.799 46.4281 249.062 45.8446 248.652 44.8924C248.243 43.9403 248.335 43.0087 248.847 42.7835C249.359 42.5582 250.096 43.1827 250.495 44.1041Z" fill="#2E353A"/>
<path d="M260.804 39.0883C261.214 40.0302 261.122 40.9721 260.62 41.1973C260.118 41.4225 259.361 40.8185 258.961 39.8766C258.562 38.9348 258.634 37.9826 259.146 37.7676C259.658 37.5527 260.395 38.1464 260.804 39.0883Z" fill="#2E353A"/>
<path d="M237.585 48.7627C237.585 48.7627 241.004 46.2749 240.38 44.0943C239.755 41.9136 238.516 41.9136 239.765 40.6748C241.015 39.4361 241.936 38.8013 241.629 36.938C241.322 35.0747 236.336 31.9522 237.892 30.0889C239.448 28.2256 238.824 25.9938 251.59 29.147C264.357 32.3003 272.455 27.2838 268.718 22.6153C264.981 17.9469 261.869 17.3224 261.869 17.3224C261.869 17.3224 269.035 14.251 263.118 11.0875C257.2 7.92405 243.809 8.01619 236.336 13.8927C228.862 19.7692 230.418 24.755 230.418 24.755C230.418 24.755 226.374 25.3795 226.057 31.6144C225.74 37.8492 237.585 48.7627 237.585 48.7627Z" fill="#2E353A"/>
<path d="M257.958 27.9077C255.237 27.7935 252.558 27.1973 250.044 26.1468C248.075 25.307 245.977 24.8084 243.84 24.6726C238.895 24.6726 237.872 27.4778 237.831 27.6006C237.817 27.6443 237.794 27.6848 237.765 27.7195C237.735 27.7542 237.698 27.7825 237.657 27.8026C237.616 27.8227 237.571 27.8342 237.525 27.8365C237.479 27.8387 237.433 27.8316 237.391 27.8156C237.347 27.8017 237.306 27.7792 237.271 27.7495C237.236 27.7197 237.207 27.6834 237.186 27.6424C237.165 27.6015 237.153 27.5568 237.149 27.511C237.145 27.4652 237.151 27.4191 237.165 27.3754C237.216 27.2423 238.363 23.9662 243.84 23.9662C246.059 24.0974 248.238 24.6136 250.28 25.4916C253.464 26.628 256.771 27.8054 260.927 26.884C263.18 26.3823 264.5 25.5735 264.828 24.4985C265.258 23.1164 263.927 21.6729 263.917 21.6524C263.852 21.5872 263.815 21.4988 263.815 21.4067C263.815 21.3146 263.852 21.2263 263.917 21.161C263.985 21.0977 264.074 21.0625 264.168 21.0625C264.261 21.0625 264.35 21.0977 264.418 21.161C264.48 21.2327 266.036 22.9219 265.493 24.6931C265.074 26.0342 263.589 26.9966 261.071 27.5597C260.048 27.7857 259.005 27.9024 257.958 27.9077Z" fill="white"/>
<path d="M235.118 27.0481C235.025 27.0402 234.938 26.9962 234.877 26.9254C234.816 26.8546 234.785 26.7627 234.79 26.6693C234.79 26.5976 235.394 19.8407 241.383 18.3255C244.915 17.4348 249 18.1002 252.287 18.6326C254.334 18.9704 256.167 19.2673 256.935 18.9704C257.019 18.9524 257.107 18.9653 257.182 19.0069C257.258 19.0484 257.316 19.1158 257.346 19.1967C257.376 19.2776 257.375 19.3665 257.345 19.4472C257.315 19.5278 257.256 19.5949 257.18 19.6359C256.238 19.984 254.447 19.6973 252.174 19.3288C248.949 18.7964 244.936 18.1514 241.557 19.0012C236.049 20.4037 235.497 26.659 235.486 26.7205C235.484 26.7662 235.472 26.811 235.452 26.8522C235.432 26.8935 235.404 26.9304 235.37 26.9608C235.336 26.9912 235.296 27.0146 235.253 27.0296C235.209 27.0446 235.164 27.0509 235.118 27.0481Z" fill="white"/>
<path d="M231.156 37.6141C231.086 37.6129 231.019 37.5915 230.961 37.5526C230.042 36.7818 229.33 35.794 228.888 34.6786C228.446 33.5632 228.29 32.3553 228.433 31.1642C228.719 26.6596 232.18 26.6084 232.221 26.6084C232.304 26.6226 232.38 26.6659 232.434 26.7306C232.489 26.7952 232.518 26.877 232.518 26.9616C232.518 27.0462 232.489 27.128 232.434 27.1927C232.38 27.2573 232.304 27.3006 232.221 27.3148C232.098 27.3148 229.374 27.3762 229.149 31.2052C229.011 32.2764 229.141 33.3653 229.529 34.3735C229.917 35.3816 230.55 36.2772 231.371 36.9793C231.409 37.0049 231.441 37.0378 231.465 37.0762C231.49 37.1145 231.507 37.1574 231.514 37.2024C231.522 37.2474 231.521 37.2934 231.51 37.3378C231.499 37.3821 231.48 37.4239 231.453 37.4605C231.422 37.5104 231.378 37.551 231.325 37.578C231.273 37.605 231.214 37.6175 231.156 37.6141Z" fill="white"/>
<path d="M233.275 34.7063C233.208 34.7064 233.142 34.687 233.086 34.6507C233.03 34.6144 232.985 34.5626 232.957 34.5016C232.705 34.0345 232.555 33.5188 232.518 32.9891C232.481 32.4594 232.557 31.9279 232.742 31.4302C233.194 30.4544 233.999 29.6861 234.995 29.2803C235.037 29.2622 235.082 29.2529 235.128 29.2529C235.174 29.253 235.22 29.2624 235.262 29.2806C235.304 29.2988 235.342 29.3254 235.374 29.3588C235.405 29.3922 235.429 29.4317 235.445 29.4748C235.479 29.5604 235.477 29.6557 235.441 29.7401C235.404 29.8245 235.336 29.8911 235.251 29.9253C234.436 30.2705 233.774 30.8999 233.387 31.6964C233.242 32.1052 233.186 32.5401 233.221 32.9725C233.256 33.4048 233.383 33.8247 233.592 34.2047C233.631 34.2903 233.634 34.3876 233.601 34.4757C233.569 34.5638 233.503 34.6356 233.418 34.6756C233.373 34.6956 233.324 34.7061 233.275 34.7063Z" fill="white"/>
<path d="M234.063 40.2546C234.007 40.2534 233.951 40.2389 233.901 40.2122C233.852 40.1855 233.809 40.1474 233.776 40.101L232.456 38.2582C232.401 38.1822 232.38 38.0877 232.395 37.9955C232.41 37.9034 232.462 37.8211 232.538 37.7668C232.614 37.7125 232.708 37.6906 232.8 37.706C232.892 37.7213 232.975 37.7727 233.029 37.8487L234.35 39.7017C234.402 39.7767 234.423 39.8691 234.407 39.9591C234.392 40.0491 234.342 40.1295 234.268 40.1829C234.21 40.2301 234.138 40.2555 234.063 40.2546Z" fill="white"/>
</svg>
