<svg width="24" height="24" viewBox="0 0 24 24" fill="none" xmlns="http://www.w3.org/2000/svg">
<path d="M19.4666 9.86693V5.06693C19.4666 3.88872 18.5114 2.93359 17.3332 2.93359H4.53324C3.35503 2.93359 2.3999 3.88872 2.3999 5.06693V13.4148C2.3999 14.593 3.35503 15.5481 4.53324 15.5481H6.2028V20.0003L10.655 15.5481H10.9332M16.4405 18.2843L19.2231 21.0669V18.2843H19.4666C20.6448 18.2843 21.5999 17.3292 21.5999 16.151V12.5336C21.5999 11.3554 20.6448 10.4003 19.4666 10.4003H13.0666C11.8884 10.4003 10.9332 11.3554 10.9332 12.5336V16.151C10.9332 17.3292 11.8884 18.2843 13.0666 18.2843H16.4405Z" stroke="white" stroke-width="2" stroke-linecap="round" stroke-linejoin="round"/>
</svg>
