<svg width="14" height="14" viewBox="0 0 14 14" fill="none" xmlns="http://www.w3.org/2000/svg">
<path d="M7.78802 1.61651L8.8439 3.74572C8.9879 4.04212 9.37184 4.32642 9.69584 4.38085L11.6096 4.70145C12.8335 4.90711 13.1215 5.80235 12.2395 6.68549L10.7517 8.18561C10.4997 8.43965 10.3618 8.92961 10.4397 9.28049L10.8657 11.1375C11.2017 12.6074 10.4277 13.176 9.1379 12.4078L7.34408 11.3371C7.02014 11.1436 6.4862 11.1436 6.1562 11.3371L4.36242 12.4078C3.07856 13.176 2.29865 12.6013 2.63462 11.1375L3.06057 9.28049C3.13856 8.92961 3.00058 8.43965 2.7486 8.18561L1.26077 6.68549C0.384865 5.80235 0.666835 4.90711 1.8907 4.70145L3.80448 4.38085C4.12245 4.32642 4.50641 4.04212 4.65039 3.74572L5.70626 1.61651C6.2822 0.461165 7.21808 0.461165 7.78802 1.61651Z" fill="#F69321" stroke="#F69321" stroke-width="1.5" stroke-linecap="round" stroke-linejoin="round"/>
</svg>
