<svg width="40" height="40" viewBox="0 0 40 40" fill="none" xmlns="http://www.w3.org/2000/svg">
<path d="M7.59191 27.5926C4.34582 27.5926 1.71436 25.3787 1.71436 22.1327C1.71436 18.8866 4.34582 16.2551 7.59191 16.2551C7.81265 16.2551 8.03055 16.2673 8.24497 16.291V16.2551H8.32581C8.27245 15.8272 8.24497 15.3913 8.24497 14.949C8.24497 9.17817 12.9231 4.5 18.6939 4.5C22.6018 4.5 26.0086 6.64523 27.8009 9.82229C28.2389 9.75786 28.687 9.72449 29.1429 9.72449C34.1924 9.72449 38.2858 13.8179 38.2858 18.8673C38.2858 23.024 35.512 26.1927 31.7144 27.2372M19.7115 35.5V20.5M19.7115 20.5L13.7144 26.6862M19.7115 20.5L25.7144 26.6862" stroke="#124959" stroke-width="2" stroke-linecap="round" stroke-linejoin="round"/>
</svg>
