<svg width="20" height="20" viewBox="0 0 20 20" fill="none" xmlns="http://www.w3.org/2000/svg">
<path d="M18.4939 13.4706L17.8543 13.0789V13.0789L18.4939 13.4706ZM17.5394 15.0294L18.179 15.4211V15.4211L17.5394 15.0294ZM1.00609 6.02942L0.36648 5.63775H0.36648L1.00609 6.02942ZM1.96064 4.47057L2.60025 4.86223V4.86223L1.96064 4.47057ZM4.56852 3.81172L4.9271 3.153L4.9271 3.153L4.56852 3.81172ZM1.70487 8.48826L1.34629 9.14699H1.34629L1.70487 8.48826ZM14.9315 15.6883L14.5729 16.347L14.5729 16.347L14.9315 15.6883ZM17.7951 11.0117L17.4366 11.6704V11.6705L17.7951 11.0117ZM1.96064 15.0294L1.32103 15.4211L1.32103 15.4211L1.96064 15.0294ZM1.00609 13.4706L1.6457 13.0789L1.6457 13.0789L1.00609 13.4706ZM17.5394 4.47058L18.179 4.07892V4.07892L17.5394 4.47058ZM18.4939 6.02943L17.8543 6.42109V6.42109L18.4939 6.02943ZM17.7951 8.48828L18.1537 9.147V9.147L17.7951 8.48828ZM14.9315 3.81174L15.2901 4.47046V4.47046L14.9315 3.81174ZM1.70487 11.0117L2.06345 11.6705H2.06345L1.70487 11.0117ZM4.56851 15.6883L4.20994 15.0295L4.20993 15.0295L4.56851 15.6883ZM14.83 3.86698L14.4714 3.20825V3.20825L14.83 3.86698ZM4.67 3.86697L4.31142 4.52569L4.31142 4.52569L4.67 3.86697ZM14.83 15.633L15.1886 14.9743L15.1886 14.9743L14.83 15.633ZM4.67 15.633L5.02858 16.2918L5.02858 16.2918L4.67 15.633ZM8.79545 0.75V1.5H10.7045V0.75V0H8.79545V0.75ZM10.7045 18.75V18H8.79545V18.75V19.5H10.7045V18.75ZM8.79545 18.75V18C8.11311 18 7.63635 17.4889 7.63635 16.95H6.88635H6.13635C6.13635 18.3993 7.36906 19.5 8.79545 19.5V18.75ZM12.6136 16.95H11.8636C11.8636 17.4889 11.3869 18 10.7045 18V18.75V19.5C12.1309 19.5 13.3636 18.3993 13.3636 16.95H12.6136ZM10.7045 0.75V1.5C11.3869 1.5 11.8636 2.01107 11.8636 2.55H12.6136H13.3636C13.3636 1.10071 12.1309 0 10.7045 0V0.75ZM8.79545 0.75V0C7.36906 0 6.13635 1.10071 6.13635 2.55H6.88635H7.63635C7.63635 2.01107 8.11311 1.5 8.79545 1.5V0.75ZM18.4939 13.4706L17.8543 13.0789L16.8998 14.6378L17.5394 15.0294L18.179 15.4211L19.1335 13.8622L18.4939 13.4706ZM1.00609 6.02942L1.6457 6.42108L2.60025 4.86223L1.96064 4.47057L1.32103 4.07891L0.36648 5.63775L1.00609 6.02942ZM1.96064 4.47057L2.60025 4.86223C2.90889 4.3582 3.63055 4.15506 4.20993 4.47045L4.56852 3.81172L4.9271 3.153C3.68027 2.47428 2.06676 2.86109 1.32103 4.07891L1.96064 4.47057ZM1.70487 8.48826L2.06345 7.82954C1.50746 7.52688 1.3543 6.89696 1.6457 6.42108L1.00609 6.02942L0.36648 5.63775C-0.396482 6.88373 0.0760617 8.45553 1.34629 9.14699L1.70487 8.48826ZM17.5394 15.0294L16.8998 14.6378C16.5911 15.1418 15.8695 15.3449 15.2901 15.0295L14.9315 15.6883L14.5729 16.347C15.8197 17.0257 17.4332 16.6389 18.179 15.4211L17.5394 15.0294ZM18.4939 13.4706L19.1335 13.8622C19.8965 12.6163 19.4239 11.0445 18.1537 10.353L17.7951 11.0117L17.4366 11.6705C17.9925 11.9731 18.1457 12.603 17.8543 13.0789L18.4939 13.4706ZM1.96064 15.0294L2.60025 14.6378L1.6457 13.0789L1.00609 13.4706L0.366479 13.8622L1.32103 15.4211L1.96064 15.0294ZM17.5394 4.47058L16.8998 4.86225L17.8543 6.42109L18.4939 6.02943L19.1335 5.63777L18.179 4.07892L17.5394 4.47058ZM18.4939 6.02943L17.8543 6.42109C18.1457 6.89697 17.9925 7.52689 17.4366 7.82955L17.7951 8.48828L18.1537 9.147C19.4239 8.45554 19.8965 6.88374 19.1335 5.63777L18.4939 6.02943ZM14.9315 3.81174L15.2901 4.47046C15.8695 4.15507 16.5911 4.35822 16.8998 4.86225L17.5394 4.47058L18.179 4.07892C17.4332 2.8611 15.8197 2.47429 14.5729 3.15301L14.9315 3.81174ZM1.00609 13.4706L1.6457 13.0789C1.3543 12.603 1.50746 11.9731 2.06345 11.6705L1.70487 11.0117L1.34629 10.353C0.0760599 11.0445 -0.396483 12.6163 0.366479 13.8622L1.00609 13.4706ZM1.96064 15.0294L1.32103 15.4211C2.06675 16.6389 3.68027 17.0257 4.9271 16.347L4.56851 15.6883L4.20993 15.0295C3.63055 15.3449 2.90889 15.1418 2.60025 14.6378L1.96064 15.0294ZM14.83 3.86698L15.1886 4.5257L15.2901 4.47046L14.9315 3.81174L14.5729 3.15301L14.4714 3.20825L14.83 3.86698ZM4.56852 3.81172L4.20993 4.47045L4.31142 4.52569L4.67 3.86697L5.02858 3.20824L4.9271 3.153L4.56852 3.81172ZM14.9315 15.6883L15.2901 15.0295L15.1886 14.9743L14.83 15.633L14.4714 16.2917L14.5729 16.347L14.9315 15.6883ZM4.67 15.633L4.31142 14.9743L4.20994 15.0295L4.56851 15.6883L4.92709 16.347L5.02858 16.2918L4.67 15.633ZM1.70487 8.48826L1.34629 9.14699C1.82404 9.40705 1.82404 10.0929 1.34629 10.353L1.70487 11.0117L2.06345 11.6705C3.58498 10.8422 3.58498 8.65779 2.06345 7.82954L1.70487 8.48826ZM4.67 15.633L5.02858 16.2918C5.52798 16.0199 6.13635 16.3814 6.13635 16.95H6.88635H7.63635C7.63635 15.2434 5.81035 14.1584 4.31142 14.9743L4.67 15.633ZM12.6136 16.95H13.3636C13.3636 16.3814 13.972 16.0199 14.4714 16.2917L14.83 15.633L15.1886 14.9743C13.6897 14.1583 11.8636 15.2434 11.8636 16.95H12.6136ZM17.7951 11.0117L18.1537 10.353C17.676 10.0929 17.676 9.40706 18.1537 9.147L17.7951 8.48828L17.4366 7.82955C15.915 8.6578 15.915 10.8422 17.4366 11.6704L17.7951 11.0117ZM4.67 3.86697L4.31142 4.52569C5.81035 5.34165 7.63635 4.25663 7.63635 2.55H6.88635H6.13635C6.13635 3.1186 5.52798 3.4801 5.02858 3.20824L4.67 3.86697ZM14.83 3.86698L14.4714 3.20825C13.972 3.48011 13.3636 3.11861 13.3636 2.55H12.6136H11.8636C11.8636 4.25663 13.6897 5.34166 15.1886 4.5257L14.83 3.86698ZM12.75 9.75H12C12 10.9926 10.9926 12 9.75001 12V12.75V13.5C11.8211 13.5 13.5 11.8211 13.5 9.75H12.75ZM9.75001 12.75V12C8.50737 12 7.50001 10.9926 7.50001 9.75H6.75001H6.00001C6.00001 11.8211 7.67894 13.5 9.75001 13.5V12.75ZM6.75001 9.75H7.50001C7.50001 8.50736 8.50737 7.5 9.75001 7.5V6.75V6C7.67894 6 6.00001 7.67893 6.00001 9.75H6.75001ZM9.75001 6.75V7.5C10.9926 7.5 12 8.50736 12 9.75H12.75H13.5C13.5 7.67893 11.8211 6 9.75001 6V6.75Z" fill="#F37D22"/>
</svg>
