<svg width="22" height="22" viewBox="0 0 22 22" fill="none" xmlns="http://www.w3.org/2000/svg">
<path d="M19.7483 10.1252C20.027 10.516 20.1663 10.7114 20.1663 11.0007C20.1663 11.2899 20.027 11.4853 19.7483 11.8761C18.4961 13.632 15.2981 17.4173 10.9997 17.4173C6.70122 17.4173 3.50327 13.632 2.25104 11.8761C1.97235 11.4853 1.83301 11.2899 1.83301 11.0007C1.83301 10.7114 1.97235 10.516 2.25104 10.1252C3.50327 8.3693 6.70122 4.58398 10.9997 4.58398C15.2981 4.58398 18.4961 8.3693 19.7483 10.1252Z" stroke="#455469" stroke-width="2"/>
<path d="M13.75 11C13.75 9.48117 12.5188 8.25 11 8.25C9.48117 8.25 8.25 9.48117 8.25 11C8.25 12.5188 9.48117 13.75 11 13.75C12.5188 13.75 13.75 12.5188 13.75 11Z" stroke="#455469" stroke-width="2"/>
</svg>
